<?xml version="1.0" encoding="utf-8"?>
<!-- Generator: Adobe Illustrator 24.0.2, SVG Export Plug-In . SVG Version: 6.00 Build 0)  -->
<svg version="1.1" id="Capa_1" xmlns="http://www.w3.org/2000/svg" xmlns:xlink="http://www.w3.org/1999/xlink" x="0px" y="0px"
	 viewBox="0 0 595.3 841.9" style="enable-background:new 0 0 595.3 841.9;" xml:space="preserve">
<style type="text/css">
	.st0{fill:#FFFFFF;}
	.st1{fill:#2E1519;}
	.st2{fill:#056B5D;}
	.st3{fill:#89CFE4;}
	.st4{fill:#30171A;}
	.st5{fill:#32181B;}
	.st6{fill:#DCDBE1;}
	.st7{fill:#DCDCE2;}
	.st8{fill:#DFDDE3;}
	.st9{fill:#DDDDE3;}
	.st10{fill:#DFDEE4;}
	.st11{fill:#E0DFE4;}
	.st12{clip-path:url(#SVGID_1_);}
	.st13{fill:#C1E3E8;}
	.st14{opacity:0.38;fill:url(#SVGID_2_);enable-background:new    ;}
	.st15{opacity:0.4;fill:url(#SVGID_3_);enable-background:new    ;}
	.st16{fill:#414142;}
	.st17{fill:url(#SVGID_4_);}
	.st18{fill:url(#SVGID_5_);}
	.st19{fill:#E72C74;}
	.st20{fill:#044755;}
</style>
<circle class="st0" cx="301" cy="401.2" r="273.1"/>
<g>
	<path class="st1" d="M226.8,259c2.5,2.5,3.8,5.7,4,9.1c-0.5,4.3-2.1,6.9-5.6,9.8c-0.7,0.4-1.3,0.8-2,1.2c-0.3,1.3-0.3,1.3-0.3,2.8
		c0,0.8,0,0.8-0.1,1.7c0,0.6,0,1.2,0,1.7c0,0.6,0,1.2-0.1,1.8c-0.1,1.4-0.1,2.9-0.1,4.3c0.4,0,0.8,0,1.2,0c4.1-0.1,8.2-0.1,12.3-0.1
		c1.5,0,3.1,0,4.6-0.1c2.2,0,4.4-0.1,6.6-0.1c0.7,0,1.4,0,2.1,0c2.9,0,4.8,0.1,7.4,1.4c1.9,3.1,1.6,5.9,1.6,9.4c0,1.1,0,1.1,0,2.2
		c0,2.3-0.1,4.6-0.1,6.9c0,1.6,0,3.1,0,4.7c0,3.8-0.1,7.6-0.2,11.5c7.3,0,14.6,0,22.1,0c0-6.2,0-12.4,0-18.6c0-2.9,0-5.7,0-8.6
		c0-2.8,0-5.6,0-8.3c0-1.1,0-2.1,0-3.2c0.3-5.7,0.3-5.7-1.9-10.9c-1.4-1.1-1.4-1.1-2.9-2c-2-1.3-2.5-2.8-3.1-4.9
		c-0.5-3.4-0.1-6,1.6-9c3-3.3,5.4-5.2,10-5.9c3.9-0.2,7.1,0.5,10.2,2.8c3.2,2.8,4.2,5.3,4.4,9.3c-0.1,3.6-0.9,6.1-3.7,8.7
		c-0.7,0.3-1.3,0.7-2,1c-2.2,1.3-2.2,1.3-2.5,3.6c0,0.9,0,1.7,0,2.6c0,0.5,0,0.9,0,1.4c0,1.5,0,3.1,0,4.6c0,1.1,0,2.1,0,3.2
		c0,2.8,0,5.6,0,8.5c0,3.4,0,6.8-0.1,10.2c0,5.1,0,10.3,0,15.4c7.5,0,15,0,22.7,0c0-15.9,0-31.7,0-48c-1.1-0.4-2.2-0.8-3.3-1.2
		c-3.9-3.9-5-6.4-4.9-11.7c0.5-3.7,2.5-5.9,5.4-8.3c3.7-2.2,8-1.9,12.3-1.6c3.9,1.7,6.6,4.5,8.3,8.2c0.7,3.6,0.5,6.5-1.4,9.8
		c-1.5,1.7-1.5,1.7-3.6,3c-1.8,1.4-1.9,1.7-2.5,3.9c0,0.9,0,1.7,0,2.6c0,0.5,0,0.9,0,1.4c0,1.5,0,3.1,0,4.6c0,1.1,0,2.1,0,3.2
		c0,2.8,0,5.6,0,8.5c0,2.9,0,5.8,0,8.6c0,5.6,0,11.3,0,16.9c7.3,0,14.6,0,22.1,0c0-2.3-0.1-4.6-0.1-7c0-2.2,0-4.5-0.1-6.7
		c0-1.6,0-3.1-0.1-4.7c0-2.2-0.1-4.5-0.1-6.7c0-0.7,0-1.4-0.1-2.1c0-2.9,0-4.8,1.6-7.3c3.1-1.6,5.9-1.5,9.5-1.4c0.7,0,1.4,0,2.1,0
		c2.3,0,4.5,0.1,6.8,0.1c1.5,0,3.1,0,4.6,0c3.8,0,7.5,0.1,11.2,0.2c0-2,0-4-0.1-6c0-0.9,0-0.9,0-1.7c-0.1-1.6-0.1-3-0.6-4.6
		c-1.9-1.6-1.9-1.6-4-2.5c-2.8-3.3-3.9-7-3.3-11.1c0.9-3.3,2.4-5.6,5.3-7.7c3.9-2.1,7.7-2.2,12.1-1.5c3.8,1.3,6.1,3.5,8,6.8
		c1.3,3.6,1.3,7.3-0.5,10.7c-1.5,2.5-3.5,4-6.2,5.3c0,0.6,0,1.1,0,1.7c0,2.1-0.1,4.2-0.1,6.3c0,0.9,0,1.8,0,2.7c0,1.3,0,2.6-0.1,3.9
		c0,0.8,0,1.6,0,2.4c-0.4,2-0.4,2-1.7,3.5c-3.1,1.4-6,1.3-9.5,1.2c-0.7,0-1.4,0-2.1,0c-2.3,0-4.5,0-6.8-0.1c-1.5,0-3.1,0-4.6,0
		c-3.8,0-7.5-0.1-11.2-0.1c0,8.7,0,17.5,0,26.5c8.5-0.1,8.5-0.1,17-0.2c1.1,0,2.1,0,3.2,0c0.6,0,1.1,0,1.7,0c3.9,0,3.9,0,5.4,1
		c1.5,1.9,1.1,4.2,1,6.5c0,0.5,0,0.9,0,1.4c0,1.8,0,3.5-0.1,5.3c0,3.9-0.1,7.8-0.1,11.9c9.5,0,19,0,28.8,0c0-2.1-0.1-4.3-0.1-6.5
		c0-2.1,0-4.2-0.1-6.2c0-1.4,0-2.9-0.1-4.3c0-2.1,0-4.2-0.1-6.2c0-0.6,0-1.3,0-2c0-4.4,0-4.4,1.4-6.5c2.2-1.1,3.8-1.1,6.3-1.1
		c0.9,0,1.8,0,2.8,0c1.4,0,2.9,0,4.3,0c1.4,0,2.8,0,4.2,0c0.8,0,1.7,0,2.5,0c2.3-0.2,2.3-0.2,3.7-2.2c0.4-0.6,0.8-1.3,1.2-1.9
		c4.2-2.9,7.6-3.6,12.7-3.1c3.5,1,6.1,2.6,8,5.5c1.9,3.5,2.3,6.4,1.2,10.2c-1.4,3.5-3.1,5.6-6.8,7.3c-3.6,1.3-6.6,1.6-10.2,0.4
		c-4.7-1.9-4.7-1.9-6-4.4c-1.9-2-2.1-2.1-4.9-2.3c-1.2,0-2.4,0-3.7,0c-0.6,0-1.3,0-1.9,0c-1.5,0-3.1,0-4.6,0c0,0.4,0,0.7,0,1.1
		c0.1,3.8,0.1,7.6,0.2,11.4c0,1.4,0,2.8,0.1,4.2c0,2,0.1,4.1,0.1,6.1c0,0.9,0,0.9,0.1,1.9c0,2.7-0.1,4.4-1.6,6.8
		c-3.3,1.8-6.4,1.6-10.2,1.5c-0.8,0-1.6,0-2.4,0c-2.5,0-5,0-7.4,0c-2.5,0-5,0-7.5,0c-1.5,0-3.1,0-4.6,0c-0.7,0-1.4,0-2.1,0
		c-0.6,0-1.2,0-1.9,0c-1.9,0.3-2.3,0.8-3.6,2.1c-0.9,0.2-1.8,0.4-2.7,0.6c0,3.7,0,7.3,0,11.1c1.1,0.2,2.2,0.4,3.3,0.6
		c1.3,1.2,1.3,1.2,1.4,3.5c0,0.7-0.1,1.4-0.1,2.1c6.7,0,13.4,0,20.2,0c3.1,0,6.2,0,9.4,0c3,0,6,0,9,0c1.1,0,2.3,0,3.4,0
		c6.2,0.3,6.2,0.3,11.8-1.7c1.2-1.3,1.2-1.3,2.1-2.7c1.4-1.8,3.1-2.3,5.4-2.8c3.6-0.5,6.5-0.1,9.8,1.4c3.8,2.9,5.7,5.1,6.5,9.7
		c0.1,3.5-1.2,6.5-3.5,9.2c-3.1,2.8-5.5,3.6-9.7,3.8c-4-0.1-6.5-1-9.4-3.4c-2.7-2.6-2.7-2.6-2.7-4.3c-17.2,0-34.4,0-52.2,0
		c0,6.9,0,13.8,0,20.9c17.2,0,34.4,0,52.2,0c0.4-1,0.9-2,1.3-3.1c4.2-3.6,7-4.6,12.7-4.5c3.9,0.4,6.2,2.3,9,4.7
		c2,3.2,2.8,6.8,2.1,10.4c-1.2,3.5-3.7,6.3-7.2,8.1c-3.6,1.3-6.9,1.4-10.6,0.5c-2.5-1.2-3.8-2.2-5.5-4.4c-1.5-1.7-1.8-1.8-4.3-2.3
		c-0.9,0-1.9,0-2.8,0c-0.5,0-1,0-1.5,0c-1.7,0-3.4,0-5,0c-1.2,0-2.3,0-3.5,0c-3.1,0-6.1,0-9.2,0c-3.1,0-6.3,0-9.4,0
		c-6.1,0-12.3,0-18.4,0c0,6.7,0,13.4,0,20.3c2.5,0,5-0.1,7.6-0.1c2.4,0,4.9,0,7.3-0.1c1.7,0,3.4,0,5.1-0.1c2.4,0,4.9-0.1,7.3-0.1
		c0.8,0,1.5,0,2.3,0c3.1,0,5.2,0,7.9,1.5c1.8,2.9,1.6,5.4,1.5,8.7c0,0.7,0,1.3,0,2c0,2.1-0.1,4.2-0.1,6.2c0,1.4,0,2.8,0,4.2
		c0,3.5-0.1,6.9-0.2,10.4c2.2,0,4.3,0,6.5-0.1c0.6,0,1.2,0,1.9,0c1.8,0,3.3-0.1,5-0.5c1.7-1.7,1.7-1.7,2.7-3.7
		c3.8-2.5,7.5-3.7,12-3.1c3.7,0.9,6.1,2.2,8.4,5.1c2,3.1,2.8,5.7,2,9.3c-1.3,4.1-3.1,6.8-7.2,9c-4.2,1.1-8.1,1.4-12.2-0.3
		c-2.7-1.4-4.4-3.2-5.8-5.7c-0.6,0-1.2,0-1.9,0c-2.3,0-4.6-0.1-6.9-0.1c-1,0-2,0-3,0c-1.4,0-2.8,0-4.3-0.1c-0.9,0-1.7,0-2.6,0
		c-2.2-0.3-2.2-0.3-3.8-1.2c-1.7-2.7-1.4-5.4-1.3-8.5c0-0.7,0-1.3,0-2c0-2.1,0-4.3,0.1-6.4c0-1.4,0-2.9,0-4.3
		c0-3.5,0.1-7.1,0.1-10.6c-9.5,0-19,0-28.8,0c0.1,7.8,0.1,7.8,0.2,15.6c0,1,0,2,0,2.9c0,0.8,0,0.8,0,1.5c0,3.6,0,3.6-1.1,5
		c-2,1.4-4.6,1-7.1,1c-0.5,0-1,0-1.5,0c-1.9,0-3.8,0-5.7-0.1c-4.3,0-8.5-0.1-12.9-0.1c0,8.7,0,17.5,0,26.5c2.3,0,4.7-0.1,7.1-0.1
		c2.3,0,4.5,0,6.8,0c1.6,0,3.1,0,4.7-0.1c2.3,0,4.5,0,6.8-0.1c0.7,0,1.4,0,2.1,0c4.8,0,4.8,0,7.1,1.3c1.2,2,1.2,3.5,1.2,5.8
		c0,0.9,0,1.7,0,2.6c0,1.3,0,2.7,0,4c0,1.3,0,2.6,0,3.9c0,0.8,0,1.5,0,2.3c0.3,2.2,0.3,2.2,2.4,3.4c0.7,0.4,1.4,0.7,2.1,1.1
		c3.2,3.8,3.9,7,3.3,11.7c-1.3,3.9-3.6,6-7.3,8.1c-4,1.4-7.5,1.3-11.5-0.1c-3.6-1.6-5.5-3.7-6.9-7.2c-1.2-3.9-0.6-7.1,1.6-10.7
		c1.7-1.8,3.2-3,5.4-4.3c0.3-1.3,0.3-1.3,0.3-2.8c0-0.6,0-1.1,0.1-1.7c0-0.6,0-1.2,0-1.7c0-0.6,0-1.2,0.1-1.8
		c0.1-1.4,0.1-2.9,0.1-4.3c-0.4,0-0.8,0-1.2,0c-4.1,0.1-8.2,0.1-12.3,0.1c-1.5,0-3.1,0-4.6,0.1c-2.2,0-4.4,0.1-6.6,0.1
		c-1,0-1,0-2.1,0c-2.9,0-4.8-0.1-7.4-1.4c-1.9-3.1-1.6-5.9-1.6-9.4c0-0.7,0-1.4,0-2.2c0-2.3,0.1-4.6,0.1-6.9c0-1.6,0-3.1,0-4.7
		c0-3.8,0.1-7.6,0.2-11.5c-7.3,0-14.6,0-22.1,0c0,6.2,0,12.4,0,18.6c0,2.9,0,5.7,0,8.6c0,2.8,0,5.6,0,8.3c0,1.1,0,2.1,0,3.2
		c-0.3,5.7-0.3,5.7,1.9,10.9c1.4,1.1,1.4,1.1,2.9,2c2,1.3,2.5,2.8,3.1,4.9c0.5,3.4,0.1,6-1.6,9c-3.2,3.5-5.6,5.2-10.5,5.9
		c-3.8,0.1-7-1.1-10-3.2c-3-2.8-3.9-5-4.1-9c0.1-3.6,1.1-6,3.7-8.7c2.9-2.5,2.9-2.5,4.7-2.5c0-15.9,0-31.7,0-48c-7.5,0-15,0-22.7,0
		c0,15.9,0,31.7,0,48c1.1,0.4,2.2,0.8,3.3,1.2c3.9,3.9,5,6.4,4.9,11.7c-0.5,3.7-2.5,5.9-5.4,8.3c-3.7,2.2-8,1.9-12.3,1.6
		c-3.9-1.7-6.6-4.5-8.3-8.2c-0.7-3.6-0.5-6.5,1.4-9.8c1.5-1.7,1.5-1.7,3.6-3c1.8-1.4,1.9-1.7,2.5-3.9c0-0.9,0-1.7,0-2.6
		c0-0.5,0-0.9,0-1.4c0-1.5,0-3.1,0-4.6c0-1.1,0-2.1,0-3.2c0-2.8,0-5.6,0-8.5c0-2.9,0-5.8,0-8.6c0-5.6,0-11.3,0-16.9
		c-7.3,0-14.6,0-22.1,0c0.1,3.5,0.1,3.5,0.1,7c0,2.2,0,4.5,0.1,6.7c0,1.6,0,3.1,0.1,4.7c0,2.2,0.1,4.5,0.1,6.7c0,0.7,0,1.4,0.1,2.1
		c0,2.9,0,4.8-1.6,7.3c-3.1,1.6-5.9,1.5-9.5,1.4c-0.7,0-1.4,0-2.1,0c-2.3,0-4.5-0.1-6.8-0.1c-1.5,0-3.1,0-4.6,0
		c-3.8,0-7.5-0.1-11.2-0.2c0,2,0,4,0.1,6c0,0.6,0,1.1,0,1.7c0.1,1.6,0.1,3,0.6,4.6c1.9,1.6,1.9,1.6,4,2.5c2.4,2.8,3.6,6.1,3.6,9.7
		c-0.6,3.8-2.6,7.2-5.9,9.5c-3.7,1.8-7.7,1.7-11.7,1.2c-3.8-1.3-6.1-3.5-8-6.8c-1.3-3.6-1.3-7.3,0.5-10.7c1.5-2.5,3.5-4,6.2-5.3
		c0-0.6,0-1.1,0-1.7c0-2.1,0.1-4.2,0.1-6.3c0-0.9,0-1.8,0-2.7c0-1.3,0-2.6,0.1-3.9c0-0.8,0-1.6,0-2.4c0.4-2,0.4-2,1.3-3.5
		c2.9-1.6,5.9-1.3,9.2-1.2c0.7,0,1.4,0,2.2,0c2.3,0,4.6,0,6.9,0.1c1.6,0,3.1,0,4.7,0c3.8,0,7.7,0.1,11.5,0.1c0-8.7,0-17.5,0-26.5
		c-8.5,0.1-8.5,0.1-17,0.2c-1.1,0-2.1,0-3.2,0c-0.6,0-1.1,0-1.7,0c-3.9,0-3.9,0-5.4-1c-1.5-1.9-1.1-4.2-1-6.5c0-0.5,0-0.9,0-1.4
		c0-1.8,0-3.5,0.1-5.3c0-3.9,0.1-7.8,0.1-11.9c-9.5,0-19,0-28.8,0c0,2.1,0.1,4.2,0.1,6.4c0,2,0,4.1,0.1,6.1c0,1.4,0,2.8,0.1,4.2
		c0,2,0,4.1,0.1,6.1c0,0.9,0,0.9,0,1.9c0,2.6-0.1,4.4-1.4,6.8c-2.2,1.5-3.6,1.5-6.3,1.4c-0.9,0-1.8,0-2.8,0c-1.4,0-2.9,0-4.3-0.1
		c-1.4,0-2.8,0-4.2,0c-0.8,0-1.7,0-2.5,0c-2.3,0.2-2.3,0.2-3.7,2.2c-0.4,0.6-0.8,1.3-1.2,1.9c-4.2,2.9-7.6,3.6-12.7,3.1
		c-4.2-1.2-6.5-3.3-8.8-6.7c-1.5-3.7-1.4-6.9,0.1-10.5c1.8-3.4,4-5,7.8-6.4c4.2-1.1,7.7-0.5,11.6,1.4c1.9,1.6,3.3,3,4.7,4.9
		c1.4,0.3,1.4,0.3,3.1,0.3c0.6,0,1.2,0,1.8,0.1c0.6,0,1.3,0,1.9,0c0.6,0,1.3,0,1.9,0.1c1.6,0.1,3.1,0.1,4.7,0.1c0-0.6,0-0.6,0-1.1
		c-0.1-3.9-0.1-7.8-0.2-11.6c0-1.4,0-2.9-0.1-4.3c0-2.1-0.1-4.2-0.1-6.2c0-0.6,0-1.3-0.1-2c0-4.4,0-4.4,1.6-6.5
		c3.4-1.3,6.6-1.1,10.2-1.1c0.8,0,1.6,0,2.4,0c2.5,0,5,0,7.5,0.1c1.7,0,3.4,0,5.1,0c4.1,0,8.3,0.1,12.4,0.1c0-6.7,0-13.4,0-20.3
		c-6.7,0-13.4,0-20.2,0c-3.1,0-6.2,0-9.4,0c-3,0-6,0-9,0c-1.1,0-2.3,0-3.4,0c-6.2-0.3-6.2-0.3-11.8,1.7c-1.2,1.3-1.2,1.3-2.1,2.7
		c-1.4,1.8-3.1,2.3-5.4,2.8c-3.6,0.5-6.5,0.1-9.8-1.4c-3.8-2.9-5.7-5.1-6.5-9.7c-0.1-3.5,1.2-6.5,3.5-9.2c3.1-2.8,5.5-3.6,9.7-3.8
		c3.9,0.1,6.7,0.9,9.4,3.4c0.4,0.6,0.7,1.2,1.1,1.9c1.4,2,1.4,2,3.9,2.3c0.9,0,1.9,0,2.8,0c0.5,0,1,0,1.5,0c1.7,0,3.4,0,5,0
		c1.2,0,2.3,0,3.5,0c3.1,0,6.1,0,9.2,0c3.7,0,7.4,0,11,0c5.6,0,11.2,0,16.8,0c0-6.9,0-13.8,0-20.9c-9.2,0-9.2,0-18.4,0
		c-3.8,0-7.5,0-11.3,0c-3,0-6.1,0-9.1,0c-1.2,0-2.3,0-3.5,0c-1.6,0-3.2,0-4.9,0c-0.5,0-1,0-1.4,0c-1.5,0-1.5,0-3.6,0.5
		c-1.6,1.7-1.6,1.7-2.7,3.7c-2.7,2.5-5.6,3.3-9.4,3.5c-4.8-0.2-7.5-1.9-11-4.8c-2-3.2-2.8-6.8-2.1-10.4c1.2-3.5,3.7-6.3,7.2-8.1
		c3.6-1.3,6.9-1.4,10.6-0.5c2.5,1.2,3.8,2.2,5.5,4.4c1.5,1.7,1.8,1.8,4.3,2.3c0.9,0,1.9,0,2.8,0c0.5,0,1,0,1.5,0c1.7,0,3.4,0,5,0
		c1.2,0,2.3,0,3.5,0c3.1,0,6.1,0,9.2,0c3.1,0,6.3,0,9.4,0c6.1,0,12.3,0,18.4,0c0-6.7,0-13.4,0-20.3c-3.8,0.1-3.8,0.1-7.6,0.1
		c-2.4,0-4.9,0-7.3,0.1c-1.7,0-3.4,0-5.1,0.1c-2.4,0-4.9,0.1-7.3,0.1c-0.8,0-1.5,0-2.3,0c-3.1,0-5.2,0-7.9-1.5
		c-1.8-2.9-1.6-5.4-1.5-8.7c0-0.7,0-1.3,0-2c0-2.1,0.1-4.2,0.1-6.2c0-1.4,0-2.8,0-4.2c0-3.5,0.1-6.9,0.2-10.4c-2.2,0-4.3,0-6.5,0.1
		c-0.6,0-1.2,0-1.9,0c-1.8,0-3.3,0.1-5,0.5c-1.7,1.7-1.7,1.7-2.7,3.7c-3.1,2.2-6.6,3.4-10.5,3.3c-3.6-0.5-6.9-2-9.4-4.4
		c-2.1-2.9-3.2-5.8-2.7-9.3c0.9-3.8,2.5-6.5,5.9-8.8c3.5-1.9,6.7-2,10.7-1.7c3.6,1,5.9,2.6,8,5.5c0.2,0.4,0.4,0.8,0.7,1.2
		c0.6,0,1.2,0,1.9,0c2.3,0,4.6,0,6.9,0.1c1,0,2,0,3,0c1.4,0,2.8,0,4.3,0.1c0.9,0,1.7,0,2.6,0c2.2,0.4,2.2,0.4,3.8,1.6
		c1.6,2.9,1.4,5.5,1.3,8.7c0,0.7,0,1.3,0,2c0,2.1,0,4.2-0.1,6.2c0,1.4,0,2.8,0,4.2c0,3.5-0.1,6.9-0.1,10.4c9.5,0,19,0,28.8,0
		c-0.1-7.8-0.1-7.8-0.2-15.6c0-1,0-2,0-2.9c0-0.8,0-0.8,0-1.5c0-3.6,0-3.6,1.1-5c2-1.4,4.6-1,7.1-1c0.5,0,1,0,1.5,0
		c1.9,0,3.8,0,5.7,0.1c4.3,0,8.5,0.1,12.9,0.1c0-8.7,0-17.5,0-26.5c-3.4,0-3.4,0-6.9,0.1c-2.2,0-4.4,0-6.6,0c-1.5,0-3.1,0-4.6,0.1
		c-2.2,0-4.4,0-6.6,0.1c-0.7,0-1.4,0-2.1,0c-2.9,0-4.8-0.1-7.4-1.3c-1.7-2-1.6-3.3-1.6-5.8c0-0.9,0-1.7,0-2.6c0-1.3,0-2.7,0.1-4
		c0-1.3,0-2.6,0-3.9c0-1.2,0-1.2,0-2.3c-0.3-2.2-0.3-2.2-2.4-3.4c-0.7-0.4-1.4-0.7-2.1-1.1c-3.2-3.8-3.9-7-3.3-11.7
		c1.2-3.6,3.3-6,6.7-8C216.6,254.9,222.1,255.6,226.8,259z"/>
	<path class="st2" d="M229.1,335.8c47.7,0,95.4,0,144.5,0c0.2,8.7,0.4,17.5,0.7,26.5c1.8,1.9,1.8,1.9,4,2.5c0.1,1.9,0.2,3.8,0.2,5.7
		c0,0.8,0,0.8,0.1,1.6c0,1.5,0,2.9-0.3,4.3c-1.6,1.3-1.6,1.3-3.3,1.8c-1.2,1.1-0.8,2.6-0.8,4.1c0,1.1,0,1.1,0,2.3c0,0.8,0,1.7,0,2.5
		c0,0.9,0,1.8,0,2.7c0,2.4,0,4.8,0,7.3c0,2.3,0,4.5,0,6.8c0,6.6-0.1,13.3-0.1,19.9c-0.1,14.8-0.2,29.6-0.3,44.9
		c-47.7,0-95.4,0-144.5,0C229.1,424.9,229.1,381,229.1,335.8z"/>
	<path class="st3" d="M270.4,347c30.2,9.2,60.4,18.4,91.5,27.8c-9.9,27.8-19.7,55.6-29.9,84.3c-30.2-9.2-60.4-18.4-91.5-27.8
		c0.8-3,1.6-5.9,2.5-9c-1-1.2-2-2.3-3-3.5c0-2.2,0.8-4,2.1-5.9c2-0.7,2-0.7,3.8-0.8c2-1.8,2.6-4.6,3.5-7c0.2-0.6,0.5-1.1,0.7-1.7
		c0.6-1.6,1.1-3,1.2-4.6c-1.4-1.9-1.4-1.9-3-3.5c0.2-2.1,0.2-2.1,1-4.3c0.3-0.7,0.5-1.4,0.8-2.2c1.1-1.7,1.1-1.7,3.1-2.3
		c0.6-0.1,1.2-0.1,1.8-0.2C265.7,376.5,265.5,360.2,270.4,347z"/>
	<path class="st1" d="M251,349c0.4,0,0.9,0,1.3,0c1.5,0,3,0,4.5,0c1.1,0,2.1,0,3.2,0c2.9,0,5.8,0,8.7,0c3,0,6.1,0,9.1,0
		c5.1,0,10.2,0,15.3,0c5.9,0,11.8,0,17.7,0c5.1,0,10.1,0,15.2,0c3,0,6,0,9.1,0c2.8,0,5.7,0,8.5,0c1,0,2.1,0,3.1,0c1.4,0,2.9,0,4.3,0
		c1.2,0,1.2,0,2.4,0c2.6,0.4,3.7,1,5.5,2.8c0.4,1.9,0.4,1.9,0.4,4.1c0,0.4,0,0.8,0,1.2c0,1.4,0,2.7,0,4.1c0,1,0,2,0,3
		c0,2.7,0,5.3,0,8c0,2.8,0,5.6,0,8.4c0,4.7,0,9.4,0,14.1c0,5.4,0,10.9,0,16.3c0,4.7,0,9.3,0,14c0,2.8,0,5.6,0,8.4c0,2.6,0,5.2,0,7.9
		c0,1,0,1.9,0,2.9c0,1.3,0,2.6,0,3.9c0,0.7,0,1.5,0,2.2c-0.6,2.6-1.5,3.5-3.8,5c-2.1,0.4-2.1,0.4-4.5,0.4c-0.4,0-0.9,0-1.4,0
		c-1.5,0-3,0-4.5,0c-1.1,0-2.1,0-3.2,0c-2.9,0-5.8,0-8.7,0c-3,0-6.1,0-9.1,0c-5.1,0-10.2,0-15.3,0c-5.9,0-11.8,0-17.7,0
		c-5.1,0-10.1,0-15.2,0c-3,0-6.1,0-9.1,0c-2.8,0-5.7,0-8.5,0c-1,0-2.1,0-3.1,0c-1.4,0-2.8,0-4.3,0c-0.8,0-1.6,0-2.4,0
		c-2-0.4-2-0.4-3.6-1.8c-1.2-1.9-1.4-2.9-1.4-5.1c0-0.6,0-1.3,0-2c0-0.7,0-1.3,0-2c0-0.7,0-1.4,0-2c0-5,0-5,1.2-6.4
		c1.3-0.9,2.1-1,3.7-1c0.5,0,0.9,0,1.4,0c1.3,0.2,1.3,0.2,3.3,2.1c0,3,0,6.1,0,9.2c31.8,0,63.6,0,96.3,0c0-29.3,0-58.5,0-88.7
		c-31.8,0-63.6,0-96.3,0c0,13.4,0,26.8,0,40.6c-2.7,3.1-2.7,3.1-4.7,3.5c-2-0.4-2-0.4-3.4-1.7c-1.5-2.2-1.6-3.9-1.6-6.4
		c0-0.5,0-0.9,0-1.4c0-1.5,0-3,0-4.5c0-1,0-2.1,0-3.1c0-2.2,0-4.3,0-6.5c0-2.8,0-5.6,0-8.4c0-2.1,0-4.3,0-6.4c0-1,0-2.1,0-3.1
		c0-1.4,0-2.9,0-4.3c0-0.4,0-0.8,0-1.3c0-1.9,0.2-3,1.4-4.6C247.1,349,248.3,349,251,349z"/>
	<path class="st4" d="M340.2,375.8c1.4,0.9,1.4,0.9,2.7,2.5c0.4,2.1,0.4,4.1,0.4,6.2c0,0.6,0,1.2,0,1.8c0,1.3,0,2.6,0,3.8
		c0,2,0,3.9,0,5.9c0,1.2,0,2.5,0,3.7c0,0.6,0,1.2,0,1.8c-0.1,4-0.1,4-1.6,6c-2,1.2-3.1,1.2-5.5,0.9c-1.4-0.9-1.4-0.9-2.7-2.5
		c-0.4-2.1-0.4-4.1-0.4-6.2c0-0.6,0-1.2,0-1.8c0-1.3,0-2.6,0-3.8c0-2,0-3.9,0-5.9c0-1.2,0-2.5,0-3.7c0-0.6,0-1.2,0-1.8
		c0.1-4,0.1-4,1.6-6C336.7,375.5,337.9,375.4,340.2,375.8z"/>
	<path class="st5" d="M251.2,410.9c1.4,1,1.9,1.5,2.3,3.2c0,1.7,0,3.4,0,5c0,0.6,0,1.2,0,1.8c0,2.7-0.1,4.3-1.6,6.7
		c-1.4,1.2-1.4,1.2-3.5,1.5c-2.6-0.4-3.2-0.8-4.7-2.8c-0.4-2.3-0.4-4.5-0.4-6.8c0-0.9,0-0.9,0-1.9c0-4.5,0-4.5,2-6.6
		C247.7,410.1,248.8,410.2,251.2,410.9z"/>
	<path class="st6" d="M215.8,533.5c3.7,0.3,3.7,0.3,4.7,1.2c0.2,1.8,0.2,1.8,0,3.7c-2,1.2-2,1.2-3.7,1.1c-1.6-0.5-1.6-0.5-3-1.7
		C214,535.7,214.2,534.9,215.8,533.5z"/>
	<path class="st7" d="M445.2,384.4c2.4,0.2,2.4,0.2,4.7,0.6c0.9,3.3,0.9,3.3-0.1,4.9c-1.3,0.7-1.3,0.7-3,0.5c-1.6-0.5-1.6-0.5-3-1.7
		c-0.2-1.5-0.2-1.5,0-3.1C444.3,385.2,444.7,384.8,445.2,384.4z"/>
	<path class="st6" d="M445.9,321.6c2.2,0.2,3.1,0.4,4.7,1.8c-0.4,3.4-0.4,3.4-1.3,4.3c-2,0.2-2,0.2-4,0c-1.3-1.8-1.3-1.8-1.2-3.4
		C444.5,322.8,444.5,322.8,445.9,321.6z"/>
	<path class="st6" d="M154.2,321.6c2.2,0.2,3.1,0.4,4.7,1.8c-0.4,3.4-0.4,3.4-1.3,4.3c-2,0.2-2,0.2-4,0c-1.3-1.8-1.3-1.8-1.2-3.4
		C152.9,322.8,152.9,322.8,154.2,321.6z"/>
	<path class="st7" d="M285,264.8c1.7,0.2,1.7,0.2,3,0.9c0.8,1.1,0.8,1.1,0.6,2.7c-0.5,1.5-0.5,1.5-1.9,2.7c-2.1-0.2-2.1-0.2-4-0.6
		c-0.4-2.1-0.4-2.1-0.7-4.3C283.3,264.9,283.3,264.9,285,264.8z"/>
	<path class="st6" d="M215.8,264.9c3.7,0.3,3.7,0.3,4.7,1.2c0.2,1.8,0.2,1.8,0,3.7c-2,1.2-2,1.2-3.7,1.1c-1.6-0.5-1.6-0.5-3-1.7
		C214,267.2,214.2,266.4,215.8,264.9z"/>
	<path class="st8" d="M316.1,533.5c3.7,0.3,3.7,0.3,4.7,1.2c-0.2,1.4-0.4,2.9-0.7,4.3c-3.6,0.8-3.6,0.8-5.3-0.1
		c-0.7-1.2-0.7-1.2-0.6-2.7C314.8,534.7,314.8,534.7,316.1,533.5z"/>
	<path class="st8" d="M285.7,533.6c1.6,0.5,1.6,0.5,3,1.7c-0.2,2-0.4,2.8-2,4.3c-2.1-0.2-2.1-0.2-4-0.6c-0.2-1.4-0.4-2.8-0.7-4.3
		C284,533.5,284,533.5,285.7,533.6z"/>
	<path class="st8" d="M154.2,414c2.2,0.2,3.1,0.4,4.7,1.8c-0.3,1.9-0.3,1.9-0.7,3.7c-1.5,0.2-3.1,0.4-4.7,0.6
		c-1.3-1.8-1.3-1.8-1.2-3.4C152.9,415.2,152.9,415.2,154.2,414z"/>
	<path class="st9" d="M153.6,384.4c1.6,0.2,3.1,0.4,4.7,0.6c0.9,3.3,0.9,3.3-0.1,4.9c-1.3,0.7-1.3,0.7-3,0.5c-1.6-0.5-1.6-0.5-3-1.7
		C152.6,385.3,152.6,385.3,153.6,384.4z"/>
	<path class="st10" d="M385.3,533.3c1.7,0.2,1.7,0.2,3,1.4c0.2,1.8,0.2,1.8,0,3.7c-1.3,1.2-1.3,1.2-3,1.4c-1.7-0.2-1.7-0.2-3-1.4
		c-0.2-1.8-0.2-1.8,0-3.7C383.7,533.5,383.7,533.5,385.3,533.3z"/>
	<path class="st10" d="M447.2,476.6c2,0.2,2,0.2,3.3,1.4c0.2,1.5,0.2,1.5,0,3.1c-1.3,1.2-1.3,1.2-3.3,1.4c-2-0.2-2-0.2-3.3-1.4
		c-0.2-1.5-0.2-1.5,0-3.1C445.2,476.8,445.2,476.8,447.2,476.6z"/>
	<path class="st10" d="M155.6,476.6c2,0.2,2,0.2,3.3,1.4c0.2,1.5,0.2,1.5,0,3.1c-1.3,1.2-1.3,1.2-3.3,1.4c-2-0.2-2-0.2-3.3-1.4
		c-0.2-1.5-0.2-1.5,0-3.1C153.6,476.8,153.6,476.8,155.6,476.6z"/>
	<path class="st11" d="M445.9,414c2.2,0.2,3.1,0.4,4.7,1.8c-0.3,1.9-0.3,1.9-0.7,3.7c-3.6,0.8-3.6,0.8-5.3-0.1
		c-0.7-1.2-0.7-1.2-0.6-2.7C444.5,415.2,444.5,415.2,445.9,414z"/>
	<path class="st10" d="M385.3,264.8c1.7,0.2,1.7,0.2,3,1.4c0.2,1.8,0.2,1.8,0,3.7c-1.3,1.2-1.3,1.2-3,1.4c-1.7-0.2-1.7-0.2-3-1.4
		c-0.2-1.8-0.2-1.8,0-3.7C383.7,264.9,383.7,264.9,385.3,264.8z"/>
	<path class="st10" d="M316.1,264.9c2.1,0.2,2.1,0.2,4,0.6c0.9,3.3,0.9,3.3-0.1,4.9c-1.3,0.7-1.3,0.7-3,0.5c-1.6-0.5-1.6-0.5-3-1.7
		C314.3,267.2,314.5,266.4,316.1,264.9z"/>
</g>
<g>
	<defs>
		<rect id="SVGID_7_" x="47.1" y="148.8" width="1161.6" height="507.6"/>
	</defs>
	<clipPath id="SVGID_1_">
		<use xlink:href="#SVGID_7_"  style="overflow:visible;"/>
	</clipPath>
	<g class="st12">
		<path class="st13" d="M387.2,625.5c-27.8,8.8-57.2,14-86.5,14c-7.3,0-14.7,0-22.7-0.7c-7.3-0.7-14.7-1.5-22.7-2.2
			c-7.3-1.5-14.7-2.2-22.7-4.4c-7.3-1.5-14.7-3.7-22-6.6c-7.3-2.2-14.7-5.2-22-8.1c-7.3-2.9-13.9-6.6-21.3-10.3
			c-13.9-7.4-26.4-16.9-38.8-27.3c-24.2-20.6-44.7-47.1-58.6-76.6C62.5,488.4,57.4,473,53,456.8c-3.7-16.2-5.9-33.2-6.6-49.4
			c-1.5-33.2,4.4-67,16.9-98c12.5-30.9,30.8-60.4,54.2-84c11.7-11.8,24.9-22.8,38.8-32.4c13.9-9.6,28.6-17.7,44.7-24.3
			c62.3-26.5,134.9-25.8,196.4,1.5c30.8,13.3,58.6,33.2,81.3,57.5c22.7,24.3,40.3,53,51.3,84c5.9,15.5,9.5,30.9,11.7,47.2
			c1.5,8.1,2.2,16.2,2.2,24.3c0,3.7,0,8.1,0,11.8c0,2.2,0,3.7,0,5.9v2.9v2.9v2.9c0,0,0,0.7,0,0c0,0,0,0,0,0.7v0.7v1.5
			c0,2.2,0,4.4-0.7,6.6c0,4.4-0.7,8.1-1.5,12.5c-1.5,8.1-2.9,16.2-5.1,23.6c-2.2,8.1-5.1,15.5-8.8,22.8c-3.7,7.4-7.3,14.7-11.7,21.4
			c-4.4,6.6-9.5,13.3-14.7,19.2c-5.1,5.9-11.7,11.1-17.6,16.2c-6.6,5.2-13.2,9.6-19.8,13.3c-6.6,3.7-13.9,6.6-21.3,9.6
			c-14.7,5.2-29.3,8.1-44,9.6c-14.7,1.5-29.3,0.7-44-0.7c13.9-2.2,28.6-5.9,41.8-10.3c6.6-2.2,13.2-4.4,19.8-7.4
			c6.6-2.9,12.5-5.9,18.3-9.6c11.7-6.6,22-15.5,30.8-25c4.4-5.2,8.1-10.3,11.7-15.5c3.7-5.2,6.6-11.1,8.8-16.9
			c10.3-22.8,13.9-49.4,11-73.7v-2.9V403c0-1.5,0-2.9-0.7-5.2c-0.7-2.9-0.7-6.6-1.5-9.6c-1.5-6.6-2.9-12.5-4.4-18.4
			c-3.7-12.5-8.1-24.3-13.2-35.4c-11-22.8-26.4-42.7-44-58.9c-18.3-16.2-38.8-29.5-61.6-37.6c-22.7-8.1-46.2-12.5-70.4-11.8
			c-24.2,0.7-47.6,5.9-68.9,14.7c-11,4.4-21.3,10.3-31.5,16.9c-10.3,6.6-19.1,14-27.8,22.1c-16.9,16.9-31.5,36.1-41,58.2
			c-10.3,22.1-16.1,45.7-17.6,70.7c-1.5,24.3,2.2,48.6,11,72.2c8.8,23.6,22,45.7,38.8,64.8c8.8,9.6,18.3,18.4,28.6,26.5
			c10.3,8.1,21.3,15.5,33,21.4c11.7,5.9,24.2,11.8,37.4,16.2c13.2,4.4,26.4,8.1,40.3,10.3s27.8,4.4,41.8,5.2
			C357.8,625.5,372.5,625.5,387.2,625.5z"/>
		
			<linearGradient id="SVGID_2_" gradientUnits="userSpaceOnUse" x1="168.0042" y1="930.9718" x2="421.3271" y2="511.5655" gradientTransform="matrix(1 0 0 -1 0 1120.5969)">
			<stop  offset="0" style="stop-color:#FFFFFF"/>
			<stop  offset="8.895650e-02" style="stop-color:#F9F9F9;stop-opacity:0.9555"/>
			<stop  offset="0.2165" style="stop-color:#E3E4E2;stop-opacity:0.8918"/>
			<stop  offset="0.3672" style="stop-color:#C7C6C6;stop-opacity:0.8164"/>
			<stop  offset="0.5358" style="stop-color:#9B9B9A;stop-opacity:0.7321"/>
			<stop  offset="0.7192" style="stop-color:#666664;stop-opacity:0.6404"/>
			<stop  offset="0.9121" style="stop-color:#202020;stop-opacity:0.544"/>
			<stop  offset="1" style="stop-color:#020203;stop-opacity:0.5"/>
		</linearGradient>
		<path class="st14" d="M387.2,629.7c-27.8,8.8-57.2,14-86.5,14c-7.3,0-14.7,0-22.7-0.7c-7.3-0.7-14.7-1.5-22.7-2.2
			c-7.3-1.5-14.7-2.2-22.7-4.4c-7.3-1.5-14.7-3.7-22-6.6c-7.3-2.2-14.7-5.2-22-8.1c-7.3-2.9-13.9-6.6-21.3-10.3
			c-13.9-7.4-26.4-16.9-38.8-27.3c-24.2-20.6-44.7-47.1-58.6-76.6C62.5,492.6,57.4,477.2,53,461c-3.7-16.2-5.9-33.2-6.6-49.4
			c-1.5-33.2,4.4-67,16.9-98c12.5-30.9,30.8-60.4,54.2-84c11.7-11.8,24.9-22.8,38.8-32.4c13.9-9.6,28.6-17.7,44.7-24.3
			c62.3-26.5,134.9-25.8,196.4,1.5c30.8,13.3,58.6,33.2,81.3,57.5c22.7,24.3,40.3,53,51.3,84c5.9,15.5,9.5,30.9,11.7,47.2
			c1.5,8.1,2.2,16.2,2.2,24.3c0,3.7,0,8.1,0,11.8c0,2.2,0,3.7,0,5.9v2.9v2.9v2.9c0,0,0,0.7,0,0c0,0,0,0,0,0.7v0.7v1.5
			c0,2.2,0,4.4-0.7,6.6c0,4.4-0.7,8.1-1.5,12.5c-1.5,8.1-2.9,16.2-5.1,23.6c-2.2,8.1-5.1,15.5-8.8,22.8c-3.7,7.4-7.3,14.7-11.7,21.4
			c-4.4,6.6-9.5,13.3-14.7,19.2c-5.1,5.9-11.7,11.1-17.6,16.2c-6.6,5.2-13.2,9.6-19.8,13.3c-6.6,3.7-13.9,6.6-21.3,9.6
			c-14.7,5.2-29.3,8.1-44,9.6c-14.7,1.5-29.3,0.7-44-0.7c13.9-2.2,28.6-5.9,41.8-10.3c6.6-2.2,13.2-4.4,19.8-7.4
			c6.6-2.9,12.5-5.9,18.3-9.6c11.7-6.6,22-15.5,30.8-25c4.4-5.2,8.1-10.3,11.7-15.5c3.7-5.2,6.6-11.1,8.8-16.9
			c10.3-22.8,13.9-49.4,11-73.7v-2.9v-2.2c0-1.5,0-2.9-0.7-5.2c-0.7-2.9-0.7-6.6-1.5-9.6c-1.5-6.6-2.9-12.5-4.4-18.4
			c-3.7-12.5-8.1-24.3-13.2-35.4c-11-22.8-26.4-42.7-44-58.9c-18.3-16.2-38.8-29.5-61.6-37.6c-22.7-8.1-46.2-12.5-70.4-11.8
			c-24.2,0.7-47.6,5.9-68.9,14.7c-11,4.4-21.3,10.3-31.5,16.9c-10.3,6.6-19.1,14-27.8,22.1c-16.9,16.9-31.5,36.1-41,58.2
			c-10.3,22.1-16.1,45.7-17.6,70.7c-1.5,24.3,2.2,48.6,11,72.2c8.8,23.6,22,45.7,38.8,64.8c8.8,9.6,18.3,18.4,28.6,26.5
			c10.3,8.1,21.3,15.5,33,21.4c11.7,5.9,24.2,11.8,37.4,16.2c13.2,4.4,26.4,8.1,40.3,10.3s27.8,4.4,41.8,5.2
			C357.8,629.7,372.5,629.7,387.2,629.7z"/>
		
			<linearGradient id="SVGID_3_" gradientUnits="userSpaceOnUse" x1="161.7455" y1="498.4475" x2="443.209" y2="741.8475" gradientTransform="matrix(1 0 0 -1 0 1120.5969)">
			<stop  offset="0" style="stop-color:#FFFFFF"/>
			<stop  offset="9.212490e-02" style="stop-color:#D5D5D4"/>
			<stop  offset="0.2283" style="stop-color:#9D9D9C"/>
			<stop  offset="0.3653" style="stop-color:#6F6F6E"/>
			<stop  offset="0.5003" style="stop-color:#474647"/>
			<stop  offset="0.6326" style="stop-color:#272727"/>
			<stop  offset="0.7616" style="stop-color:#121212"/>
			<stop  offset="0.8859" style="stop-color:#030505"/>
			<stop  offset="1" style="stop-color:#020203"/>
		</linearGradient>
		<path class="st15" d="M180.5,632.1c11-8.8,125.3-106.1,140.7-123c3.7,5.2,7.3,10.3,11,15.5c0.7,0.7,1.5,2.2,2.2,2.9
			c3.7-2.9,5.1-1.5,8.8-4.4c8.8,2.9,29.3,5.9,39.6,5.9c48.4,0,79.9-44.9,79.9-94.3s-39.6-89.1-88.7-89.1
			c-48.4,0-88.7,39.8-88.7,89.1c0,18.4,5.9,36.1,15.4,50.1c0,0,0,0.7-0.7,0.7L161.4,621.8 M374.7,471.5c-19.8,0-36.6-16.2-36.6-36.8
			c0-20.6,16.1-36.8,36.6-36.8c19.8,0,36.6,16.2,36.6,36.8C411.3,455.3,394.5,471.5,374.7,471.5z"/>
		<path class="st16" d="M357.8,520.1c11.7,4.4,24.9,5.9,38.8,4.4c43.2-4.4,77-40.5,79.9-84c2.9-53.8-41-97.2-93.8-95
			c-45.4,2.2-82.8,40.5-84.3,86.2c-0.7,19.9,5.1,39,15.4,53.8L190.7,609.3c-11,11.1-11,28,0,39c11,11.1,27.8,11.1,38.8,0
			L357.8,520.1z M387.9,472.2c-20.5,0-36.6-16.9-36.6-36.8c0-20.6,16.9-36.8,36.6-36.8c20.5,0,36.6,16.9,36.6,36.8
			C424.5,456,407.7,472.2,387.9,472.2z"/>
		
			<linearGradient id="SVGID_4_" gradientUnits="userSpaceOnUse" x1="392.351" y1="648.0325" x2="438.5364" y2="727.6111" gradientTransform="matrix(1 0 0 -1 0 1120.5969)">
			<stop  offset="0" style="stop-color:#434342"/>
			<stop  offset="0.119" style="stop-color:#434342"/>
			<stop  offset="0.2521" style="stop-color:#434342"/>
			<stop  offset="0.3919" style="stop-color:#434342"/>
			<stop  offset="0.5364" style="stop-color:#434342"/>
			<stop  offset="0.6845" style="stop-color:#434342"/>
			<stop  offset="0.8357" style="stop-color:#434342"/>
			<stop  offset="0.9868" style="stop-color:#272425"/>
			<stop  offset="1" style="stop-color:#231E21"/>
		</linearGradient>
		<path class="st17" d="M443.6,500.2c2.2-3.7,3.7,2.2,6.6-0.7c0.7-0.7,4.4-5.9,5.9-5.9c0.7-1.5,3.7-3.7,4.4-5.9
			c1.5-4.4,2.9-5.9,5.9-9.6c0-1.5,1.5-6.6,2.9-8.1c2.9-32.4-6.6-76.6-52-86.2c-62.3-13.3-72.6,44.2-72.6,44.2s21.3-46.4,59.4-15.5
			c24.9,20.6-7.3,53.8-7.3,53.8L443.6,500.2z"/>
		
			<linearGradient id="SVGID_5_" gradientUnits="userSpaceOnUse" x1="289.8803" y1="555.2944" x2="330.4659" y2="625.2238" gradientTransform="matrix(1 0 0 -1 0 1120.5969)">
			<stop  offset="0" style="stop-color:#434342"/>
			<stop  offset="0.113" style="stop-color:#434342"/>
			<stop  offset="0.2462" style="stop-color:#434342"/>
			<stop  offset="0.3894" style="stop-color:#434342"/>
			<stop  offset="0.5399" style="stop-color:#434342"/>
			<stop  offset="0.696" style="stop-color:#434342"/>
			<stop  offset="0.8543" style="stop-color:#5A5758"/>
			<stop  offset="1" style="stop-color:#231E21"/>
		</linearGradient>
		<path class="st18" d="M313.9,485.5c0,0,11.7,22.8,44.7,33.9c0,0-24.9,26.5-52.8,53l-40.3-37.6
			C264.8,535.6,291.2,511.3,313.9,485.5z"/>
		<path class="st0" d="M385,478.1c23.1,0,41.8-18.8,41.8-42c0-23.2-18.7-42-41.8-42c-23.1,0-41.8,18.8-41.8,42
			C343.2,459.3,361.9,478.1,385,478.1z"/>
		<path class="st19" d="M544,382.4c-0.7-8.1-0.7-16.2-2.2-24.3c-2.2-16.2-6.6-31.7-11.7-47.1c-11-30.9-28.6-59.7-51.3-84
			c-7.3-8.1-15.4-15.5-24.2-22.8c-138.5-110.5-254.3,25.8-301.9,95.8c5.9-7.4,12.5-14.7,19.1-21.4c8.8-8.1,17.6-15.5,27.8-22.1
			c9.5-6.6,20.5-12.5,31.5-16.9c22-9.6,45.4-14,68.9-14.7c24.2-0.7,47.6,3.7,70.4,11.8c22.7,8.1,43.2,21.4,61.6,37.6
			c18.3,16.2,33,36.8,44,58.9c5.9,11.1,10.3,22.8,13.2,35.4c1.5,5.9,2.9,12.5,4.4,18.4c0.7,2.9,1.5,6.6,1.5,9.6
			c0,1.5,0.7,2.9,0.7,5.2v2.2v2.9c2.9,24.3-0.7,50.8-11,73.7c-2.9,5.9-5.9,11.1-8.8,16.9c-3.7,5.2-7.3,10.3-11.7,15.5
			c-8.8,9.6-19.1,17.7-30.8,25c-5.9,3.7-11.7,6.6-18.3,9.6c-6.6,2.9-13.2,5.2-19.8,7.4c-13.2,4.4-27.1,7.4-41.8,10.3
			c14.7,1.5,29.3,1.5,44,0.7c14.7-1.5,29.3-4.4,44-9.6c7.3-2.2,14.7-5.9,21.3-9.6c6.6-3.7,13.2-8.1,19.8-13.3
			c6.6-5.2,12.5-10.3,17.6-16.2c5.1-5.9,10.3-12.5,14.7-19.2c4.4-6.6,8.1-14,11.7-21.4c3.7-7.4,5.9-14.7,8.8-22.8
			c2.2-8.1,4.4-15.5,5.1-23.6c0.7-4.4,1.5-8.1,1.5-12.5c0-2.2,0-4.4,0.7-6.6v-1.5v-0.7v-0.7c0,0,0,0.7,0,0v-2.9v-2.9v-2.9
			c0-2.2,0-3.7,0-5.9C544.7,390.5,544.7,386,544,382.4z"/>
		<path class="st20" d="M544,382.4c-0.7-8.1-0.7-16.2-2.2-24.3c-2.2-16.2-6.6-31.7-11.7-47.1c-11-30.9-28.6-59.7-51.3-84
			c-7.3-8.1-15.4-16.2-24.2-22.8c-143.6-108.3-254.3,25.8-301.2,96.5c5.9-7.4,12.5-14.7,19.1-21.4c8.8-8.1,17.6-15.5,27.8-22.1
			c9.5-6.6,20.5-12.5,31.5-16.9c22-9.6,45.4-14,68.9-14.7c24.2-0.7,47.6,3.7,70.4,11.8c22.7,8.1,43.2,21.4,61.6,37.6
			c18.3,16.2,33,36.8,44,58.9c5.9,11.1,10.3,22.8,13.2,35.4c1.5,5.9,2.9,12.5,4.4,18.4c0.7,2.9,1.5,6.6,1.5,9.6
			c0,1.5,0.7,2.9,0.7,5.2v2.2v2.9c2.9,24.3-0.7,50.8-11,73.7c-2.9,5.9-5.9,11.1-8.8,16.9c-3.7,5.2-7.3,10.3-11.7,15.5
			c-8.8,9.6-19.1,17.7-30.8,25c-5.9,3.7-11.7,6.6-18.3,9.6c-6.6,2.9-13.2,5.2-19.8,7.4c-13.2,4.4-27.1,7.4-41.8,10.3
			c14.7,1.5,29.3,1.5,44,0.7c14.7-1.5,29.3-4.4,44-9.6c7.3-2.2,14.7-5.9,21.3-9.6c6.6-3.7,13.2-8.1,19.8-13.3
			c6.6-5.2,12.5-10.3,17.6-16.2c5.1-5.9,10.3-12.5,14.7-19.2c4.4-6.6,8.1-14,11.7-21.4s5.9-14.7,8.8-22.8c2.2-8.1,4.4-15.5,5.1-23.6
			c0.7-4.4,1.5-8.1,1.5-12.5c0-2.2,0-4.4,0.7-6.6v-1.5v-0.7v-0.7c0,0,0,0.7,0,0v-2.9V403V400c0-2.2,0-3.7,0-5.9
			C544.7,390.5,544.7,386,544,382.4z"/>
	</g>
</g>
</svg>
