<svg width="1172" height="161" viewBox="0 0 1172 161" fill="none" xmlns="http://www.w3.org/2000/svg">
<g clip-path="url(#clip0_206_245)">
<path d="M51.1153 65.4405C47.3113 66.6481 43.3071 67.3525 39.3029 67.3525C38.3018 67.3525 37.3008 67.3525 36.1996 67.2519C35.1986 67.1512 34.1975 67.0506 33.0964 66.95C32.0953 66.7487 31.0943 66.6481 29.9931 66.3462C28.992 66.1449 27.991 65.843 26.9899 65.4405C25.9889 65.1386 24.9878 64.7361 23.9868 64.3336C22.9857 63.9311 22.0848 63.428 21.0837 62.9248C19.1817 61.9185 17.48 60.6104 15.7782 59.2015C12.4747 56.3839 9.67175 52.7613 7.76975 48.7361C6.7687 46.7236 6.06796 44.6104 5.46733 42.3965C4.96681 40.1827 4.66649 37.8682 4.56639 35.6544C4.36618 31.1261 5.16702 26.4971 6.86881 22.2707C8.57059 18.0443 11.0732 14.0192 14.2766 10.799C15.8783 9.18897 17.6802 7.67954 19.5822 6.37136C21.4842 5.06318 23.4863 3.95627 25.6886 3.05061C34.1975 -0.572035 44.1079 -0.471406 52.5168 3.25186C56.7212 5.06318 60.5252 7.78017 63.6284 11.1009C66.7317 14.4217 69.1342 18.3462 70.6358 22.5726C71.4366 24.6858 71.9372 26.799 72.2375 29.0129C72.4377 30.1198 72.5378 31.2267 72.5378 32.3336C72.5378 32.8368 72.5378 33.4405 72.5378 33.9437C72.5378 34.2456 72.5378 34.4468 72.5378 34.7487V35.1512V35.5537V35.9563C72.5378 35.9563 72.5378 36.0569 72.5378 35.9563C72.5378 35.9563 72.5378 35.9563 72.5378 36.0569V36.1575V36.3588C72.5378 36.6607 72.5378 36.9626 72.4377 37.2644C72.4377 37.8682 72.3376 38.3714 72.2375 38.9751C72.0373 40.0821 71.8371 41.189 71.5367 42.1953C71.2364 43.3022 70.836 44.3085 70.3355 45.3148C69.835 46.321 69.3344 47.3273 68.7338 48.233C68.1332 49.1387 67.4324 50.0443 66.7317 50.8493C66.031 51.6544 65.13 52.3588 64.3292 53.0632C63.4282 53.7676 62.5273 54.3714 61.6263 54.8745C60.7254 55.3776 59.7243 55.7802 58.7233 56.1827C56.7212 56.8871 54.7191 57.2896 52.717 57.4909C50.7149 57.6921 48.7128 57.5915 46.7107 57.3902C48.6127 57.0883 50.6148 56.5852 52.4167 55.9814C53.3176 55.6795 54.2185 55.3776 55.1195 54.9751C56.0204 54.5726 56.8213 54.1701 57.6221 53.667C59.2238 52.7613 60.6253 51.5537 61.8265 50.2456C62.4272 49.5412 62.9277 48.8368 63.4282 48.1324C63.9287 47.428 64.3292 46.6229 64.6295 45.8179C66.031 42.6984 66.5315 39.0758 66.1311 35.755V35.3525V35.0506C66.1311 34.8493 66.1311 34.6481 66.031 34.3462C65.9308 33.9437 65.9308 33.4405 65.8307 33.038C65.6305 32.1324 65.4303 31.3273 65.2301 30.5223C64.7296 28.8116 64.129 27.2015 63.4282 25.6921C61.9266 22.5726 59.8244 19.8556 57.4219 17.6418C54.9193 15.428 52.1163 13.6166 49.0131 12.5097C45.9098 11.4028 42.7065 10.799 39.403 10.8997C36.0995 11.0003 32.8961 11.7047 29.9931 12.9122C28.4915 13.516 27.09 14.321 25.6886 15.2267C24.2871 16.1324 23.0858 17.1387 21.8846 18.2456C19.5822 20.56 17.5801 23.1764 16.2787 26.1953C14.8772 29.2141 14.0764 32.4342 13.8762 35.8556C13.676 39.1764 14.1765 42.4971 15.3777 45.7173C16.579 48.9374 18.3809 51.9563 20.6833 54.5726C21.8846 55.8808 23.1859 57.0883 24.5874 58.1953C25.9889 59.3022 27.4905 60.3085 29.0921 61.1135C30.6938 61.9185 32.3956 62.7236 34.1975 63.3273C35.9994 63.9311 37.8013 64.4342 39.7033 64.7361C41.6053 65.038 43.5073 65.3399 45.4093 65.4405C47.1111 65.4405 49.1132 65.4405 51.1153 65.4405Z" fill="#FBEB58"/>
<path opacity="0.38" d="M51.1153 65.4405C47.3113 66.6481 43.3071 67.3525 39.3029 67.3525C38.3018 67.3525 37.3008 67.3525 36.1996 67.2519C35.1986 67.1512 34.1975 67.0506 33.0964 66.95C32.0953 66.7487 31.0943 66.6481 29.9931 66.3462C28.992 66.1449 27.991 65.843 26.9899 65.4405C25.9889 65.1386 24.9878 64.7361 23.9868 64.3336C22.9857 63.9311 22.0848 63.428 21.0837 62.9248C19.1817 61.9185 17.48 60.6104 15.7782 59.2015C12.4747 56.3839 9.67175 52.7613 7.76975 48.7361C6.7687 46.7236 6.06796 44.6104 5.46733 42.3965C4.96681 40.1827 4.66649 37.8682 4.56639 35.6544C4.36618 31.1261 5.16702 26.4971 6.86881 22.2707C8.57059 18.0443 11.0732 14.0192 14.2766 10.799C15.8783 9.18897 17.6802 7.67954 19.5822 6.37136C21.4842 5.06318 23.4863 3.95627 25.6886 3.05061C34.1975 -0.572035 44.1079 -0.471406 52.5168 3.25186C56.7212 5.06318 60.5252 7.78017 63.6284 11.1009C66.7317 14.4217 69.1342 18.3462 70.6358 22.5726C71.4366 24.6858 71.9372 26.799 72.2375 29.0129C72.4377 30.1198 72.5378 31.2267 72.5378 32.3336C72.5378 32.8368 72.5378 33.4405 72.5378 33.9437C72.5378 34.2456 72.5378 34.4468 72.5378 34.7487V35.1512V35.5537V35.9563C72.5378 35.9563 72.5378 36.0569 72.5378 35.9563C72.5378 35.9563 72.5378 35.9563 72.5378 36.0569V36.1575V36.3588C72.5378 36.6607 72.5378 36.9626 72.4377 37.2644C72.4377 37.8682 72.3376 38.3714 72.2375 38.9751C72.0373 40.0821 71.8371 41.189 71.5367 42.1953C71.2364 43.3022 70.836 44.3085 70.3355 45.3148C69.835 46.321 69.3344 47.3273 68.7338 48.233C68.1332 49.1387 67.4324 50.0443 66.7317 50.8493C66.031 51.6544 65.13 52.3588 64.3292 53.0632C63.4282 53.7676 62.5273 54.3714 61.6263 54.8745C60.7254 55.3776 59.7243 55.7802 58.7233 56.1827C56.7212 56.8871 54.7191 57.2896 52.717 57.4909C50.7149 57.6921 48.7128 57.5915 46.7107 57.3902C48.6127 57.0883 50.6148 56.5852 52.4167 55.9814C53.3176 55.6795 54.2185 55.3776 55.1195 54.9751C56.0204 54.5726 56.8213 54.1701 57.6221 53.667C59.2238 52.7613 60.6253 51.5537 61.8265 50.2456C62.4272 49.5412 62.9277 48.8368 63.4282 48.1324C63.9287 47.428 64.3292 46.6229 64.6295 45.8179C66.031 42.6984 66.5315 39.0758 66.1311 35.755V35.3525V35.0506C66.1311 34.8493 66.1311 34.6481 66.031 34.3462C65.9308 33.9437 65.9308 33.4405 65.8307 33.038C65.6305 32.1324 65.4303 31.3273 65.2301 30.5223C64.7296 28.8116 64.129 27.2015 63.4282 25.6921C61.9266 22.5726 59.8244 19.8556 57.4219 17.6418C54.9193 15.428 52.1163 13.6166 49.0131 12.5097C45.9098 11.4028 42.7065 10.799 39.403 10.8997C36.0995 11.0003 32.8961 11.7047 29.9931 12.9122C28.4915 13.516 27.09 14.321 25.6886 15.2267C24.2871 16.1324 23.0858 17.1387 21.8846 18.2456C19.5822 20.56 17.5801 23.1764 16.2787 26.1953C14.8772 29.2141 14.0764 32.4342 13.8762 35.8556C13.676 39.1764 14.1765 42.4971 15.3777 45.7173C16.579 48.9374 18.3809 51.9563 20.6833 54.5726C21.8846 55.8808 23.1859 57.0883 24.5874 58.1953C25.9889 59.3022 27.4905 60.3085 29.0921 61.1135C30.6938 61.9185 32.3956 62.7236 34.1975 63.3273C35.9994 63.9311 37.8013 64.4342 39.7033 64.7361C41.6053 65.038 43.5073 65.3399 45.4093 65.4405C47.1111 65.4405 49.1132 65.4405 51.1153 65.4405Z" fill="url(#paint0_linear_206_245)"/>
<path d="M84.4503 26.5979L83.249 32.3337C83.1489 32.6356 83.0488 32.8369 82.8486 33.0382C82.6484 33.2394 82.4482 33.2394 82.1479 33.2394H79.0446C78.5441 33.2394 78.3439 33.0382 78.3439 32.6356C78.3439 32.4344 78.3439 32.2331 78.444 32.0319L81.8476 16.0319C81.9477 15.3275 82.3481 15.0256 82.9487 15.0256H92.4587C92.9592 15.0256 93.2595 15.2268 93.2595 15.6293C93.2595 15.9312 93.0593 16.8369 92.6589 18.3463C92.5588 18.8495 92.1584 19.0507 91.6579 19.0507H86.1521L85.4513 22.4721H89.9561C90.4566 22.4721 90.7569 22.6734 90.7569 23.0759C90.7569 23.3778 90.5567 24.2834 90.1563 25.8935C90.0562 26.3966 89.6558 26.5979 89.1552 26.5979H84.4503Z" fill="white"/>
<path d="M97.7645 32.3338C96.6633 33.1388 95.4621 33.5413 94.0606 33.5413C91.6581 33.5413 90.4568 32.7363 90.4568 31.2268C90.4568 30.7237 90.5569 30.0193 90.7571 29.1136L92.4589 21.1639C92.559 20.6608 92.8593 20.3589 93.3598 20.3589H96.5632C96.9636 20.3589 97.1638 20.5602 97.1638 20.9627C97.1638 20.9627 97.1638 21.1639 97.0637 21.4658L95.6623 28.3086C95.5622 28.6105 95.5622 28.9124 95.5622 29.1136C95.5622 29.5162 95.8625 29.818 96.5632 29.818C96.7634 29.818 97.0637 29.818 97.4641 29.7174C97.7645 29.6168 97.9647 29.5161 98.1649 29.3149C98.3651 29.1136 98.4652 28.9124 98.5653 28.5099L100.067 21.2646C100.167 20.6608 100.567 20.3589 101.068 20.3589H104.271C104.672 20.3589 104.872 20.5602 104.872 20.9627C104.872 21.1639 104.872 21.3652 104.772 21.5665L102.469 32.2331C102.369 32.9375 101.969 33.34 101.368 33.34H98.4652C98.1649 33.34 97.9647 33.2394 97.8646 33.1388C97.7645 33.0382 97.6644 32.8369 97.6644 32.6356V32.3338H97.7645Z" fill="white"/>
<path d="M109.076 32.4342C108.976 33.038 108.576 33.3398 108.075 33.3398H104.872C104.471 33.3398 104.271 33.1386 104.271 32.7361C104.271 32.5348 104.271 32.3336 104.371 32.1323L106.674 21.4656C106.774 20.7612 107.174 20.3587 107.775 20.3587H110.678C110.978 20.3587 111.178 20.4593 111.279 20.56C111.379 20.6606 111.479 20.8619 111.479 21.0631V21.2644C112.58 20.4593 113.781 20.0568 115.183 20.0568C117.585 20.0568 118.786 20.8619 118.786 22.3713C118.786 22.8744 118.686 23.5788 118.586 24.4845L116.784 32.5348C116.684 33.038 116.384 33.3398 115.783 33.3398H112.58C112.18 33.3398 111.979 33.1386 111.979 32.7361C111.979 32.7361 111.979 32.5348 112.079 32.2329L113.481 25.3902C113.581 25.0883 113.581 24.7864 113.581 24.5851C113.581 24.1826 113.281 23.8807 112.58 23.8807C112.38 23.8807 112.079 23.8807 111.679 23.9814C111.379 24.082 111.178 24.1826 110.978 24.3839C110.778 24.5851 110.678 24.7864 110.578 25.1889L109.076 32.4342Z" fill="white"/>
<path d="M146.816 24.3839C146.816 25.5915 146.616 26.8996 146.215 28.4091C145.815 29.8179 145.214 31.0254 144.414 31.8305C143.312 33.038 141.511 33.6418 139.108 33.6418C138.207 33.6418 137.506 33.5411 136.806 33.4405C136.205 33.3399 135.604 33.1386 135.004 32.8367C134.403 32.5349 134.003 32.0317 133.702 31.4279C133.402 30.8242 133.302 30.0191 133.302 29.1135C133.302 27.8053 133.502 26.3965 133.903 25.0883C134.303 23.7801 134.904 22.6732 135.805 21.7676C137.006 20.56 138.708 19.9562 140.81 19.9562C141.511 19.9562 142.111 19.9562 142.612 20.0569C143.112 20.1575 143.613 20.2581 144.213 20.3588C144.814 20.56 145.214 20.7613 145.515 21.0632C145.815 21.365 146.115 21.7676 146.316 22.3713C146.716 22.9751 146.816 23.5789 146.816 24.3839ZM142.011 25.0883C142.011 24.6858 141.911 24.2833 141.711 24.1827C141.51 23.9814 141.21 23.8808 140.71 23.8808C140.009 23.8808 139.508 24.082 139.208 24.5852C138.908 25.0883 138.708 25.6921 138.507 26.4971C138.307 27.3021 138.207 28.0066 138.207 28.5097C138.207 29.0128 138.307 29.3147 138.507 29.516C138.708 29.7172 139.008 29.8179 139.508 29.8179C140.109 29.8179 140.509 29.6166 140.91 29.2141C141.21 28.8116 141.41 28.2078 141.611 27.2015C141.911 26.2959 142.011 25.5915 142.011 25.0883Z" fill="white"/>
<path d="M80.346 47.0256L79.1448 52.7615C79.0447 53.0634 78.9446 53.2646 78.7444 53.4659C78.5441 53.6671 78.3439 53.6671 78.0436 53.6671H74.9404C74.4398 53.6671 74.2396 53.4659 74.2396 53.0634C74.2396 52.8621 74.2396 52.6609 74.3397 52.4596L77.7433 36.4596C77.8434 35.7552 78.2438 35.4533 78.8445 35.4533H88.3544C88.855 35.4533 89.1553 35.6546 89.1553 36.0571C89.1553 36.359 88.9551 37.2646 88.5547 38.7741C88.4546 39.2772 88.0541 39.4785 87.5536 39.4785H82.0478L81.3471 42.8998H85.7517C86.2522 42.8998 86.5526 43.1011 86.5526 43.5036C86.5526 43.8055 86.3523 44.7112 85.9519 46.3212C85.8518 46.8244 85.4514 47.0256 84.9509 47.0256H80.346Z" fill="white"/>
<path d="M90.6569 53.667H87.4535C87.0531 53.667 86.8529 53.4657 86.8529 53.0632C86.8529 52.9626 86.8529 52.7613 86.953 52.3588L89.2554 41.5915C89.3555 40.9877 89.756 40.6858 90.1564 40.6858H93.3597C93.7602 40.6858 93.9604 40.8871 93.9604 41.2896C93.9604 41.4909 93.9604 41.6921 93.8603 41.994L91.5579 52.6607C91.5579 53.3651 91.2575 53.667 90.6569 53.667ZM94.7612 36.2582C94.7612 36.5601 94.6611 36.9626 94.561 37.4657C94.4609 37.9689 94.2607 38.2708 93.9604 38.5726C93.5599 38.9752 92.8592 39.1764 92.0584 39.1764C90.757 39.1764 90.0563 38.5726 90.0563 37.4657C90.0563 36.5601 90.2565 35.8557 90.757 35.3525C91.2575 34.8494 91.8582 34.6481 92.659 34.6481C94.1606 34.5475 94.7612 35.0506 94.7612 36.2582Z" fill="white"/>
<path d="M97.9646 52.7613C97.8645 53.3651 97.4641 53.667 96.9635 53.667H93.7602C93.3598 53.667 93.1595 53.4657 93.1595 53.0632C93.1595 52.862 93.1595 52.6607 93.2596 52.4594L95.5621 41.7928C95.6622 41.0884 96.0626 40.6859 96.6632 40.6859H99.5663C99.8666 40.6859 100.067 40.7865 100.167 40.8871C100.267 40.9877 100.367 41.189 100.367 41.3903V41.5915C101.468 40.7865 102.67 40.384 104.071 40.384C106.474 40.384 107.675 41.189 107.675 42.6984C107.675 43.2016 107.575 43.906 107.475 44.8116L105.773 52.7613C105.673 53.2645 105.372 53.5664 104.772 53.5664H101.568C101.168 53.5664 100.968 53.3651 100.968 52.9626C100.968 52.9626 100.968 52.7613 101.068 52.4594L102.469 45.6167C102.569 45.3148 102.569 45.0129 102.569 44.8116C102.569 44.4091 102.269 44.1072 101.568 44.1072C101.368 44.1072 101.068 44.1072 100.667 44.2079C100.367 44.3085 100.167 44.4091 99.9667 44.6104C99.7665 44.8116 99.6664 45.0129 99.5663 45.4154L97.9646 52.7613Z" fill="white"/>
<path d="M119.787 52.6608C119.687 53.0633 119.587 53.3652 119.487 53.4658C119.387 53.5664 119.087 53.667 118.686 53.667H115.983C115.583 53.667 115.283 53.667 115.183 53.5664C115.082 53.4658 114.982 53.2645 114.982 53.0633C114.982 52.9626 114.982 52.862 114.982 52.7614C114.182 53.5664 112.98 53.9689 111.379 53.9689C110.177 53.9689 109.276 53.667 108.576 52.862C107.875 52.1576 107.575 51.1513 107.575 49.7425C107.575 48.2331 107.775 46.623 108.275 45.2142C108.776 43.7048 109.477 42.5979 110.578 41.7928C111.679 40.8872 113.381 40.4847 115.683 40.4847C115.883 40.4847 116.284 40.4847 116.584 40.5853C116.984 40.6859 117.185 40.7865 117.285 40.7865L122.39 14.623C122.49 14.0192 122.991 13.6167 123.692 13.6167H126.695C127.195 13.6167 127.496 13.818 127.496 14.3211C127.496 14.4218 127.496 14.623 127.395 15.0255L119.787 52.6608ZM115.683 49.1387L116.584 44.3086C116.184 44.2079 115.783 44.2079 115.383 44.2079C114.582 44.2079 113.881 44.4092 113.581 44.9123C113.281 45.3148 112.98 45.818 112.78 46.5224C112.58 47.2268 112.48 47.9312 112.48 48.535C112.48 49.6419 112.88 50.145 113.681 50.145C114.182 50.145 114.682 50.0444 115.082 49.8431C115.183 49.8431 115.283 49.7425 115.383 49.5413C115.583 49.5413 115.583 49.34 115.683 49.1387Z" fill="white"/>
<path d="M126.795 48.6355C126.795 48.7362 126.795 48.9374 126.795 49.1387C126.795 49.6418 126.995 49.9437 127.295 50.0444C127.596 50.2456 128.096 50.2456 128.697 50.2456C129.598 50.2456 130.599 50.145 131.7 49.9437L132.501 49.8431C132.801 49.8431 133.001 50.0444 133.102 50.3462C133.302 51.1513 133.402 51.8557 133.402 52.2582C133.402 52.6607 133.202 52.9626 132.801 53.1638C131.5 53.667 129.698 53.9689 127.195 53.9689C125.293 53.9689 123.892 53.5664 123.091 52.7613C122.29 51.9563 121.89 50.7488 121.89 49.2393C121.89 46.5223 122.49 44.4091 123.792 42.6984C124.993 41.0884 126.995 40.384 129.598 40.384C131.5 40.384 132.801 40.6859 133.502 41.3903C134.203 41.994 134.603 43.0003 134.603 44.3085C134.603 45.3148 134.503 46.4217 134.203 47.6293C134.103 48.0318 133.902 48.3337 133.702 48.5349C133.502 48.6355 133.302 48.7362 132.901 48.7362H126.795V48.6355ZM127.295 45.516H130.098C130.199 45.1135 130.299 44.8116 130.299 44.4091C130.299 43.8054 129.898 43.5035 129.097 43.5035C128.697 43.5035 128.296 43.6041 127.996 43.906C127.696 44.3085 127.496 44.8116 127.295 45.516Z" fill="white"/>
<path d="M139.909 52.862C139.809 53.3651 139.508 53.667 138.908 53.667H135.804C135.304 53.667 135.104 53.4658 135.104 53.0633C135.104 53.0633 135.104 52.862 135.204 52.4595L137.406 41.7928C137.506 41.0884 137.907 40.6859 138.507 40.6859H141.41C141.911 40.6859 142.111 40.8872 142.111 41.2897V41.5916C142.311 41.2897 142.712 40.9878 143.312 40.6859C143.813 40.384 144.413 40.2834 145.014 40.2834C145.515 40.2834 145.815 40.2834 146.015 40.384C146.315 40.4846 146.416 40.7865 146.416 41.0884C146.416 41.2897 146.315 41.6922 146.115 42.3966C145.915 43.101 145.815 43.5035 145.715 43.7048C145.515 44.0067 145.214 44.2079 144.814 44.2079C144.614 44.2079 144.413 44.2079 143.913 44.1073C143.512 44.1073 143.212 44.0067 143.012 44.0067C142.612 44.0067 142.211 44.0067 142.011 44.1073C141.811 44.2079 141.711 44.3085 141.61 44.5098C141.51 44.7111 141.41 44.9123 141.41 45.1136L139.909 52.862Z" fill="white"/>
<path d="M153.623 45.8179C154.624 46.1198 155.425 46.5223 155.825 46.9249C156.326 47.428 156.526 48.0318 156.526 48.7362C156.526 50.5475 156.126 51.8557 155.125 52.6607C154.124 53.4657 152.722 53.9689 150.72 53.9689C148.317 53.9689 146.616 53.8682 145.615 53.4657C145.314 53.3651 145.214 53.1638 145.214 52.862C145.214 52.3588 145.414 51.5538 145.815 50.5475C145.915 50.145 146.315 49.9437 146.716 49.9437C146.916 49.9437 147.216 49.9437 147.617 50.0444C148.618 50.2456 149.819 50.3462 151.02 50.3462C151.421 50.3462 151.721 50.2456 151.821 50.145C151.921 50.0443 151.921 49.9437 151.921 49.7425C151.921 49.4406 151.721 49.3399 151.221 49.1387L149.819 48.7362C148.818 48.4343 148.017 48.1324 147.517 47.6293C147.016 47.1261 146.716 46.5223 146.716 45.6167C146.716 43.8054 147.316 42.4972 148.518 41.5915C149.519 40.7865 151.02 40.384 153.022 40.384C154.624 40.384 155.825 40.4846 156.626 40.6859C157.027 40.7865 157.227 40.9877 157.227 41.3903C157.227 41.994 157.127 42.7991 156.826 43.8054C156.726 44.2079 156.426 44.3085 156.026 44.4091C155.825 44.4091 155.525 44.4091 155.225 44.3085C154.224 44.2079 153.423 44.1072 152.622 44.1072C152.222 44.1072 151.921 44.2079 151.821 44.3085C151.721 44.4091 151.621 44.6104 151.621 44.8116C151.621 45.1135 151.921 45.3148 152.422 45.4154L153.623 45.8179Z" fill="white"/>
<path d="M134.002 21.0633C134.002 20.6608 133.802 20.4595 133.402 20.4595H130.399C129.898 20.4595 129.498 20.6608 129.197 21.0633L128.997 21.3652L126.094 25.4909C125.794 25.8935 125.694 26.3966 125.894 26.8998L126.695 29.5161L127.696 32.4343C127.896 32.9375 128.196 33.2394 128.697 33.2394H131.9C132.1 33.2394 132.301 33.1387 132.401 33.0381C132.501 32.9375 132.601 32.7362 132.601 32.535C132.601 32.2331 132.501 32.0318 132.401 31.7299C131.4 29.1136 130.799 27.4029 130.399 26.3966L133.702 21.7677C133.902 21.4658 134.002 21.2645 134.002 21.0633Z" fill="white"/>
<path d="M153.023 30.3209C153.023 30.6228 152.922 31.0253 152.822 31.5284C152.722 32.0316 152.522 32.3334 152.222 32.6353C151.821 33.0378 151.121 33.2391 150.32 33.2391C149.018 33.2391 148.318 32.6353 148.318 31.5284C148.318 30.6228 148.518 29.9184 149.018 29.4152C149.519 28.9121 150.12 28.7108 150.92 28.7108C152.322 28.6102 153.023 29.214 153.023 30.3209Z" fill="#FBEB58"/>
<path d="M163.333 50.648C163.333 50.9499 163.233 51.3524 163.133 51.8556C163.033 52.3587 162.833 52.6606 162.532 52.9625C162.132 53.365 161.431 53.5663 160.63 53.5663C159.329 53.5663 158.628 52.9625 158.628 51.8556C158.628 50.9499 158.828 50.2455 159.329 49.7424C159.829 49.2392 160.43 49.038 161.231 49.038C162.632 48.9373 163.333 49.5411 163.333 50.648Z" fill="#FF1A72"/>
<path d="M34.2976 51.9563C22.4852 51.2519 25.7887 43.906 25.6886 42.8997C25.5885 41.8934 21.9847 30.8242 24.0869 25.8934C26.1891 20.9626 42.306 19.5538 42.306 19.5538H30.6938C25.3882 19.5538 20.9836 23.4783 20.2829 28.711L19.7824 32.7362C18.5811 32.8368 15.2776 33.7425 18.7813 40.1827L18.6812 40.6859C17.8804 46.7236 22.5853 52.0569 28.5916 52.0569H31.8951L34.2976 51.9563C34.3977 51.8557 34.1975 52.0569 34.2976 51.9563Z" fill="url(#paint1_linear_206_245)"/>
<path d="M18.7812 40.3838L19.7823 32.9373C19.7823 32.9373 17.2796 33.1385 17.1795 35.5536C17.0794 38.0693 18.7812 40.3838 18.7812 40.3838Z" fill="#231F20"/>
<path d="M28.1913 44.409C30.9556 44.409 33.1966 42.1564 33.1966 39.3776C33.1966 36.5988 30.9556 34.3461 28.1913 34.3461C25.427 34.3461 23.186 36.5988 23.186 39.3776C23.186 42.1564 25.427 44.409 28.1913 44.409Z" fill="white"/>
<path d="M59.6244 40.3839C63.2282 33.9437 59.8246 33.038 58.6233 32.9374L58.1228 28.9122C57.4221 23.6795 53.0174 19.755 47.7119 19.755H38.7024C42.4063 19.9562 48.813 20.7613 50.6149 23.9814C53.9184 29.9185 52.4168 41.994 52.3167 43.0003C52.2166 44.0065 56.2208 52.2581 40.204 51.6543L46.4105 52.2581H49.714C55.7203 52.2581 60.4252 46.9248 59.6244 40.887V40.3839Z" fill="url(#paint2_linear_206_245)"/>
<path opacity="0.4" d="M22.8858 66.3462C24.3874 65.1387 40.0038 51.8557 42.106 49.5412C42.6065 50.2456 43.1071 50.95 43.6076 51.6544C43.7077 51.7551 43.8078 51.9563 43.9079 52.0569C44.4084 51.6544 44.6086 51.8557 45.1092 51.4532C46.3104 51.8557 49.1134 52.2582 50.5148 52.2582C57.1218 52.2582 61.4263 46.1198 61.4263 39.3777C61.4263 32.6356 56.0206 27.2016 49.3136 27.2016C42.7066 27.2016 37.2009 32.6356 37.2009 39.3777C37.2009 41.8934 38.0017 44.3085 39.3031 46.2205C39.3031 46.2205 39.3031 46.3211 39.203 46.3211L20.2831 64.9374M49.4137 44.4091C46.7108 44.4091 44.4084 42.1953 44.4084 39.3777C44.4084 36.5601 46.6107 34.3463 49.4137 34.3463C52.1165 34.3463 54.4189 36.5601 54.4189 39.3777C54.4189 42.1953 52.1165 44.4091 49.4137 44.4091Z" fill="url(#paint3_linear_206_245)"/>
<path d="M47.1112 51.0506C48.7129 51.6544 50.5147 51.8556 52.4167 51.6544C58.3229 51.0506 62.9278 46.1198 63.3282 40.1827C63.7286 32.8368 57.7223 26.8997 50.5147 27.2015C44.3082 27.5034 39.2029 32.7361 39.0027 38.9751C38.9025 41.6921 39.7034 44.3085 41.1049 46.321L24.2872 63.2267C22.7856 64.7361 22.7856 67.0506 24.2872 68.56C25.7888 70.0695 28.0912 70.0695 29.5928 68.56L47.1112 51.0506ZM51.2155 44.5097C48.4125 44.5097 46.2102 42.1953 46.2102 39.4783C46.2102 36.6607 48.5126 34.4468 51.2155 34.4468C54.0184 34.4468 56.2207 36.7613 56.2207 39.4783C56.2207 42.2959 53.9183 44.5097 51.2155 44.5097Z" fill="#414042"/>
<path d="M58.8233 48.3336C59.1236 47.8304 59.3238 48.6355 59.7242 48.233C59.8243 48.1323 60.3249 47.4279 60.5251 47.4279C60.6252 47.2267 61.0256 46.9248 61.1257 46.6229C61.3259 46.0191 61.5261 45.8179 61.9265 45.3147C61.9265 45.1135 62.1267 44.4091 62.327 44.2078C62.7274 39.7801 61.426 33.7424 55.2195 32.4342C46.7106 30.6229 45.3091 38.472 45.3091 38.472C45.3091 38.472 48.2121 32.1323 53.4176 36.3587C56.8212 39.1764 52.4165 43.7047 52.4165 43.7047L58.8233 48.3336Z" fill="url(#paint4_linear_206_245)"/>
<path d="M41.105 46.321C41.105 46.321 42.7066 49.4405 47.2114 50.95C47.2114 50.95 43.8078 54.5726 40.0038 58.1953L34.498 53.0632C34.3979 53.1638 38.0017 49.8431 41.105 46.321Z" fill="url(#paint5_linear_206_245)"/>
<path d="M50.8149 45.3146C53.9662 45.3146 56.5209 42.7465 56.5209 39.5787C56.5209 36.4109 53.9662 33.8429 50.8149 33.8429C47.6635 33.8429 45.1089 36.4109 45.1089 39.5787C45.1089 42.7465 47.6635 45.3146 50.8149 45.3146Z" fill="white"/>
<path d="M22.8856 56.9877C22.8856 56.9877 26.7897 54.17 34.2976 51.9562C34.2976 51.9562 25.8888 50.9499 22.8856 56.9877Z" fill="url(#paint6_linear_206_245)"/>
<path d="M72.5377 32.2329C72.4376 31.126 72.4376 30.019 72.2374 28.9121C71.9371 26.6983 71.3364 24.5851 70.6357 22.4719C69.1341 18.2455 66.7316 14.3209 63.6283 11.0002C62.6273 9.89325 61.5261 8.88697 60.3249 7.88068C41.405 -7.21367 25.5884 11.4027 19.0815 20.9624C19.8824 19.9561 20.7833 18.9499 21.6843 18.0442C22.8855 16.9373 24.0868 15.931 25.4883 15.0253C26.7896 14.1197 28.2912 13.3146 29.7928 12.7109C32.7959 11.4027 35.9993 10.7989 39.2027 10.6983C42.5061 10.5977 45.7095 11.2014 48.8128 12.3083C51.916 13.4153 54.719 15.2266 57.2216 17.4404C59.7242 19.6543 61.7263 22.4719 63.2279 25.4907C64.0288 27.0002 64.6294 28.6102 65.0298 30.3209C65.23 31.126 65.4302 32.0316 65.6304 32.8367C65.7305 33.2392 65.8306 33.7423 65.8306 34.1448C65.8306 34.3461 65.9308 34.5473 65.9308 34.8492V35.1511V35.5536C66.3312 38.8744 65.8307 42.497 64.4292 45.6165C64.0288 46.4216 63.6283 47.126 63.2279 47.931C62.7274 48.6354 62.2269 49.3398 61.6262 50.0442C60.425 51.3524 59.0235 52.4593 57.4218 53.4656C56.621 53.9687 55.8201 54.3712 54.9192 54.7738C54.0182 55.1763 53.1173 55.4782 52.2163 55.78C50.4145 56.3838 48.5125 56.7863 46.5104 57.1889C48.5125 57.3901 50.5146 57.3901 52.5167 57.2895C54.5188 57.0882 56.5209 56.6857 58.523 55.9813C59.524 55.6794 60.5251 55.1763 61.426 54.6731C62.327 54.17 63.2279 53.5662 64.1289 52.8618C65.0298 52.1574 65.8307 51.453 66.5314 50.648C67.2321 49.8429 67.9329 48.9373 68.5335 48.0316C69.1341 47.126 69.6346 46.1197 70.1352 45.1134C70.6357 44.1071 70.936 43.1008 71.3364 41.9939C71.6367 40.887 71.9371 39.8807 72.0372 38.7738C72.1373 38.17 72.2374 37.6668 72.2374 37.0631C72.2374 36.7612 72.2374 36.4593 72.3375 36.1574V35.9562V35.8555V35.7549C72.3375 35.7549 72.3375 35.8555 72.3375 35.7549V35.3524V34.9499V34.5473C72.3375 34.2455 72.3375 34.0442 72.3375 33.7423C72.6378 33.3398 72.6378 32.736 72.5377 32.2329Z" fill="#FF1A72"/>
<path d="M72.5379 32.2328C72.4378 31.1259 72.4378 30.0189 72.2376 28.912C71.9373 26.6982 71.3367 24.585 70.6359 22.4718C69.1344 18.2454 66.7318 14.3208 63.6286 11.0001C62.6275 9.89316 61.5264 8.78624 60.3251 7.88058C40.7045 -6.91187 25.5886 11.4026 19.1819 21.063C19.9827 20.0567 20.8837 19.0504 21.7846 18.1447C22.9859 17.0378 24.1871 16.0315 25.5886 15.1259C26.89 14.2202 28.3916 13.4152 29.8931 12.8114C32.8963 11.5032 36.0997 10.8994 39.303 10.7988C42.6065 10.6982 45.8099 11.302 48.9131 12.4089C52.0164 13.5158 54.8193 15.3271 57.3219 17.541C59.8246 19.7548 61.8267 22.5724 63.3283 25.5913C64.1291 27.1007 64.7297 28.7108 65.1302 30.4215C65.3304 31.2265 65.5306 32.1322 65.7308 32.9372C65.8309 33.3397 65.931 33.8428 65.931 34.2454C65.931 34.4466 66.0311 34.6479 66.0311 34.9498V35.2517V35.6542C66.4315 38.9749 65.931 42.5976 64.5295 45.7171C64.1291 46.5221 63.7287 47.2265 63.3283 48.0315C62.8277 48.7359 62.3272 49.4403 61.7266 50.1447C60.5253 51.4529 59.1238 52.5598 57.5222 53.5661C56.7213 54.0693 55.9205 54.4718 55.0195 54.8743C54.1186 55.2768 53.2176 55.5787 52.3167 55.8806C50.5148 56.4844 48.6128 56.8869 46.6107 57.2894C48.6128 57.4906 50.6149 57.4906 52.617 57.39C54.6191 57.1888 56.6212 56.7862 58.6233 56.0818C59.6244 55.78 60.6254 55.2768 61.5264 54.7737C62.4273 54.2705 63.3283 53.6667 64.2292 52.9623C65.1301 52.2579 65.931 51.5535 66.6317 50.7485C67.3325 49.9435 68.0332 49.0378 68.6338 48.1322C69.2345 47.2265 69.735 46.2202 70.2355 45.2139C70.736 44.2076 71.0364 43.2013 71.4368 42.0944C71.7371 40.9875 72.0374 39.9812 72.1375 38.8743C72.2376 38.2705 72.3377 37.7674 72.3377 37.1636C72.3377 36.8617 72.3377 36.5598 72.4378 36.2579V36.0567V35.9561V35.8554C72.4378 35.8554 72.4378 35.9561 72.4378 35.8554V35.4529V35.0504V34.6479C72.4378 34.346 72.4378 34.1447 72.4378 33.8428C72.638 33.3397 72.638 32.7359 72.5379 32.2328Z" fill="url(#paint7_linear_206_245)"/>
</g>
<rect x="350" y="8.33344" width="572" height="53.3333" rx="26.6667" fill="white"/>
<path fill-rule="evenodd" clip-rule="evenodd" d="M854 61.6668V8.33344H895.904C910.632 8.33344 922.571 20.2725 922.571 35.0001C922.571 49.7277 910.632 61.6668 895.904 61.6668H854Z" fill="#363F4D"/>
<path d="M378.655 35.8188H375.551L375.017 37.3334H373.748L376.404 29.9094H377.812L380.468 37.3334H379.188L378.655 35.8188ZM378.313 34.8268L377.108 31.3814L375.892 34.8268H378.313ZM382.839 29.4401V37.3334H381.623V29.4401H382.839ZM385.651 29.4401V37.3334H384.435V29.4401H385.651ZM389.613 34.3894C389.613 33.785 389.734 33.2552 389.976 32.8001C390.225 32.3379 390.566 31.9823 391 31.7334C391.434 31.4845 391.932 31.3601 392.493 31.3601C393.204 31.3601 393.791 31.5308 394.253 31.8721C394.723 32.2063 395.039 32.6863 395.203 33.3121H393.891C393.784 33.0205 393.613 32.793 393.379 32.6294C393.144 32.4659 392.849 32.3841 392.493 32.3841C391.996 32.3841 391.597 32.5619 391.299 32.9174C391.007 33.2659 390.861 33.7565 390.861 34.3894C390.861 35.0223 391.007 35.5165 391.299 35.8721C391.597 36.2277 391.996 36.4054 392.493 36.4054C393.197 36.4054 393.663 36.0961 393.891 35.4774H395.203C395.032 36.0748 394.712 36.5512 394.243 36.9068C393.773 37.2552 393.19 37.4294 392.493 37.4294C391.932 37.4294 391.434 37.305 391 37.0561C390.566 36.8001 390.225 36.4445 389.976 35.9894C389.734 35.5272 389.613 34.9939 389.613 34.3894ZM396.009 34.3681C396.009 33.7779 396.13 33.2552 396.372 32.8001C396.621 32.345 396.955 31.993 397.374 31.7441C397.801 31.4881 398.27 31.3601 398.782 31.3601C399.245 31.3601 399.646 31.4525 399.988 31.6374C400.336 31.8152 400.614 32.0392 400.82 32.3094V31.4561H402.046V37.3334H400.82V36.4588C400.614 36.7361 400.333 36.9672 399.977 37.1521C399.622 37.337 399.216 37.4294 398.761 37.4294C398.256 37.4294 397.794 37.3014 397.374 37.0454C396.955 36.7823 396.621 36.4197 396.372 35.9574C396.13 35.4881 396.009 34.9583 396.009 34.3681ZM400.82 34.3894C400.82 33.9841 400.734 33.6321 400.564 33.3334C400.4 33.0348 400.183 32.8072 399.913 32.6508C399.643 32.4943 399.351 32.4161 399.038 32.4161C398.726 32.4161 398.434 32.4943 398.164 32.6508C397.894 32.8001 397.673 33.0241 397.502 33.3228C397.339 33.6143 397.257 33.9628 397.257 34.3681C397.257 34.7734 397.339 35.129 397.502 35.4348C397.673 35.7405 397.894 35.9752 398.164 36.1388C398.441 36.2952 398.733 36.3734 399.038 36.3734C399.351 36.3734 399.643 36.2952 399.913 36.1388C400.183 35.9823 400.4 35.7548 400.564 35.4561C400.734 35.1503 400.82 34.7948 400.82 34.3894ZM405.062 32.4481V35.7014C405.062 35.9219 405.112 36.0819 405.212 36.1814C405.318 36.2739 405.496 36.3201 405.745 36.3201H406.492V37.3334H405.532C404.984 37.3334 404.565 37.2054 404.273 36.9494C403.981 36.6934 403.836 36.2774 403.836 35.7014V32.4481H403.142V31.4561H403.836V29.9948H405.062V31.4561H406.492V32.4481H405.062ZM412.999 34.2508C412.999 34.4712 412.985 34.6703 412.956 34.8481H408.466C408.501 35.3174 408.675 35.6943 408.988 35.9788C409.301 36.2632 409.685 36.4054 410.14 36.4054C410.795 36.4054 411.257 36.1317 411.527 35.5841H412.839C412.661 36.1245 412.338 36.569 411.868 36.9174C411.406 37.2588 410.83 37.4294 410.14 37.4294C409.579 37.4294 409.074 37.305 408.626 37.0561C408.185 36.8001 407.836 36.4445 407.58 35.9894C407.331 35.5272 407.207 34.9939 407.207 34.3894C407.207 33.785 407.328 33.2552 407.57 32.8001C407.819 32.3379 408.163 31.9823 408.604 31.7334C409.052 31.4845 409.564 31.3601 410.14 31.3601C410.695 31.3601 411.189 31.481 411.623 31.7228C412.057 31.9645 412.395 32.3059 412.636 32.7468C412.878 33.1805 412.999 33.6819 412.999 34.2508ZM411.73 33.8668C411.723 33.4188 411.563 33.0597 411.25 32.7894C410.937 32.5192 410.549 32.3841 410.087 32.3841C409.667 32.3841 409.308 32.5192 409.01 32.7894C408.711 33.0525 408.533 33.4117 408.476 33.8668H411.73ZM416.564 31.3601C417.019 31.3601 417.421 31.4525 417.769 31.6374C418.125 31.8152 418.402 32.0392 418.601 32.3094V31.4561H419.828V37.4294C419.828 37.9699 419.714 38.4499 419.486 38.8694C419.259 39.2961 418.928 39.6303 418.494 39.8721C418.068 40.1139 417.556 40.2348 416.958 40.2348C416.162 40.2348 415.501 40.0463 414.974 39.6694C414.448 39.2997 414.149 38.7948 414.078 38.1548H415.284C415.376 38.4605 415.572 38.7059 415.87 38.8908C416.176 39.0828 416.539 39.1788 416.958 39.1788C417.449 39.1788 417.844 39.0294 418.142 38.7308C418.448 38.4321 418.601 37.9983 418.601 37.4294V36.4481C418.395 36.7254 418.114 36.9601 417.758 37.1521C417.41 37.337 417.012 37.4294 416.564 37.4294C416.052 37.4294 415.582 37.3014 415.156 37.0454C414.736 36.7823 414.402 36.4197 414.153 35.9574C413.911 35.4881 413.79 34.9583 413.79 34.3681C413.79 33.7779 413.911 33.2552 414.153 32.8001C414.402 32.345 414.736 31.993 415.156 31.7441C415.582 31.4881 416.052 31.3601 416.564 31.3601ZM418.601 34.3894C418.601 33.9841 418.516 33.6321 418.345 33.3334C418.181 33.0348 417.965 32.8072 417.694 32.6508C417.424 32.4943 417.133 32.4161 416.82 32.4161C416.507 32.4161 416.215 32.4943 415.945 32.6508C415.675 32.8001 415.454 33.0241 415.284 33.3228C415.12 33.6143 415.038 33.9628 415.038 34.3681C415.038 34.7734 415.12 35.129 415.284 35.4348C415.454 35.7405 415.675 35.9752 415.945 36.1388C416.222 36.2952 416.514 36.3734 416.82 36.3734C417.133 36.3734 417.424 36.2952 417.694 36.1388C417.965 35.9823 418.181 35.7548 418.345 35.4561C418.516 35.1503 418.601 34.7948 418.601 34.3894ZM423.974 37.4294C423.42 37.4294 422.918 37.305 422.47 37.0561C422.022 36.8001 421.67 36.4445 421.414 35.9894C421.158 35.5272 421.03 34.9939 421.03 34.3894C421.03 33.7921 421.162 33.2623 421.425 32.8001C421.688 32.3379 422.047 31.9823 422.502 31.7334C422.957 31.4845 423.466 31.3601 424.028 31.3601C424.589 31.3601 425.098 31.4845 425.553 31.7334C426.008 31.9823 426.367 32.3379 426.63 32.8001C426.893 33.2623 427.025 33.7921 427.025 34.3894C427.025 34.9868 426.89 35.5165 426.62 35.9788C426.349 36.441 425.98 36.8001 425.51 37.0561C425.048 37.305 424.536 37.4294 423.974 37.4294ZM423.974 36.3734C424.287 36.3734 424.579 36.2988 424.849 36.1494C425.126 36.0001 425.35 35.7761 425.521 35.4774C425.692 35.1788 425.777 34.8161 425.777 34.3894C425.777 33.9628 425.695 33.6037 425.532 33.3121C425.368 33.0134 425.151 32.7894 424.881 32.6401C424.611 32.4908 424.319 32.4161 424.006 32.4161C423.693 32.4161 423.402 32.4908 423.132 32.6401C422.868 32.7894 422.659 33.0134 422.502 33.3121C422.346 33.6037 422.268 33.9628 422.268 34.3894C422.268 35.0223 422.428 35.513 422.748 35.8614C423.075 36.2028 423.484 36.3734 423.974 36.3734ZM429.443 32.3094C429.621 32.0108 429.855 31.7797 430.147 31.6161C430.446 31.4454 430.798 31.3601 431.203 31.3601V32.6188H430.894C430.417 32.6188 430.055 32.7397 429.806 32.9814C429.564 33.2232 429.443 33.6428 429.443 34.2401V37.3334H428.227V31.4561H429.443V32.3094ZM432.939 30.6774C432.719 30.6774 432.534 30.6028 432.385 30.4534C432.235 30.3041 432.161 30.1192 432.161 29.8988C432.161 29.6783 432.235 29.4934 432.385 29.3441C432.534 29.1948 432.719 29.1201 432.939 29.1201C433.153 29.1201 433.334 29.1948 433.483 29.3441C433.633 29.4934 433.707 29.6783 433.707 29.8988C433.707 30.1192 433.633 30.3041 433.483 30.4534C433.334 30.6028 433.153 30.6774 432.939 30.6774ZM433.537 31.4561V37.3334H432.321V31.4561H433.537ZM440.52 34.2508C440.52 34.4712 440.506 34.6703 440.477 34.8481H435.987C436.022 35.3174 436.196 35.6943 436.509 35.9788C436.822 36.2632 437.206 36.4054 437.661 36.4054C438.315 36.4054 438.778 36.1317 439.048 35.5841H440.36C440.182 36.1245 439.859 36.569 439.389 36.9174C438.927 37.2588 438.351 37.4294 437.661 37.4294C437.099 37.4294 436.595 37.305 436.147 37.0561C435.706 36.8001 435.357 36.4445 435.101 35.9894C434.852 35.5272 434.728 34.9939 434.728 34.3894C434.728 33.785 434.849 33.2552 435.091 32.8001C435.339 32.3379 435.684 31.9823 436.125 31.7334C436.573 31.4845 437.085 31.3601 437.661 31.3601C438.216 31.3601 438.71 31.481 439.144 31.7228C439.578 31.9645 439.915 32.3059 440.157 32.7468C440.399 33.1805 440.52 33.6819 440.52 34.2508ZM439.251 33.8668C439.243 33.4188 439.083 33.0597 438.771 32.7894C438.458 32.5192 438.07 32.3841 437.608 32.3841C437.188 32.3841 436.829 32.5192 436.531 32.7894C436.232 33.0525 436.054 33.4117 435.997 33.8668H439.251ZM443.85 37.4294C443.388 37.4294 442.972 37.3477 442.602 37.1841C442.239 37.0134 441.951 36.7859 441.738 36.5014C441.525 36.2099 441.411 35.8863 441.397 35.5308H442.655C442.677 35.7797 442.794 35.9894 443.007 36.1601C443.228 36.3237 443.501 36.4054 443.829 36.4054C444.17 36.4054 444.433 36.3414 444.618 36.2134C444.81 36.0783 444.906 35.9077 444.906 35.7014C444.906 35.481 444.799 35.3174 444.586 35.2108C444.38 35.1041 444.049 34.9868 443.594 34.8588C443.153 34.7379 442.794 34.6205 442.517 34.5068C442.239 34.393 441.997 34.2188 441.791 33.9841C441.592 33.7494 441.493 33.4401 441.493 33.0561C441.493 32.7432 441.585 32.4588 441.77 32.2028C441.955 31.9397 442.218 31.7334 442.559 31.5841C442.908 31.4348 443.306 31.3601 443.754 31.3601C444.422 31.3601 444.959 31.5308 445.365 31.8721C445.777 32.2063 445.997 32.665 446.026 33.2481H444.81C444.789 32.985 444.682 32.7752 444.49 32.6188C444.298 32.4623 444.038 32.3841 443.711 32.3841C443.391 32.3841 443.146 32.4445 442.975 32.5654C442.805 32.6863 442.719 32.8463 442.719 33.0454C442.719 33.2019 442.776 33.3334 442.89 33.4401C443.004 33.5468 443.142 33.6321 443.306 33.6961C443.469 33.753 443.711 33.8277 444.031 33.9201C444.458 34.0339 444.806 34.1512 445.077 34.2721C445.354 34.3859 445.592 34.5565 445.791 34.7841C445.99 35.0117 446.093 35.3139 446.101 35.6908C446.101 36.025 446.008 36.3237 445.823 36.5868C445.638 36.8499 445.375 37.0561 445.034 37.2054C444.7 37.3548 444.305 37.4294 443.85 37.4294Z" fill="#6666FF"/>
<path d="M504.368 37.4081C503.87 37.4081 503.422 37.3228 503.024 37.1521C502.625 36.9743 502.312 36.7254 502.085 36.4054C501.857 36.0854 501.744 35.7121 501.744 35.2854H503.045C503.073 35.6054 503.198 35.8685 503.418 36.0748C503.646 36.281 503.962 36.3841 504.368 36.3841C504.787 36.3841 505.114 36.2845 505.349 36.0854C505.584 35.8792 505.701 35.6161 505.701 35.2961C505.701 35.0472 505.626 34.8445 505.477 34.6881C505.335 34.5317 505.153 34.4108 504.933 34.3254C504.72 34.2401 504.421 34.1477 504.037 34.0481C503.553 33.9201 503.159 33.7921 502.853 33.6641C502.554 33.529 502.298 33.3228 502.085 33.0454C501.872 32.7681 501.765 32.3983 501.765 31.9361C501.765 31.5094 501.872 31.1361 502.085 30.8161C502.298 30.4961 502.597 30.2508 502.981 30.0801C503.365 29.9094 503.809 29.8241 504.314 29.8241C505.032 29.8241 505.619 30.0054 506.074 30.3681C506.536 30.7237 506.792 31.2143 506.842 31.8401H505.498C505.477 31.5699 505.349 31.3388 505.114 31.1468C504.88 30.9548 504.57 30.8588 504.186 30.8588C503.838 30.8588 503.553 30.9477 503.333 31.1254C503.112 31.3032 503.002 31.5592 503.002 31.8934C503.002 32.121 503.07 32.3094 503.205 32.4588C503.347 32.601 503.525 32.7148 503.738 32.8001C503.952 32.8854 504.243 32.9779 504.613 33.0774C505.104 33.2125 505.502 33.3477 505.808 33.4828C506.12 33.6179 506.384 33.8277 506.597 34.1121C506.817 34.3894 506.928 34.7628 506.928 35.2321C506.928 35.609 506.824 35.9645 506.618 36.2988C506.419 36.633 506.124 36.9032 505.733 37.1094C505.349 37.3085 504.894 37.4081 504.368 37.4081ZM513.749 34.2508C513.749 34.4712 513.735 34.6703 513.706 34.8481H509.216C509.251 35.3174 509.425 35.6943 509.738 35.9788C510.051 36.2632 510.435 36.4054 510.89 36.4054C511.545 36.4054 512.007 36.1317 512.277 35.5841H513.589C513.411 36.1245 513.088 36.569 512.618 36.9174C512.156 37.2588 511.58 37.4294 510.89 37.4294C510.329 37.4294 509.824 37.305 509.376 37.0561C508.935 36.8001 508.586 36.4445 508.33 35.9894C508.081 35.5272 507.957 34.9939 507.957 34.3894C507.957 33.785 508.078 33.2552 508.32 32.8001C508.569 32.3379 508.913 31.9823 509.354 31.7334C509.802 31.4845 510.314 31.3601 510.89 31.3601C511.445 31.3601 511.939 31.481 512.373 31.7228C512.807 31.9645 513.145 32.3059 513.386 32.7468C513.628 33.1805 513.749 33.6819 513.749 34.2508ZM512.48 33.8668C512.473 33.4188 512.313 33.0597 512 32.7894C511.687 32.5192 511.299 32.3841 510.837 32.3841C510.417 32.3841 510.058 32.5192 509.76 32.7894C509.461 33.0525 509.283 33.4117 509.226 33.8668H512.48ZM514.54 34.3681C514.54 33.7779 514.661 33.2552 514.903 32.8001C515.152 32.345 515.486 31.993 515.906 31.7441C516.332 31.4881 516.802 31.3601 517.314 31.3601C517.776 31.3601 518.178 31.4525 518.519 31.6374C518.867 31.8152 519.145 32.0392 519.351 32.3094V31.4561H520.578V37.3334H519.351V36.4588C519.145 36.7361 518.864 36.9672 518.508 37.1521C518.153 37.337 517.747 37.4294 517.292 37.4294C516.787 37.4294 516.325 37.3014 515.906 37.0454C515.486 36.7823 515.152 36.4197 514.903 35.9574C514.661 35.4881 514.54 34.9583 514.54 34.3681ZM519.351 34.3894C519.351 33.9841 519.266 33.6321 519.095 33.3334C518.931 33.0348 518.715 32.8072 518.444 32.6508C518.174 32.4943 517.883 32.4161 517.57 32.4161C517.257 32.4161 516.965 32.4943 516.695 32.6508C516.425 32.8001 516.204 33.0241 516.034 33.3228C515.87 33.6143 515.788 33.9628 515.788 34.3681C515.788 34.7734 515.87 35.129 516.034 35.4348C516.204 35.7405 516.425 35.9752 516.695 36.1388C516.972 36.2952 517.264 36.3734 517.57 36.3734C517.883 36.3734 518.174 36.2952 518.444 36.1388C518.715 35.9823 518.931 35.7548 519.095 35.4561C519.266 35.1503 519.351 34.7948 519.351 34.3894ZM523.391 32.3094C523.569 32.0108 523.803 31.7797 524.095 31.6161C524.394 31.4454 524.746 31.3601 525.151 31.3601V32.6188H524.842C524.365 32.6188 524.002 32.7397 523.754 32.9814C523.512 33.2232 523.391 33.6428 523.391 34.2401V37.3334H522.175V31.4561H523.391V32.3094ZM525.863 34.3894C525.863 33.785 525.984 33.2552 526.226 32.8001C526.475 32.3379 526.816 31.9823 527.25 31.7334C527.684 31.4845 528.181 31.3601 528.743 31.3601C529.454 31.3601 530.041 31.5308 530.503 31.8721C530.973 32.2063 531.289 32.6863 531.453 33.3121H530.141C530.034 33.0205 529.863 32.793 529.629 32.6294C529.394 32.4659 529.099 32.3841 528.743 32.3841C528.245 32.3841 527.847 32.5619 527.549 32.9174C527.257 33.2659 527.111 33.7565 527.111 34.3894C527.111 35.0223 527.257 35.5165 527.549 35.8721C527.847 36.2277 528.245 36.4054 528.743 36.4054C529.447 36.4054 529.913 36.0961 530.141 35.4774H531.453C531.282 36.0748 530.962 36.5512 530.493 36.9068C530.023 37.2552 529.44 37.4294 528.743 37.4294C528.181 37.4294 527.684 37.305 527.25 37.0561C526.816 36.8001 526.475 36.4445 526.226 35.9894C525.984 35.5272 525.863 34.9939 525.863 34.3894ZM535.704 31.3601C536.152 31.3601 536.551 31.4561 536.899 31.6481C537.255 31.8401 537.532 32.1245 537.731 32.5014C537.937 32.8783 538.04 33.3334 538.04 33.8668V37.3334H536.835V34.0481C536.835 33.5219 536.704 33.1201 536.44 32.8428C536.177 32.5583 535.818 32.4161 535.363 32.4161C534.908 32.4161 534.545 32.5583 534.275 32.8428C534.012 33.1201 533.88 33.5219 533.88 34.0481V37.3334H532.664V29.4401H533.88V32.1388C534.087 31.8899 534.346 31.6979 534.659 31.5628C534.979 31.4277 535.328 31.3601 535.704 31.3601ZM543.578 32.3201C543.785 32.0499 544.065 31.8223 544.421 31.6374C544.777 31.4525 545.178 31.3601 545.626 31.3601C546.138 31.3601 546.604 31.4881 547.024 31.7441C547.45 31.993 547.785 32.345 548.026 32.8001C548.268 33.2552 548.389 33.7779 548.389 34.3681C548.389 34.9583 548.268 35.4881 548.026 35.9574C547.785 36.4197 547.45 36.7823 547.024 37.0454C546.604 37.3014 546.138 37.4294 545.626 37.4294C545.178 37.4294 544.78 37.3405 544.432 37.1628C544.083 36.9779 543.799 36.7503 543.578 36.4801V40.1281H542.362V31.4561H543.578V32.3201ZM547.152 34.3681C547.152 33.9628 547.066 33.6143 546.896 33.3228C546.732 33.0241 546.512 32.8001 546.234 32.6508C545.964 32.4943 545.673 32.4161 545.36 32.4161C545.054 32.4161 544.762 32.4943 544.485 32.6508C544.215 32.8072 543.994 33.0348 543.824 33.3334C543.66 33.6321 543.578 33.9841 543.578 34.3894C543.578 34.7948 543.66 35.1503 543.824 35.4561C543.994 35.7548 544.215 35.9823 544.485 36.1388C544.762 36.2952 545.054 36.3734 545.36 36.3734C545.673 36.3734 545.964 36.2952 546.234 36.1388C546.512 35.9752 546.732 35.7405 546.896 35.4348C547.066 35.129 547.152 34.7734 547.152 34.3681ZM550.808 32.3094C550.985 32.0108 551.22 31.7797 551.512 31.6161C551.81 31.4454 552.162 31.3601 552.568 31.3601V32.6188H552.258C551.782 32.6188 551.419 32.7397 551.17 32.9814C550.928 33.2232 550.808 33.6428 550.808 34.2401V37.3334H549.592V31.4561H550.808V32.3094ZM556.235 37.4294C555.68 37.4294 555.179 37.305 554.731 37.0561C554.283 36.8001 553.931 36.4445 553.675 35.9894C553.419 35.5272 553.291 34.9939 553.291 34.3894C553.291 33.7921 553.422 33.2623 553.685 32.8001C553.948 32.3379 554.307 31.9823 554.763 31.7334C555.218 31.4845 555.726 31.3601 556.288 31.3601C556.85 31.3601 557.358 31.4845 557.813 31.7334C558.268 31.9823 558.627 32.3379 558.891 32.8001C559.154 33.2623 559.285 33.7921 559.285 34.3894C559.285 34.9868 559.15 35.5165 558.88 35.9788C558.61 36.441 558.24 36.8001 557.771 37.0561C557.308 37.305 556.796 37.4294 556.235 37.4294ZM556.235 36.3734C556.547 36.3734 556.839 36.2988 557.109 36.1494C557.387 36.0001 557.611 35.7761 557.781 35.4774C557.952 35.1788 558.037 34.8161 558.037 34.3894C558.037 33.9628 557.955 33.6037 557.792 33.3121C557.628 33.0134 557.411 32.7894 557.141 32.6401C556.871 32.4908 556.579 32.4161 556.267 32.4161C555.954 32.4161 555.662 32.4908 555.392 32.6401C555.129 32.7894 554.919 33.0134 554.763 33.3121C554.606 33.6037 554.528 33.9628 554.528 34.3894C554.528 35.0223 554.688 35.513 555.008 35.8614C555.335 36.2028 555.744 36.3734 556.235 36.3734ZM560.082 34.3681C560.082 33.7779 560.203 33.2552 560.445 32.8001C560.694 32.345 561.028 31.993 561.447 31.7441C561.874 31.4881 562.347 31.3601 562.866 31.3601C563.25 31.3601 563.627 31.4454 563.997 31.6161C564.374 31.7797 564.672 32.0001 564.893 32.2774V29.4401H566.119V37.3334H564.893V36.4481C564.694 36.7325 564.416 36.9672 564.061 37.1521C563.712 37.337 563.31 37.4294 562.855 37.4294C562.343 37.4294 561.874 37.3014 561.447 37.0454C561.028 36.7823 560.694 36.4197 560.445 35.9574C560.203 35.4881 560.082 34.9583 560.082 34.3681ZM564.893 34.3894C564.893 33.9841 564.807 33.6321 564.637 33.3334C564.473 33.0348 564.256 32.8072 563.986 32.6508C563.716 32.4943 563.424 32.4161 563.111 32.4161C562.798 32.4161 562.507 32.4943 562.237 32.6508C561.966 32.8001 561.746 33.0241 561.575 33.3228C561.412 33.6143 561.33 33.9628 561.33 34.3681C561.33 34.7734 561.412 35.129 561.575 35.4348C561.746 35.7405 561.966 35.9752 562.237 36.1388C562.514 36.2952 562.806 36.3734 563.111 36.3734C563.424 36.3734 563.716 36.2952 563.986 36.1388C564.256 35.9823 564.473 35.7548 564.637 35.4561C564.807 35.1503 564.893 34.7948 564.893 34.3894ZM573.039 31.4561V37.3334H571.823V36.6401C571.631 36.8819 571.379 37.0739 571.066 37.2161C570.76 37.3512 570.433 37.4188 570.085 37.4188C569.622 37.4188 569.206 37.3228 568.837 37.1308C568.474 36.9388 568.186 36.6543 567.973 36.2774C567.766 35.9005 567.663 35.4454 567.663 34.9121V31.4561H568.869V34.7308C568.869 35.257 569 35.6623 569.263 35.9468C569.526 36.2241 569.885 36.3628 570.341 36.3628C570.796 36.3628 571.155 36.2241 571.418 35.9468C571.688 35.6623 571.823 35.257 571.823 34.7308V31.4561H573.039ZM574.238 34.3894C574.238 33.785 574.359 33.2552 574.601 32.8001C574.85 32.3379 575.191 31.9823 575.625 31.7334C576.059 31.4845 576.556 31.3601 577.118 31.3601C577.829 31.3601 578.416 31.5308 578.878 31.8721C579.348 32.2063 579.664 32.6863 579.828 33.3121H578.516C578.409 33.0205 578.238 32.793 578.004 32.6294C577.769 32.4659 577.474 32.3841 577.118 32.3841C576.62 32.3841 576.222 32.5619 575.924 32.9174C575.632 33.2659 575.486 33.7565 575.486 34.3894C575.486 35.0223 575.632 35.5165 575.924 35.8721C576.222 36.2277 576.62 36.4054 577.118 36.4054C577.822 36.4054 578.288 36.0961 578.516 35.4774H579.828C579.657 36.0748 579.337 36.5512 578.868 36.9068C578.398 37.2552 577.815 37.4294 577.118 37.4294C576.556 37.4294 576.059 37.305 575.625 37.0561C575.191 36.8001 574.85 36.4445 574.601 35.9894C574.359 35.5272 574.238 34.9939 574.238 34.3894ZM582.458 32.4481V35.7014C582.458 35.9219 582.508 36.0819 582.607 36.1814C582.714 36.2739 582.892 36.3201 583.141 36.3201H583.887V37.3334H582.927C582.38 37.3334 581.96 37.2054 581.669 36.9494C581.377 36.6934 581.231 36.2774 581.231 35.7014V32.4481H580.538V31.4561H581.231V29.9948H582.458V31.4561H583.887V32.4481H582.458Z" fill="#A5A5A5"/>
<g clip-path="url(#clip1_206_245)">
<path d="M1143.95 60.3334C1129.64 60.3334 1118 48.6931 1118 34.2857C1118 19.8784 1129.64 8.33344 1143.95 8.33344C1158.26 8.33344 1169.9 19.9738 1169.9 34.2857C1169.9 48.5977 1158.36 60.3334 1143.95 60.3334ZM1143.95 10.7188C1130.98 10.7188 1120.39 21.3096 1120.39 34.2857C1120.39 47.2619 1130.98 57.9481 1143.95 57.9481C1156.93 57.9481 1167.61 47.3573 1167.61 34.2857C1167.61 21.2142 1157.02 10.7188 1143.95 10.7188Z" fill="#E0E0FF"/>
<path d="M1156.26 33.6179V31.2326C1156.26 30.5647 1155.78 30.0876 1155.12 30.0876H1155.02H1154.92V34.7629C1156.26 34.7629 1156.26 33.6179 1156.26 33.6179Z" fill="#E0E0FF"/>
<path d="M1149.49 21.405H1138.04C1135.27 21.405 1132.98 23.6949 1132.98 26.4619V34.6674C1132.98 37.4344 1135.27 39.7243 1138.04 39.7243H1149.49C1152.25 39.7243 1154.54 37.4344 1154.54 34.6674V26.4619C1154.54 23.5995 1152.25 21.405 1149.49 21.405ZM1137.65 34.7628C1136.61 34.7628 1135.65 33.9041 1135.65 32.7592C1135.65 31.7096 1136.51 30.7555 1137.65 30.7555C1138.8 30.7555 1139.66 31.6142 1139.66 32.7592C1139.66 33.9041 1138.8 34.7628 1137.65 34.7628ZM1140.33 30.2784C1139.47 30.0876 1138.61 29.9922 1137.75 29.9922C1136.99 29.9922 1136.22 30.0876 1135.56 30.2784C1135.46 30.2784 1135.37 30.3738 1135.27 30.3738C1135.17 30.3738 1135.08 30.4693 1134.98 30.4693C1134.89 30.4693 1134.79 30.4693 1134.7 30.4693L1134.6 30.3738C1134.6 30.183 1134.79 30.0876 1134.98 29.9922C1135.27 29.8014 1135.65 29.7059 1136.13 29.6105C1136.89 29.4197 1137.65 29.4197 1138.42 29.4197C1138.8 29.4197 1139.28 29.4197 1139.66 29.5151C1139.85 29.5151 1139.94 29.6105 1140.04 29.7059C1140.14 29.8014 1140.14 29.8968 1140.14 29.9922C1140.42 29.9922 1140.42 30.0876 1140.33 30.2784C1140.42 30.2784 1140.42 30.2784 1140.33 30.2784ZM1143.86 35.6215H1143L1143.76 32.0913V31.9959V32.0913L1144.52 35.6215H1143.86ZM1150.06 34.7628C1149.01 34.7628 1148.05 33.9041 1148.05 32.7592C1148.05 31.7096 1148.91 30.7555 1150.06 30.7555C1151.2 30.7555 1152.06 31.6142 1152.06 32.7592C1152.06 33.9041 1151.11 34.7628 1150.06 34.7628ZM1152.83 30.4693C1152.73 30.5647 1152.63 30.5647 1152.54 30.4693C1152.44 30.4693 1152.35 30.3738 1152.25 30.3738C1152.16 30.3738 1152.06 30.2784 1151.97 30.2784C1151.3 30.0876 1150.54 29.9922 1149.77 29.9922C1148.91 29.9922 1148.05 30.0876 1147.29 30.2784C1147.29 30.2784 1147.29 30.2784 1147.29 30.183C1147.29 30.0876 1147.29 29.8968 1147.29 29.8014C1147.29 29.7059 1147.39 29.6105 1147.39 29.5151C1147.48 29.4197 1147.67 29.4197 1147.77 29.3243C1148.15 29.2289 1148.53 29.2289 1149.01 29.2289C1149.77 29.2289 1150.54 29.3243 1151.3 29.4197C1151.68 29.5151 1152.06 29.6105 1152.44 29.8014C1152.63 29.8968 1152.83 30.0876 1152.83 30.183C1152.92 30.3738 1152.92 30.3738 1152.83 30.4693Z" fill="#E0E0FF"/>
<path d="M1132.6 30.183C1131.93 30.183 1131.45 30.6601 1131.45 31.328V33.7133C1131.45 33.7133 1131.45 34.7629 1132.79 34.8583V30.183H1132.6Z" fill="#E0E0FF"/>
<path d="M1153.78 42.8729L1152.16 41.5371L1150.44 40.0105H1149.2H1144.05H1143.95H1138.8H1137.56L1135.84 41.5371L1134.22 42.8729C1134.12 42.9683 1133.93 43.1591 1133.93 43.2545C1133.65 43.7316 1133.65 44.3995 1134.03 44.8766L1134.89 45.9261H1143.86H1143.95H1152.92L1153.78 44.8766C1154.16 44.3995 1154.26 43.7316 1153.88 43.2545C1153.97 43.1591 1153.88 42.9683 1153.78 42.8729Z" fill="#E0E0FF"/>
</g>
<g clip-path="url(#clip2_206_245)">
<path d="M890.123 25.9527C887.271 22.9765 882.312 22.7384 879.337 25.5955C876.361 28.4527 876.113 33.0955 878.965 35.9527C881.444 38.5717 885.536 39.0479 888.635 37.1431C890.867 39.405 893.098 41.6669 895.33 43.9289C896.694 45.3574 898.925 43.3336 897.562 41.905C895.33 39.6431 893.098 37.3812 890.867 35.1193C892.85 32.3812 892.602 28.4527 890.123 25.9527ZM888.139 34.6431C886.032 36.6669 882.684 36.5479 880.577 34.405C878.469 32.2622 878.717 29.1669 880.824 27.1431C882.932 25.1193 886.404 25.3574 888.387 27.3812C890.371 29.405 890.371 32.7384 888.139 34.6431Z" fill="#E0E0FF"/>
</g>
<path d="M0.666504 132.333C0.666504 113.924 15.5903 99.0001 33.9998 99.0001H1138C1156.41 99.0001 1171.33 113.924 1171.33 132.333V160.333H0.666504V132.333Z" fill="#363F4D"/>
<path d="M60.0602 134.16C61.6869 134.16 63.0335 133.573 63.9135 132.493L62.5269 131.213C61.9002 131.947 61.1135 132.32 60.1802 132.32C58.4335 132.32 57.1935 131.093 57.1935 129.333C57.1935 127.573 58.4335 126.347 60.1802 126.347C61.1135 126.347 61.9002 126.72 62.5269 127.44L63.9135 126.16C63.0335 125.093 61.6869 124.507 60.0735 124.507C57.1669 124.507 55.0069 126.52 55.0069 129.333C55.0069 132.147 57.1669 134.16 60.0602 134.16ZM68.0668 126.72C66.9201 126.72 65.7601 127.027 64.9734 127.587L65.7201 129.04C66.2401 128.627 67.0268 128.373 67.7868 128.373C68.9068 128.373 69.4401 128.893 69.4401 129.787H67.7868C65.6001 129.787 64.7068 130.667 64.7068 131.933C64.7068 133.173 65.7068 134.107 67.3868 134.107C68.4401 134.107 69.1868 133.76 69.5734 133.107V134H71.5201V129.907C71.5201 127.733 70.2534 126.72 68.0668 126.72ZM67.9068 132.707C67.1734 132.707 66.7334 132.36 66.7334 131.84C66.7334 131.36 67.0401 131 68.0134 131H69.4401V131.733C69.2001 132.387 68.6001 132.707 67.9068 132.707ZM77.4693 132.187C77.2426 132.36 76.9359 132.453 76.6293 132.453C76.0693 132.453 75.7359 132.12 75.7359 131.507V128.587H77.5226V126.987H75.7359V125.24H73.6559V126.987H72.5493V128.587H73.6559V131.533C73.6559 133.24 74.6426 134.107 76.3359 134.107C76.9759 134.107 77.6026 133.96 78.0293 133.653L77.4693 132.187ZM86.0022 130.44C86.0022 128.133 84.3755 126.72 82.2688 126.72C80.0822 126.72 78.4422 128.267 78.4422 130.413C78.4422 132.547 80.0555 134.107 82.5355 134.107C83.8288 134.107 84.8288 133.707 85.4955 132.947L84.3888 131.747C83.8955 132.213 83.3488 132.44 82.5888 132.44C81.4955 132.44 80.7355 131.893 80.5355 131H85.9622C85.9755 130.827 86.0022 130.6 86.0022 130.44ZM82.2822 128.293C83.2155 128.293 83.8955 128.88 84.0422 129.787H80.5088C80.6555 128.867 81.3355 128.293 82.2822 128.293ZM92.8136 126.827V127.747C92.267 127.053 91.4403 126.72 90.4403 126.72C88.4536 126.72 86.8536 128.093 86.8536 130.187C86.8536 132.28 88.4536 133.653 90.4403 133.653C91.3736 133.653 92.1603 133.36 92.707 132.76V133.067C92.707 134.36 92.067 135.027 90.6003 135.027C89.6803 135.027 88.6803 134.707 88.067 134.213L87.2403 135.707C88.0803 136.36 89.4003 136.693 90.7603 136.693C93.347 136.693 94.787 135.467 94.787 132.8V126.827H92.8136ZM90.8536 131.947C89.7603 131.947 88.9603 131.24 88.9603 130.187C88.9603 129.133 89.7603 128.427 90.8536 128.427C91.947 128.427 92.7336 129.133 92.7336 130.187C92.7336 131.24 91.947 131.947 90.8536 131.947ZM100.136 134.107C102.416 134.107 104.07 132.573 104.07 130.413C104.07 128.253 102.416 126.72 100.136 126.72C97.8562 126.72 96.1896 128.253 96.1896 130.413C96.1896 132.573 97.8562 134.107 100.136 134.107ZM100.136 132.4C99.0962 132.4 98.2962 131.653 98.2962 130.413C98.2962 129.173 99.0962 128.427 100.136 128.427C101.176 128.427 101.963 129.173 101.963 130.413C101.963 131.653 101.176 132.4 100.136 132.4ZM107.447 127.773V126.827H105.46V134H107.54V130.613C107.54 129.24 108.3 128.613 109.447 128.613C109.607 128.613 109.74 128.627 109.913 128.64V126.72C108.807 126.72 107.953 127.08 107.447 127.773ZM110.977 125.907H112.603L115.017 123.987H112.777L110.977 125.907ZM111.15 134H113.23V126.827H111.15V134ZM118.054 126.72C116.907 126.72 115.747 127.027 114.96 127.587L115.707 129.04C116.227 128.627 117.014 128.373 117.774 128.373C118.894 128.373 119.427 128.893 119.427 129.787H117.774C115.587 129.787 114.694 130.667 114.694 131.933C114.694 133.173 115.694 134.107 117.374 134.107C118.427 134.107 119.174 133.76 119.56 133.107V134H121.507V129.907C121.507 127.733 120.24 126.72 118.054 126.72ZM117.894 132.707C117.16 132.707 116.72 132.36 116.72 131.84C116.72 131.36 117.027 131 118 131H119.427V131.733C119.187 132.387 118.587 132.707 117.894 132.707ZM125.803 134.107C127.95 134.107 129.19 133.16 129.19 131.827C129.19 129 124.856 130.187 124.856 128.96C124.856 128.587 125.256 128.293 126.19 128.293C126.843 128.293 127.55 128.427 128.256 128.827L128.95 127.347C128.27 126.947 127.176 126.72 126.19 126.72C124.096 126.72 122.87 127.68 122.87 129.04C122.87 131.907 127.203 130.707 127.203 131.88C127.203 132.28 126.843 132.533 125.883 132.533C125.003 132.533 124.03 132.253 123.39 131.84L122.696 133.333C123.363 133.773 124.59 134.107 125.803 134.107Z" fill="white"/>
<path d="M773.804 124.667V131.627L768.204 124.667H767.111V134H768.444V127.04L774.044 134H775.137V124.667H773.804ZM783.051 126.933V130.587C783.051 132.107 782.198 132.933 780.864 132.933C779.651 132.933 778.958 132.24 778.958 130.853V126.933H777.678V131C777.678 133.08 778.891 134.08 780.718 134.08C781.718 134.08 782.598 133.667 783.118 132.933V134H784.331V126.933H783.051ZM793.155 130.507C793.155 128.333 791.701 126.867 789.661 126.867C787.621 126.867 786.115 128.373 786.115 130.467C786.115 132.573 787.635 134.08 789.915 134.08C791.088 134.08 792.061 133.68 792.701 132.933L791.995 132.107C791.475 132.68 790.781 132.96 789.955 132.96C788.555 132.96 787.555 132.133 787.395 130.893H793.128C793.141 130.773 793.155 130.613 793.155 130.507ZM789.661 127.947C790.901 127.947 791.795 128.787 791.928 129.973H787.395C787.528 128.773 788.435 127.947 789.661 127.947ZM799.802 126.933L797.322 132.6L794.895 126.933H793.562L796.655 134H797.962L801.055 126.933H799.802ZM804.602 126.867C803.468 126.867 802.415 127.187 801.682 127.773L802.215 128.733C802.762 128.267 803.615 127.973 804.455 127.973C805.722 127.973 806.348 128.6 806.348 129.68V129.933H804.322C802.215 129.933 801.482 130.867 801.482 132C801.482 133.227 802.495 134.08 804.095 134.08C805.202 134.08 805.988 133.707 806.415 133.067V134H807.628V129.733C807.628 127.8 806.535 126.867 804.602 126.867ZM804.308 133.093C803.335 133.093 802.748 132.653 802.748 131.947C802.748 131.347 803.108 130.853 804.375 130.853H806.348V131.84C806.028 132.653 805.268 133.093 804.308 133.093ZM816.658 134.08C817.924 134.08 818.978 133.547 819.538 132.56L818.564 131.947C818.111 132.64 817.418 132.96 816.644 132.96C815.258 132.96 814.218 132 814.218 130.467C814.218 128.96 815.258 127.987 816.644 127.987C817.418 127.987 818.111 128.307 818.564 129L819.538 128.373C818.978 127.387 817.924 126.867 816.658 126.867C814.484 126.867 812.924 128.36 812.924 130.467C812.924 132.573 814.484 134.08 816.658 134.08ZM824.117 134.08C826.237 134.08 827.784 132.573 827.784 130.467C827.784 128.36 826.237 126.867 824.117 126.867C821.997 126.867 820.437 128.36 820.437 130.467C820.437 132.573 821.997 134.08 824.117 134.08ZM824.117 132.96C822.757 132.96 821.731 131.973 821.731 130.467C821.731 128.96 822.757 127.987 824.117 127.987C825.477 127.987 826.491 128.96 826.491 130.467C826.491 131.973 825.477 132.96 824.117 132.96ZM829.554 134H830.834V124.107H829.554V134ZM839.665 130.507C839.665 128.333 838.212 126.867 836.172 126.867C834.132 126.867 832.625 128.373 832.625 130.467C832.625 132.573 834.145 134.08 836.425 134.08C837.598 134.08 838.572 133.68 839.212 132.933L838.505 132.107C837.985 132.68 837.292 132.96 836.465 132.96C835.065 132.96 834.065 132.133 833.905 130.893H839.638C839.652 130.773 839.665 130.613 839.665 130.507ZM836.172 127.947C837.412 127.947 838.305 128.787 838.438 129.973H833.905C834.038 128.773 834.945 127.947 836.172 127.947ZM844.522 134.08C845.789 134.08 846.842 133.547 847.402 132.56L846.429 131.947C845.976 132.64 845.282 132.96 844.509 132.96C843.122 132.96 842.082 132 842.082 130.467C842.082 128.96 843.122 127.987 844.509 127.987C845.282 127.987 845.976 128.307 846.429 129L847.402 128.373C846.842 127.387 845.789 126.867 844.522 126.867C842.349 126.867 840.789 128.36 840.789 130.467C840.789 132.573 842.349 134.08 844.522 134.08ZM852.035 134.08C853.302 134.08 854.355 133.547 854.915 132.56L853.942 131.947C853.489 132.64 852.795 132.96 852.022 132.96C850.635 132.96 849.595 132 849.595 130.467C849.595 128.96 850.635 127.987 852.022 127.987C852.795 127.987 853.489 128.307 853.942 129L854.915 128.373C854.355 127.387 853.302 126.867 852.035 126.867C849.862 126.867 848.302 128.36 848.302 130.467C848.302 132.573 849.862 134.08 852.035 134.08ZM857.213 125.573C857.719 125.573 858.079 125.2 858.079 124.72C858.079 124.267 857.706 123.907 857.213 123.907C856.719 123.907 856.346 124.28 856.346 124.747C856.346 125.213 856.719 125.573 857.213 125.573ZM856.573 134H857.853V126.933H856.573V134ZM862.31 125.907H863.51L865.75 124.173H864.123L862.31 125.907ZM863.323 134.08C865.443 134.08 866.99 132.573 866.99 130.467C866.99 128.36 865.443 126.867 863.323 126.867C861.203 126.867 859.643 128.36 859.643 130.467C859.643 132.573 861.203 134.08 863.323 134.08ZM863.323 132.96C861.963 132.96 860.937 131.973 860.937 130.467C860.937 128.96 861.963 127.987 863.323 127.987C864.683 127.987 865.697 128.96 865.697 130.467C865.697 131.973 864.683 132.96 863.323 132.96ZM872.533 126.867C871.413 126.867 870.507 127.28 869.987 128V126.933H868.76V134H870.04V130.36C870.04 128.827 870.92 128.013 872.28 128.013C873.493 128.013 874.187 128.693 874.187 130.08V134H875.467V129.933C875.467 127.853 874.253 126.867 872.533 126.867Z" fill="white"/>
<path d="M184.525 134H188.458C191.458 134 193.498 132.107 193.498 129.333C193.498 126.56 191.458 124.667 188.458 124.667H184.525V134ZM185.858 132.84V125.827H188.378C190.685 125.827 192.165 127.24 192.165 129.333C192.165 131.427 190.685 132.84 188.378 132.84H185.858ZM201.741 130.507C201.741 128.333 200.287 126.867 198.247 126.867C196.207 126.867 194.701 128.373 194.701 130.467C194.701 132.573 196.221 134.08 198.501 134.08C199.674 134.08 200.647 133.68 201.287 132.933L200.581 132.107C200.061 132.68 199.367 132.96 198.541 132.96C197.141 132.96 196.141 132.133 195.981 130.893H201.714C201.727 130.773 201.741 130.613 201.741 130.507ZM198.247 127.947C199.487 127.947 200.381 128.787 200.514 129.973H195.981C196.114 128.773 197.021 127.947 198.247 127.947ZM205.545 134.08C207.425 134.08 208.598 133.267 208.598 131.987C208.598 129.24 204.118 130.6 204.118 128.933C204.118 128.373 204.665 127.96 205.785 127.96C206.478 127.96 207.185 128.107 207.825 128.52L208.371 127.507C207.758 127.107 206.718 126.867 205.798 126.867C203.985 126.867 202.851 127.72 202.851 128.987C202.851 131.8 207.318 130.427 207.318 132.013C207.318 132.613 206.825 132.973 205.638 132.973C204.718 132.973 203.758 132.667 203.158 132.24L202.625 133.253C203.211 133.72 204.371 134.08 205.545 134.08ZM213.771 132.667C213.504 132.88 213.144 133 212.771 133C212.064 133 211.664 132.573 211.664 131.813V127.987H213.691V126.933H211.664V125.387H210.384V126.933H209.184V127.987H210.384V131.867C210.384 133.293 211.198 134.08 212.624 134.08C213.198 134.08 213.784 133.92 214.171 133.587L213.771 132.667ZM218.292 126.867C217.158 126.867 216.105 127.187 215.372 127.773L215.905 128.733C216.452 128.267 217.305 127.973 218.145 127.973C219.412 127.973 220.038 128.6 220.038 129.68V129.933H218.012C215.905 129.933 215.172 130.867 215.172 132C215.172 133.227 216.185 134.08 217.785 134.08C218.892 134.08 219.678 133.707 220.105 133.067V134H221.318V129.733C221.318 127.8 220.225 126.867 218.292 126.867ZM217.998 133.093C217.025 133.093 216.438 132.653 216.438 131.947C216.438 131.347 216.798 130.853 218.065 130.853H220.038V131.84C219.718 132.653 218.958 133.093 217.998 133.093ZM226.806 134.08C228.073 134.08 229.126 133.547 229.686 132.56L228.713 131.947C228.26 132.64 227.566 132.96 226.793 132.96C225.406 132.96 224.366 132 224.366 130.467C224.366 128.96 225.406 127.987 226.793 127.987C227.566 127.987 228.26 128.307 228.713 129L229.686 128.373C229.126 127.387 228.073 126.867 226.806 126.867C224.633 126.867 223.073 128.36 223.073 130.467C223.073 132.573 224.633 134.08 226.806 134.08ZM233.917 126.867C232.783 126.867 231.73 127.187 230.997 127.773L231.53 128.733C232.077 128.267 232.93 127.973 233.77 127.973C235.037 127.973 235.663 128.6 235.663 129.68V129.933H233.637C231.53 129.933 230.797 130.867 230.797 132C230.797 133.227 231.81 134.08 233.41 134.08C234.517 134.08 235.303 133.707 235.73 133.067V134H236.943V129.733C236.943 127.8 235.85 126.867 233.917 126.867ZM233.623 133.093C232.65 133.093 232.063 132.653 232.063 131.947C232.063 131.347 232.423 130.853 233.69 130.853H235.663V131.84C235.343 132.653 234.583 133.093 233.623 133.093ZM244.738 124.107V128C244.151 127.24 243.271 126.867 242.271 126.867C240.205 126.867 238.698 128.307 238.698 130.467C238.698 132.627 240.205 134.08 242.271 134.08C243.311 134.08 244.218 133.68 244.791 132.88V134H246.018V124.107H244.738ZM242.378 132.96C241.018 132.96 239.991 131.973 239.991 130.467C239.991 128.96 241.018 127.987 242.378 127.987C243.725 127.987 244.751 128.96 244.751 130.467C244.751 131.973 243.725 132.96 242.378 132.96ZM251.013 126.867C249.88 126.867 248.826 127.187 248.093 127.773L248.626 128.733C249.173 128.267 250.026 127.973 250.866 127.973C252.133 127.973 252.76 128.6 252.76 129.68V129.933H250.733C248.626 129.933 247.893 130.867 247.893 132C247.893 133.227 248.906 134.08 250.506 134.08C251.613 134.08 252.4 133.707 252.826 133.067V134H254.04V129.733C254.04 127.8 252.946 126.867 251.013 126.867ZM250.72 133.093C249.746 133.093 249.16 132.653 249.16 131.947C249.16 131.347 249.52 130.853 250.786 130.853H252.76V131.84C252.44 132.653 251.68 133.093 250.72 133.093ZM258.435 134.08C260.315 134.08 261.489 133.267 261.489 131.987C261.489 129.24 257.009 130.6 257.009 128.933C257.009 128.373 257.555 127.96 258.675 127.96C259.369 127.96 260.075 128.107 260.715 128.52L261.262 127.507C260.649 127.107 259.609 126.867 258.689 126.867C256.875 126.867 255.742 127.72 255.742 128.987C255.742 131.8 260.209 130.427 260.209 132.013C260.209 132.613 259.715 132.973 258.529 132.973C257.609 132.973 256.649 132.667 256.049 132.24L255.515 133.253C256.102 133.72 257.262 134.08 258.435 134.08Z" fill="white"/>
<path d="M326.861 134L326.847 124.667H325.754L321.914 131.227L318.021 124.667H316.927V134H318.207V127.24L321.581 132.867H322.194L325.567 127.2L325.581 134H326.861ZM334.582 124.173H332.955L331.142 125.907H332.342L334.582 124.173ZM332.048 126.867C330.915 126.867 329.862 127.187 329.128 127.773L329.662 128.733C330.208 128.267 331.062 127.973 331.902 127.973C333.168 127.973 333.795 128.6 333.795 129.68V129.933H331.768C329.662 129.933 328.928 130.867 328.928 132C328.928 133.227 329.942 134.08 331.542 134.08C332.648 134.08 333.435 133.707 333.862 133.067V134H335.075V129.733C335.075 127.8 333.982 126.867 332.048 126.867ZM331.755 133.093C330.782 133.093 330.195 132.653 330.195 131.947C330.195 131.347 330.555 130.853 331.822 130.853H333.795V131.84C333.475 132.653 332.715 133.093 331.755 133.093ZM339.47 134.08C341.35 134.08 342.524 133.267 342.524 131.987C342.524 129.24 338.044 130.6 338.044 128.933C338.044 128.373 338.59 127.96 339.71 127.96C340.404 127.96 341.11 128.107 341.75 128.52L342.297 127.507C341.684 127.107 340.644 126.867 339.724 126.867C337.91 126.867 336.777 127.72 336.777 128.987C336.777 131.8 341.244 130.427 341.244 132.013C341.244 132.613 340.75 132.973 339.564 132.973C338.644 132.973 337.684 132.667 337.084 132.24L336.55 133.253C337.137 133.72 338.297 134.08 339.47 134.08ZM351.451 126.867C350.451 126.867 349.571 127.24 348.984 128V124.107H347.704V134H348.931V132.88C349.504 133.68 350.411 134.08 351.451 134.08C353.517 134.08 355.024 132.627 355.024 130.467C355.024 128.307 353.517 126.867 351.451 126.867ZM351.344 132.96C349.997 132.96 348.971 131.973 348.971 130.467C348.971 128.96 349.997 127.987 351.344 127.987C352.704 127.987 353.731 128.96 353.731 130.467C353.731 131.973 352.704 132.96 351.344 132.96ZM362.099 126.933V130.587C362.099 132.107 361.246 132.933 359.913 132.933C358.699 132.933 358.006 132.24 358.006 130.853V126.933H356.726V131C356.726 133.08 357.939 134.08 359.766 134.08C360.766 134.08 361.646 133.667 362.166 132.933V134H363.379V126.933H362.099ZM367.843 134.08C369.723 134.08 370.896 133.267 370.896 131.987C370.896 129.24 366.416 130.6 366.416 128.933C366.416 128.373 366.963 127.96 368.083 127.96C368.776 127.96 369.483 128.107 370.123 128.52L370.669 127.507C370.056 127.107 369.016 126.867 368.096 126.867C366.283 126.867 365.149 127.72 365.149 128.987C365.149 131.8 369.616 130.427 369.616 132.013C369.616 132.613 369.123 132.973 367.936 132.973C367.016 132.973 366.056 132.667 365.456 132.24L364.923 133.253C365.509 133.72 366.669 134.08 367.843 134.08ZM375.576 134.08C376.842 134.08 377.896 133.547 378.456 132.56L377.482 131.947C377.029 132.64 376.336 132.96 375.562 132.96C374.176 132.96 373.136 132 373.136 130.467C373.136 128.96 374.176 127.987 375.562 127.987C376.336 127.987 377.029 128.307 377.482 129L378.456 128.373C377.896 127.387 376.842 126.867 375.576 126.867C373.402 126.867 371.842 128.36 371.842 130.467C371.842 132.573 373.402 134.08 375.576 134.08ZM382.686 126.867C381.553 126.867 380.5 127.187 379.766 127.773L380.3 128.733C380.846 128.267 381.7 127.973 382.54 127.973C383.806 127.973 384.433 128.6 384.433 129.68V129.933H382.406C380.3 129.933 379.566 130.867 379.566 132C379.566 133.227 380.58 134.08 382.18 134.08C383.286 134.08 384.073 133.707 384.5 133.067V134H385.713V129.733C385.713 127.8 384.62 126.867 382.686 126.867ZM382.393 133.093C381.42 133.093 380.833 132.653 380.833 131.947C380.833 131.347 381.193 130.853 382.46 130.853H384.433V131.84C384.113 132.653 383.353 133.093 382.393 133.093ZM393.507 124.107V128C392.921 127.24 392.041 126.867 391.041 126.867C388.974 126.867 387.467 128.307 387.467 130.467C387.467 132.627 388.974 134.08 391.041 134.08C392.081 134.08 392.987 133.68 393.561 132.88V134H394.787V124.107H393.507ZM391.147 132.96C389.787 132.96 388.761 131.973 388.761 130.467C388.761 128.96 389.787 127.987 391.147 127.987C392.494 127.987 393.521 128.96 393.521 130.467C393.521 131.973 392.494 132.96 391.147 132.96ZM400.236 134.08C402.356 134.08 403.903 132.573 403.903 130.467C403.903 128.36 402.356 126.867 400.236 126.867C398.116 126.867 396.556 128.36 396.556 130.467C396.556 132.573 398.116 134.08 400.236 134.08ZM400.236 132.96C398.876 132.96 397.849 131.973 397.849 130.467C397.849 128.96 398.876 127.987 400.236 127.987C401.596 127.987 402.609 128.96 402.609 130.467C402.609 131.973 401.596 132.96 400.236 132.96ZM407.7 134.08C409.58 134.08 410.753 133.267 410.753 131.987C410.753 129.24 406.273 130.6 406.273 128.933C406.273 128.373 406.82 127.96 407.94 127.96C408.633 127.96 409.34 128.107 409.98 128.52L410.526 127.507C409.913 127.107 408.873 126.867 407.953 126.867C406.14 126.867 405.006 127.72 405.006 128.987C405.006 131.8 409.473 130.427 409.473 132.013C409.473 132.613 408.98 132.973 407.793 132.973C406.873 132.973 405.913 132.667 405.313 132.24L404.78 133.253C405.366 133.72 406.526 134.08 407.7 134.08Z" fill="white"/>
<path d="M469.127 124.667H465.487V134H466.82V131.173H469.127C471.554 131.173 473.02 129.947 473.02 127.92C473.02 125.893 471.554 124.667 469.127 124.667ZM469.087 130.013H466.82V125.827H469.087C470.794 125.827 471.687 126.587 471.687 127.92C471.687 129.253 470.794 130.013 469.087 130.013ZM475.902 128.12V126.933H474.675V134H475.955V130.48C475.955 128.933 476.809 128.093 478.182 128.093C478.275 128.093 478.369 128.093 478.475 128.107V126.867C477.235 126.867 476.355 127.293 475.902 128.12ZM486.375 130.507C486.375 128.333 484.921 126.867 482.881 126.867C480.841 126.867 479.335 128.373 479.335 130.467C479.335 132.573 480.855 134.08 483.135 134.08C484.308 134.08 485.281 133.68 485.921 132.933L485.215 132.107C484.695 132.68 484.001 132.96 483.175 132.96C481.775 132.96 480.775 132.133 480.615 130.893H486.348C486.361 130.773 486.375 130.613 486.375 130.507ZM482.881 127.947C484.121 127.947 485.015 128.787 485.148 129.973H480.615C480.748 128.773 481.655 127.947 482.881 127.947ZM491.232 134.08C492.499 134.08 493.552 133.547 494.112 132.56L493.139 131.947C492.685 132.64 491.992 132.96 491.219 132.96C489.832 132.96 488.792 132 488.792 130.467C488.792 128.96 489.832 127.987 491.219 127.987C491.992 127.987 492.685 128.307 493.139 129L494.112 128.373C493.552 127.387 492.499 126.867 491.232 126.867C489.059 126.867 487.499 128.36 487.499 130.467C487.499 132.573 489.059 134.08 491.232 134.08ZM496.409 125.573C496.916 125.573 497.276 125.2 497.276 124.72C497.276 124.267 496.902 123.907 496.409 123.907C495.916 123.907 495.542 124.28 495.542 124.747C495.542 125.213 495.916 125.573 496.409 125.573ZM495.769 134H497.049V126.933H495.769V134ZM502.52 134.08C504.64 134.08 506.186 132.573 506.186 130.467C506.186 128.36 504.64 126.867 502.52 126.867C500.4 126.867 498.84 128.36 498.84 130.467C498.84 132.573 500.4 134.08 502.52 134.08ZM502.52 132.96C501.16 132.96 500.133 131.973 500.133 130.467C500.133 128.96 501.16 127.987 502.52 127.987C503.88 127.987 504.893 128.96 504.893 130.467C504.893 131.973 503.88 132.96 502.52 132.96ZM509.983 134.08C511.863 134.08 513.037 133.267 513.037 131.987C513.037 129.24 508.557 130.6 508.557 128.933C508.557 128.373 509.103 127.96 510.223 127.96C510.917 127.96 511.623 128.107 512.263 128.52L512.81 127.507C512.197 127.107 511.157 126.867 510.237 126.867C508.423 126.867 507.29 127.72 507.29 128.987C507.29 131.8 511.757 130.427 511.757 132.013C511.757 132.613 511.263 132.973 510.077 132.973C509.157 132.973 508.197 132.667 507.597 132.24L507.063 133.253C507.65 133.72 508.81 134.08 509.983 134.08ZM527.057 126.867C525.857 126.867 524.87 127.373 524.337 128.173C523.87 127.293 522.964 126.867 521.884 126.867C520.817 126.867 519.95 127.267 519.444 127.987V126.933H518.217V134H519.497V130.36C519.497 128.827 520.337 128.013 521.617 128.013C522.777 128.013 523.444 128.693 523.444 130.08V134H524.724V130.36C524.724 128.827 525.564 128.013 526.844 128.013C528.004 128.013 528.67 128.693 528.67 130.08V134H529.95V129.933C529.95 127.853 528.777 126.867 527.057 126.867ZM537.412 124.173H535.786L533.972 125.907H535.172L537.412 124.173ZM534.879 126.867C533.746 126.867 532.692 127.187 531.959 127.773L532.492 128.733C533.039 128.267 533.892 127.973 534.732 127.973C535.999 127.973 536.626 128.6 536.626 129.68V129.933H534.599C532.492 129.933 531.759 130.867 531.759 132C531.759 133.227 532.772 134.08 534.372 134.08C535.479 134.08 536.266 133.707 536.692 133.067V134H537.906V129.733C537.906 127.8 536.812 126.867 534.879 126.867ZM534.586 133.093C533.612 133.093 533.026 132.653 533.026 131.947C533.026 131.347 533.386 130.853 534.652 130.853H536.626V131.84C536.306 132.653 535.546 133.093 534.586 133.093ZM542.301 134.08C544.181 134.08 545.354 133.267 545.354 131.987C545.354 129.24 540.874 130.6 540.874 128.933C540.874 128.373 541.421 127.96 542.541 127.96C543.234 127.96 543.941 128.107 544.581 128.52L545.128 127.507C544.514 127.107 543.474 126.867 542.554 126.867C540.741 126.867 539.608 127.72 539.608 128.987C539.608 131.8 544.074 130.427 544.074 132.013C544.074 132.613 543.581 132.973 542.394 132.973C541.474 132.973 540.514 132.667 539.914 132.24L539.381 133.253C539.968 133.72 541.128 134.08 542.301 134.08ZM554.281 126.867C553.281 126.867 552.401 127.24 551.815 128V124.107H550.535V134H551.761V132.88C552.335 133.68 553.241 134.08 554.281 134.08C556.348 134.08 557.855 132.627 557.855 130.467C557.855 128.307 556.348 126.867 554.281 126.867ZM554.175 132.96C552.828 132.96 551.801 131.973 551.801 130.467C551.801 128.96 552.828 127.987 554.175 127.987C555.535 127.987 556.561 128.96 556.561 130.467C556.561 131.973 555.535 132.96 554.175 132.96ZM562.132 126.867C560.998 126.867 559.945 127.187 559.212 127.773L559.745 128.733C560.292 128.267 561.145 127.973 561.985 127.973C563.252 127.973 563.878 128.6 563.878 129.68V129.933H561.852C559.745 129.933 559.012 130.867 559.012 132C559.012 133.227 560.025 134.08 561.625 134.08C562.732 134.08 563.518 133.707 563.945 133.067V134H565.158V129.733C565.158 127.8 564.065 126.867 562.132 126.867ZM561.838 133.093C560.865 133.093 560.278 132.653 560.278 131.947C560.278 131.347 560.638 130.853 561.905 130.853H563.878V131.84C563.558 132.653 562.798 133.093 561.838 133.093ZM568.234 125.573C568.74 125.573 569.1 125.2 569.1 124.72C569.1 124.267 568.727 123.907 568.234 123.907C567.74 123.907 567.367 124.28 567.367 124.747C567.367 125.213 567.74 125.573 568.234 125.573ZM566.62 136.667C568.074 136.667 568.874 135.76 568.874 134.32V126.933H567.594V134.347C567.594 135.16 567.22 135.587 566.54 135.587C566.127 135.587 565.754 135.467 565.5 135.253L565.087 136.24C565.447 136.533 566.034 136.667 566.62 136.667ZM574.343 134.08C576.463 134.08 578.009 132.573 578.009 130.467C578.009 128.36 576.463 126.867 574.343 126.867C572.223 126.867 570.663 128.36 570.663 130.467C570.663 132.573 572.223 134.08 574.343 134.08ZM574.343 132.96C572.983 132.96 571.956 131.973 571.956 130.467C571.956 128.96 572.983 127.987 574.343 127.987C575.703 127.987 576.716 128.96 576.716 130.467C576.716 131.973 575.703 132.96 574.343 132.96ZM581.806 134.08C583.686 134.08 584.86 133.267 584.86 131.987C584.86 129.24 580.38 130.6 580.38 128.933C580.38 128.373 580.926 127.96 582.046 127.96C582.74 127.96 583.446 128.107 584.086 128.52L584.633 127.507C584.02 127.107 582.98 126.867 582.06 126.867C580.246 126.867 579.113 127.72 579.113 128.987C579.113 131.8 583.58 130.427 583.58 132.013C583.58 132.613 583.086 132.973 581.9 132.973C580.98 132.973 580.02 132.667 579.42 132.24L578.886 133.253C579.473 133.72 580.633 134.08 581.806 134.08Z" fill="white"/>
<path d="M643.414 132.84V129.827H648.094V128.693H643.414V125.827H648.667V124.667H642.081V134H648.854V132.84H643.414ZM656.63 134L653.817 130.387L656.484 126.933H655.084L653.15 129.48L651.204 126.933H649.777L652.43 130.387L649.644 134H651.07L653.137 131.293L655.177 134H656.63ZM660.873 134.08C662.139 134.08 663.193 133.547 663.753 132.56L662.779 131.947C662.326 132.64 661.633 132.96 660.859 132.96C659.473 132.96 658.433 132 658.433 130.467C658.433 128.96 659.473 127.987 660.859 127.987C661.633 127.987 662.326 128.307 662.779 129L663.753 128.373C663.193 127.387 662.139 126.867 660.873 126.867C658.699 126.867 657.139 128.36 657.139 130.467C657.139 132.573 658.699 134.08 660.873 134.08ZM665.319 134H666.599V124.107H665.319V134ZM674.349 126.933V130.587C674.349 132.107 673.496 132.933 672.163 132.933C670.949 132.933 670.256 132.24 670.256 130.853V126.933H668.976V131C668.976 133.08 670.189 134.08 672.016 134.08C673.016 134.08 673.896 133.667 674.416 132.933V134H675.629V126.933H674.349ZM680.093 134.08C681.973 134.08 683.146 133.267 683.146 131.987C683.146 129.24 678.666 130.6 678.666 128.933C678.666 128.373 679.213 127.96 680.333 127.96C681.026 127.96 681.733 128.107 682.373 128.52L682.919 127.507C682.306 127.107 681.266 126.867 680.346 126.867C678.533 126.867 677.399 127.72 677.399 128.987C677.399 131.8 681.866 130.427 681.866 132.013C681.866 132.613 681.373 132.973 680.186 132.973C679.266 132.973 678.306 132.667 677.706 132.24L677.173 133.253C677.759 133.72 678.919 134.08 680.093 134.08ZM685.386 125.573C685.892 125.573 686.252 125.2 686.252 124.72C686.252 124.267 685.879 123.907 685.386 123.907C684.892 123.907 684.519 124.28 684.519 124.747C684.519 125.213 684.892 125.573 685.386 125.573ZM684.746 134H686.026V126.933H684.746V134ZM693.47 126.933L690.99 132.6L688.563 126.933H687.23L690.323 134H691.63L694.723 126.933H693.47ZM698.749 134.08C700.869 134.08 702.416 132.573 702.416 130.467C702.416 128.36 700.869 126.867 698.749 126.867C696.629 126.867 695.069 128.36 695.069 130.467C695.069 132.573 696.629 134.08 698.749 134.08ZM698.749 132.96C697.389 132.96 696.362 131.973 696.362 130.467C696.362 128.96 697.389 127.987 698.749 127.987C700.109 127.987 701.122 128.96 701.122 130.467C701.122 131.973 700.109 132.96 698.749 132.96ZM706.212 134.08C708.092 134.08 709.266 133.267 709.266 131.987C709.266 129.24 704.786 130.6 704.786 128.933C704.786 128.373 705.332 127.96 706.452 127.96C707.146 127.96 707.852 128.107 708.492 128.52L709.039 127.507C708.426 127.107 707.386 126.867 706.466 126.867C704.652 126.867 703.519 127.72 703.519 128.987C703.519 131.8 707.986 130.427 707.986 132.013C707.986 132.613 707.492 132.973 706.306 132.973C705.386 132.973 704.426 132.667 703.826 132.24L703.292 133.253C703.879 133.72 705.039 134.08 706.212 134.08Z" fill="white"/>
<path fill-rule="evenodd" clip-rule="evenodd" d="M131.333 105.667C129.86 105.667 128.667 106.861 128.667 108.333V123C128.667 124.473 129.86 125.667 131.333 125.667H135.01L139.657 130.314L144.304 125.667H162C163.473 125.667 164.667 124.473 164.667 123V108.333C164.667 106.861 163.473 105.667 162 105.667H131.333Z" fill="#68B501"/>
<path d="M139.412 111.2V115.733L135.7 111.2H134.271V118.667H135.977V114.133L139.7 118.667H141.119V111.2H139.412ZM148.389 115.819C148.389 113.973 147.088 112.843 145.402 112.843C143.653 112.843 142.341 114.08 142.341 115.797C142.341 117.504 143.632 118.752 145.616 118.752C146.65 118.752 147.45 118.432 147.984 117.824L147.098 116.864C146.704 117.237 146.266 117.419 145.658 117.419C144.784 117.419 144.176 116.981 144.016 116.267H148.357C148.368 116.128 148.389 115.947 148.389 115.819ZM145.413 114.101C146.16 114.101 146.704 114.571 146.821 115.296H143.994C144.112 114.56 144.656 114.101 145.413 114.101ZM157.137 112.928L155.739 116.811L154.374 112.928H152.966L151.558 116.811L150.203 112.928H148.635L150.705 118.667H152.305L153.638 115.104L154.929 118.667H156.529L158.609 112.928H157.137Z" fill="white"/>
<path d="M459.334 32.1774L464.511 37.3549L469.688 32.1774" stroke="#6666FF" stroke-width="2.32889"/>
<path d="M485.333 18.3334V54.3334" stroke="#6666FF" stroke-width="0.666667"/>
<defs>
<linearGradient id="paint0_linear_206_245" x1="21.3698" y1="5.18837" x2="55.9671" y2="62.4683" gradientUnits="userSpaceOnUse">
<stop stop-color="white"/>
<stop offset="0.0889565" stop-color="#F8F8F8" stop-opacity="0.9555"/>
<stop offset="0.2165" stop-color="#E5E5E5" stop-opacity="0.8918"/>
<stop offset="0.3672" stop-color="#C6C6C6" stop-opacity="0.8164"/>
<stop offset="0.5358" stop-color="#9B9B9B" stop-opacity="0.7321"/>
<stop offset="0.7192" stop-color="#636363" stop-opacity="0.6404"/>
<stop offset="0.9121" stop-color="#212121" stop-opacity="0.544"/>
<stop offset="1" stop-opacity="0.5"/>
</linearGradient>
<linearGradient id="paint1_linear_206_245" x1="33.813" y1="17.0661" x2="23.3737" y2="51.0338" gradientUnits="userSpaceOnUse">
<stop stop-color="white"/>
<stop offset="0.0739517" stop-color="#EBEBEB"/>
<stop offset="0.7204" stop-color="#444444"/>
<stop offset="1"/>
</linearGradient>
<linearGradient id="paint2_linear_206_245" x1="52.5175" y1="51.8298" x2="45.231" y2="17.7286" gradientUnits="userSpaceOnUse">
<stop stop-color="white" stop-opacity="0"/>
<stop offset="0.9259" stop-color="white" stop-opacity="0.9259"/>
<stop offset="1" stop-color="white"/>
</linearGradient>
<linearGradient id="paint3_linear_206_245" x1="20.4705" y1="65.2141" x2="58.9363" y2="31.9502" gradientUnits="userSpaceOnUse">
<stop stop-color="white"/>
<stop offset="0.0921249" stop-color="#D5D5D5"/>
<stop offset="0.2283" stop-color="#9D9D9D"/>
<stop offset="0.3653" stop-color="#6D6D6D"/>
<stop offset="0.5003" stop-color="#464646"/>
<stop offset="0.6326" stop-color="#272727"/>
<stop offset="0.7616" stop-color="#121212"/>
<stop offset="0.8859" stop-color="#040404"/>
<stop offset="1"/>
</linearGradient>
<linearGradient id="paint4_linear_206_245" x1="51.8017" y1="44.5416" x2="58.1102" y2="33.6719" gradientUnits="userSpaceOnUse">
<stop stop-color="#424242"/>
<stop offset="0.119" stop-color="#424242"/>
<stop offset="0.2521" stop-color="#424242"/>
<stop offset="0.3919" stop-color="#424242"/>
<stop offset="0.5364" stop-color="#424242"/>
<stop offset="0.6845" stop-color="#424242"/>
<stop offset="0.8357" stop-color="#424242"/>
<stop offset="0.9868" stop-color="#282425"/>
<stop offset="1" stop-color="#231F20"/>
</linearGradient>
<linearGradient id="paint5_linear_206_245" x1="37.838" y1="57.2278" x2="43.3816" y2="47.6761" gradientUnits="userSpaceOnUse">
<stop stop-color="#424242"/>
<stop offset="0.113" stop-color="#424242"/>
<stop offset="0.2462" stop-color="#424242"/>
<stop offset="0.3894" stop-color="#424242"/>
<stop offset="0.5399" stop-color="#424242"/>
<stop offset="0.696" stop-color="#424242"/>
<stop offset="0.8543" stop-color="#585556"/>
<stop offset="1" stop-color="#231F20"/>
</linearGradient>
<linearGradient id="paint6_linear_206_245" x1="18.8467" y1="54.427" x2="34.3005" y2="54.427" gradientUnits="userSpaceOnUse">
<stop stop-color="white"/>
<stop offset="0.0739517" stop-color="#EBEBEB"/>
<stop offset="0.7204" stop-color="#444444"/>
<stop offset="1"/>
</linearGradient>
<linearGradient id="paint7_linear_206_245" x1="72.6779" y1="30.272" x2="18.999" y2="29.3399" gradientUnits="userSpaceOnUse">
<stop stop-color="#FF1A72"/>
<stop offset="0.08652" stop-color="#FF1A72" stop-opacity="0.9481"/>
<stop offset="0.2398" stop-color="#FF1A72" stop-opacity="0.8561"/>
<stop offset="0.4418" stop-color="#FF1A72" stop-opacity="0.7349"/>
<stop offset="0.6849" stop-color="#8E0439" stop-opacity="0.5891"/>
<stop offset="0.9602" stop-color="#870336" stop-opacity="0.4239"/>
</linearGradient>
<clipPath id="clip0_206_245">
<rect width="158.667" height="69.3333" fill="white" transform="translate(4.6665 0.333435)"/>
</clipPath>
<clipPath id="clip1_206_245">
<rect width="52" height="52" fill="white" transform="translate(1118 8.33344)"/>
</clipPath>
<clipPath id="clip2_206_245">
<rect width="20.9524" height="20.9524" fill="white" transform="translate(876.857 23.5717)"/>
</clipPath>
</defs>
</svg>
