<?xml version="1.0" encoding="utf-8"?>
<!-- Generator: Adobe Illustrator 24.0.2, SVG Export Plug-In . SVG Version: 6.00 Build 0)  -->
<svg version="1.1" id="Capa_1" xmlns="http://www.w3.org/2000/svg" xmlns:xlink="http://www.w3.org/1999/xlink" x="0px" y="0px"
	 viewBox="0 0 160 70" style="enable-background:new 0 0 160 70;" xml:space="preserve">
<style type="text/css">
	.st0{fill:#2D1418;}
	.st1{fill:#006A5C;}
	.st2{fill:#6AF4FF;}
	.st3{fill:#2F1619;}
	.st4{fill:#31171A;}
	.st5{fill:#DDDBE1;}
	.st6{fill:#DCDCE2;}
	.st7{fill:#DFDDE3;}
	.st8{fill:#DEDDE3;}
	.st9{fill:#DFDEE4;}
	.st10{fill:#E0DFE4;}
	.st11{clip-path:url(#SVGID_2_);}
	.st12{fill:#B9FFF9;}
	.st13{opacity:0.38;fill:url(#SVGID_3_);enable-background:new    ;}
	.st14{opacity:0.4;fill:url(#SVGID_4_);enable-background:new    ;}
	.st15{fill:#414042;}
	.st16{fill:url(#SVGID_5_);}
	.st17{fill:url(#SVGID_6_);}
	.st18{fill:#FFFFFF;}
	.st19{fill:#E62A73;}
	.st20{fill:#004755;}
	.st21{fill:#005F6A;}
</style>
<g>
	<path class="st0" d="M25.3,15.6c0.3,0.3,0.5,0.8,0.5,1.2c-0.1,0.6-0.3,0.9-0.8,1.3c-0.1,0.1-0.2,0.1-0.3,0.2c0,0.2,0,0.2,0,0.4
		c0,0.1,0,0.1,0,0.2c0,0.1,0,0.2,0,0.2c0,0.1,0,0.2,0,0.2c0,0.2,0,0.4,0,0.6c0.1,0,0.1,0,0.2,0c0.6,0,1.1,0,1.7,0c0.2,0,0.4,0,0.6,0
		c0.3,0,0.6,0,0.9,0c0.1,0,0.2,0,0.3,0c0.4,0,0.7,0,1,0.2c0.3,0.4,0.2,0.8,0.2,1.3c0,0.1,0,0.1,0,0.3c0,0.3,0,0.6,0,0.9
		c0,0.2,0,0.4,0,0.6c0,0.5,0,1,0,1.6c1,0,2,0,3,0c0-0.8,0-1.7,0-2.5c0-0.4,0-0.8,0-1.2c0-0.4,0-0.8,0-1.1c0-0.1,0-0.3,0-0.4
		c0-0.8,0-0.8-0.3-1.5c-0.2-0.2-0.2-0.2-0.4-0.3c-0.3-0.2-0.3-0.4-0.4-0.7c-0.1-0.5,0-0.8,0.2-1.2c0.4-0.4,0.7-0.7,1.4-0.8
		c0.5,0,1,0.1,1.4,0.4c0.4,0.4,0.6,0.7,0.6,1.3c0,0.5-0.1,0.8-0.5,1.2c-0.1,0-0.2,0.1-0.3,0.1C34,18.3,34,18.3,34,18.6
		c0,0.1,0,0.2,0,0.4c0,0.1,0,0.1,0,0.2c0,0.2,0,0.4,0,0.6c0,0.1,0,0.3,0,0.4c0,0.4,0,0.8,0,1.2c0,0.5,0,0.9,0,1.4c0,0.7,0,1.4,0,2.1
		c1,0,2.1,0,3.1,0c0-2.2,0-4.3,0-6.6c-0.2-0.1-0.3-0.1-0.5-0.2c-0.5-0.5-0.7-0.9-0.7-1.6c0.1-0.5,0.3-0.8,0.7-1.1
		c0.5-0.3,1.1-0.3,1.7-0.2c0.5,0.2,0.9,0.6,1.1,1.1c0.1,0.5,0.1,0.9-0.2,1.3c-0.2,0.2-0.2,0.2-0.5,0.4c-0.2,0.2-0.3,0.2-0.3,0.5
		c0,0.1,0,0.2,0,0.4c0,0.1,0,0.1,0,0.2c0,0.2,0,0.4,0,0.6c0,0.1,0,0.3,0,0.4c0,0.4,0,0.8,0,1.2c0,0.4,0,0.8,0,1.2c0,0.8,0,1.5,0,2.3
		c1,0,2,0,3,0c0-0.3,0-0.6,0-1c0-0.3,0-0.6,0-0.9c0-0.2,0-0.4,0-0.6c0-0.3,0-0.6,0-0.9c0-0.1,0-0.2,0-0.3c0-0.4,0-0.7,0.2-1
		c0.4-0.2,0.8-0.2,1.3-0.2c0.1,0,0.2,0,0.3,0c0.3,0,0.6,0,0.9,0c0.2,0,0.4,0,0.6,0c0.5,0,1,0,1.5,0c0-0.3,0-0.5,0-0.8
		c0-0.1,0-0.1,0-0.2c0-0.2,0-0.4-0.1-0.6c-0.3-0.2-0.3-0.2-0.5-0.3c-0.4-0.4-0.5-0.9-0.5-1.5c0.1-0.4,0.3-0.8,0.7-1.1
		c0.5-0.3,1.1-0.3,1.7-0.2c0.5,0.2,0.8,0.5,1.1,0.9c0.2,0.5,0.2,1-0.1,1.5c-0.2,0.3-0.5,0.6-0.9,0.7c0,0.1,0,0.2,0,0.2
		c0,0.3,0,0.6,0,0.9c0,0.1,0,0.2,0,0.4c0,0.2,0,0.4,0,0.5c0,0.1,0,0.2,0,0.3c-0.1,0.3-0.1,0.3-0.2,0.5c-0.4,0.2-0.8,0.2-1.3,0.2
		c-0.1,0-0.2,0-0.3,0c-0.3,0-0.6,0-0.9,0c-0.2,0-0.4,0-0.6,0c-0.5,0-1,0-1.5,0c0,1.2,0,2.4,0,3.6c1.2,0,1.2,0,2.3,0
		c0.1,0,0.3,0,0.4,0c0.1,0,0.2,0,0.2,0c0.5,0,0.5,0,0.7,0.1c0.2,0.3,0.1,0.6,0.1,0.9c0,0.1,0,0.1,0,0.2c0,0.2,0,0.5,0,0.7
		c0,0.5,0,1.1,0,1.6c1.3,0,2.6,0,3.9,0c0-0.3,0-0.6,0-0.9c0-0.3,0-0.6,0-0.9c0-0.2,0-0.4,0-0.6c0-0.3,0-0.6,0-0.9c0-0.1,0-0.2,0-0.3
		c0-0.6,0-0.6,0.2-0.9c0.3-0.2,0.5-0.1,0.9-0.1c0.1,0,0.3,0,0.4,0c0.2,0,0.4,0,0.6,0c0.2,0,0.4,0,0.6,0c0.1,0,0.2,0,0.3,0
		c0.3,0,0.3,0,0.5-0.3c0.1-0.1,0.1-0.2,0.2-0.3c0.6-0.4,1-0.5,1.7-0.4c0.5,0.1,0.8,0.4,1.1,0.8c0.3,0.5,0.3,0.9,0.2,1.4
		c-0.2,0.5-0.4,0.8-0.9,1c-0.5,0.2-0.9,0.2-1.4,0.1c-0.6-0.3-0.6-0.3-0.8-0.6c-0.3-0.3-0.3-0.3-0.7-0.3c-0.2,0-0.3,0-0.5,0
		c-0.1,0-0.2,0-0.3,0c-0.2,0-0.4,0-0.6,0c0,0,0,0.1,0,0.2c0,0.5,0,1,0,1.6c0,0.2,0,0.4,0,0.6c0,0.3,0,0.6,0,0.8c0,0.1,0,0.1,0,0.3
		c0,0.4,0,0.6-0.2,0.9c-0.5,0.2-0.9,0.2-1.4,0.2c-0.1,0-0.2,0-0.3,0c-0.3,0-0.7,0-1,0c-0.3,0-0.7,0-1,0c-0.2,0-0.4,0-0.6,0
		c-0.1,0-0.2,0-0.3,0c-0.1,0-0.2,0-0.3,0c-0.3,0-0.3,0.1-0.5,0.3c-0.1,0-0.2,0.1-0.4,0.1c0,0.5,0,1,0,1.5c0.2,0,0.3,0.1,0.5,0.1
		c0.2,0.2,0.2,0.2,0.2,0.5c0,0.1,0,0.2,0,0.3c0.9,0,1.8,0,2.8,0c0.4,0,0.9,0,1.3,0c0.4,0,0.8,0,1.2,0c0.2,0,0.3,0,0.5,0
		c0.9,0,0.9,0,1.6-0.2c0.2-0.2,0.2-0.2,0.3-0.4c0.2-0.2,0.4-0.3,0.7-0.4c0.5-0.1,0.9,0,1.3,0.2c0.5,0.4,0.8,0.7,0.9,1.3
		c0,0.5-0.2,0.9-0.5,1.3c-0.4,0.4-0.7,0.5-1.3,0.5c-0.5,0-0.9-0.1-1.3-0.5c-0.4-0.4-0.4-0.4-0.4-0.6c-2.4,0-4.7,0-7.1,0
		c0,0.9,0,1.9,0,2.9c2.4,0,4.7,0,7.1,0c0.1-0.1,0.1-0.3,0.2-0.4c0.6-0.5,1-0.6,1.7-0.6c0.5,0.1,0.8,0.3,1.2,0.6
		c0.3,0.4,0.4,0.9,0.3,1.4c-0.2,0.5-0.5,0.9-1,1.1c-0.5,0.2-0.9,0.2-1.4,0.1c-0.3-0.2-0.5-0.3-0.7-0.6c-0.2-0.2-0.2-0.2-0.6-0.3
		c-0.1,0-0.3,0-0.4,0c-0.1,0-0.1,0-0.2,0c-0.2,0-0.5,0-0.7,0c-0.2,0-0.3,0-0.5,0c-0.4,0-0.8,0-1.3,0c-0.4,0-0.9,0-1.3,0
		c-0.8,0-1.7,0-2.5,0c0,0.9,0,1.8,0,2.8c0.3,0,0.7,0,1,0c0.3,0,0.7,0,1,0c0.2,0,0.5,0,0.7,0c0.3,0,0.7,0,1,0c0.1,0,0.2,0,0.3,0
		c0.4,0,0.7,0,1.1,0.2c0.2,0.4,0.2,0.7,0.2,1.2c0,0.1,0,0.2,0,0.3c0,0.3,0,0.6,0,0.9c0,0.2,0,0.4,0,0.6c0,0.5,0,0.9,0,1.4
		c0.3,0,0.6,0,0.9,0c0.1,0,0.2,0,0.3,0c0.2,0,0.5,0,0.7-0.1c0.2-0.2,0.2-0.2,0.4-0.5c0.5-0.3,1-0.5,1.6-0.4c0.5,0.1,0.8,0.3,1.1,0.7
		c0.3,0.4,0.4,0.8,0.3,1.3c-0.2,0.6-0.4,0.9-1,1.2c-0.6,0.2-1.1,0.2-1.7,0c-0.4-0.2-0.6-0.4-0.8-0.8c-0.1,0-0.2,0-0.3,0
		c-0.3,0-0.6,0-0.9,0c-0.1,0-0.3,0-0.4,0c-0.2,0-0.4,0-0.6,0c-0.1,0-0.2,0-0.4,0c-0.3,0-0.3,0-0.5-0.2c-0.2-0.4-0.2-0.7-0.2-1.2
		c0-0.1,0-0.2,0-0.3c0-0.3,0-0.6,0-0.9c0-0.2,0-0.4,0-0.6c0-0.5,0-1,0-1.4c-1.3,0-2.6,0-3.9,0c0,1.1,0,1.1,0,2.1c0,0.1,0,0.3,0,0.4
		c0,0.1,0,0.1,0,0.2c0,0.5,0,0.5-0.1,0.7c-0.3,0.2-0.6,0.1-1,0.1c-0.1,0-0.1,0-0.2,0c-0.3,0-0.5,0-0.8,0c-0.6,0-1.2,0-1.8,0
		c0,1.2,0,2.4,0,3.6c0.3,0,0.6,0,1,0c0.3,0,0.6,0,0.9,0c0.2,0,0.4,0,0.6,0c0.3,0,0.6,0,0.9,0c0.1,0,0.2,0,0.3,0c0.7,0,0.7,0,1,0.2
		c0.2,0.3,0.2,0.5,0.2,0.8c0,0.1,0,0.2,0,0.3c0,0.2,0,0.4,0,0.5c0,0.2,0,0.4,0,0.5c0,0.1,0,0.2,0,0.3c0,0.3,0,0.3,0.3,0.5
		c0.1,0,0.2,0.1,0.3,0.1c0.4,0.5,0.5,1,0.5,1.6c-0.2,0.5-0.5,0.8-1,1.1c-0.5,0.2-1,0.2-1.6,0c-0.5-0.2-0.7-0.5-0.9-1
		c-0.2-0.5-0.1-1,0.2-1.5c0.2-0.2,0.4-0.4,0.7-0.6c0-0.2,0-0.2,0-0.4c0-0.1,0-0.2,0-0.2c0-0.1,0-0.2,0-0.2c0-0.1,0-0.2,0-0.2
		c0-0.2,0-0.4,0-0.6c-0.1,0-0.1,0-0.2,0c-0.6,0-1.1,0-1.7,0c-0.2,0-0.4,0-0.6,0c-0.3,0-0.6,0-0.9,0c-0.1,0-0.1,0-0.3,0
		c-0.4,0-0.7,0-1-0.2c-0.3-0.4-0.2-0.8-0.2-1.3c0-0.1,0-0.2,0-0.3c0-0.3,0-0.6,0-0.9c0-0.2,0-0.4,0-0.6c0-0.5,0-1,0-1.6
		c-1,0-2,0-3,0c0,0.8,0,1.7,0,2.5c0,0.4,0,0.8,0,1.2c0,0.4,0,0.8,0,1.1c0,0.1,0,0.3,0,0.4c0,0.8,0,0.8,0.3,1.5
		c0.2,0.2,0.2,0.2,0.4,0.3c0.3,0.2,0.3,0.4,0.4,0.7c0.1,0.5,0,0.8-0.2,1.2c-0.4,0.5-0.8,0.7-1.4,0.8c-0.5,0-1-0.2-1.4-0.4
		c-0.4-0.4-0.5-0.7-0.6-1.2c0-0.5,0.1-0.8,0.5-1.2c0.4-0.3,0.4-0.3,0.6-0.3c0-2.2,0-4.3,0-6.6c-1,0-2.1,0-3.1,0c0,2.2,0,4.3,0,6.6
		c0.2,0.1,0.3,0.1,0.5,0.2c0.5,0.5,0.7,0.9,0.7,1.6c-0.1,0.5-0.3,0.8-0.7,1.1c-0.5,0.3-1.1,0.3-1.7,0.2c-0.5-0.2-0.9-0.6-1.1-1.1
		c-0.1-0.5-0.1-0.9,0.2-1.3c0.2-0.2,0.2-0.2,0.5-0.4c0.2-0.2,0.3-0.2,0.3-0.5c0-0.1,0-0.2,0-0.4c0-0.1,0-0.1,0-0.2
		c0-0.2,0-0.4,0-0.6c0-0.1,0-0.3,0-0.4c0-0.4,0-0.8,0-1.2c0-0.4,0-0.8,0-1.2c0-0.8,0-1.5,0-2.3c-1,0-2,0-3,0c0,0.5,0,0.5,0,1
		c0,0.3,0,0.6,0,0.9c0,0.2,0,0.4,0,0.6c0,0.3,0,0.6,0,0.9c0,0.1,0,0.2,0,0.3c0,0.4,0,0.7-0.2,1c-0.4,0.2-0.8,0.2-1.3,0.2
		c-0.1,0-0.2,0-0.3,0c-0.3,0-0.6,0-0.9,0c-0.2,0-0.4,0-0.6,0c-0.5,0-1,0-1.5,0c0,0.3,0,0.5,0,0.8c0,0.1,0,0.2,0,0.2
		c0,0.2,0,0.4,0.1,0.6c0.3,0.2,0.3,0.2,0.5,0.3c0.3,0.4,0.5,0.8,0.5,1.3c-0.1,0.5-0.4,1-0.8,1.3c-0.5,0.2-1,0.2-1.6,0.2
		c-0.5-0.2-0.8-0.5-1.1-0.9c-0.2-0.5-0.2-1,0.1-1.5c0.2-0.3,0.5-0.6,0.9-0.7c0-0.1,0-0.2,0-0.2c0-0.3,0-0.6,0-0.9c0-0.1,0-0.2,0-0.4
		c0-0.2,0-0.4,0-0.5c0-0.1,0-0.2,0-0.3c0-0.3,0-0.3,0.2-0.5c0.4-0.2,0.8-0.2,1.3-0.2c0.1,0,0.2,0,0.3,0c0.3,0,0.6,0,0.9,0
		c0.2,0,0.4,0,0.6,0c0.5,0,1,0,1.6,0c0-1.2,0-2.4,0-3.6c-1.2,0-1.2,0-2.3,0c-0.1,0-0.3,0-0.4,0c-0.1,0-0.2,0-0.2,0
		c-0.5,0-0.5,0-0.7-0.1c-0.2-0.3-0.1-0.6-0.1-0.9c0-0.1,0-0.1,0-0.2c0-0.2,0-0.5,0-0.7c0-0.5,0-1.1,0-1.6c-1.3,0-2.6,0-3.9,0
		c0,0.3,0,0.6,0,0.9c0,0.3,0,0.6,0,0.8c0,0.2,0,0.4,0,0.6c0,0.3,0,0.6,0,0.8c0,0.1,0,0.1,0,0.3c0,0.4,0,0.6-0.2,0.9
		c-0.3,0.2-0.5,0.2-0.9,0.2c-0.1,0-0.3,0-0.4,0c-0.2,0-0.4,0-0.6,0c-0.2,0-0.4,0-0.6,0c-0.1,0-0.2,0-0.3,0c-0.3,0-0.3,0-0.5,0.3
		c-0.1,0.1-0.1,0.2-0.2,0.3c-0.6,0.4-1,0.5-1.7,0.4c-0.6-0.2-0.9-0.5-1.2-0.9c-0.2-0.5-0.2-0.9,0-1.4c0.2-0.5,0.6-0.7,1.1-0.9
		c0.6-0.2,1.1-0.1,1.6,0.2c0.3,0.2,0.4,0.4,0.6,0.7c0.2,0,0.2,0,0.4,0c0.1,0,0.2,0,0.2,0c0.1,0,0.2,0,0.3,0c0.1,0,0.2,0,0.3,0
		c0.2,0,0.4,0,0.6,0c0-0.1,0-0.1,0-0.2c0-0.5,0-1.1,0-1.6c0-0.2,0-0.4,0-0.6c0-0.3,0-0.6,0-0.9c0-0.1,0-0.2,0-0.3
		c0-0.6,0-0.6,0.2-0.9c0.5-0.2,0.9-0.2,1.4-0.1c0.1,0,0.2,0,0.3,0c0.3,0,0.7,0,1,0c0.2,0,0.5,0,0.7,0c0.6,0,1.1,0,1.7,0
		c0-0.9,0-1.8,0-2.8c-0.9,0-1.8,0-2.8,0c-0.4,0-0.9,0-1.3,0c-0.4,0-0.8,0-1.2,0c-0.2,0-0.3,0-0.5,0c-0.9,0-0.9,0-1.6,0.2
		c-0.2,0.2-0.2,0.2-0.3,0.4c-0.2,0.2-0.4,0.3-0.7,0.4c-0.5,0.1-0.9,0-1.3-0.2c-0.5-0.4-0.8-0.7-0.9-1.3c0-0.5,0.2-0.9,0.5-1.3
		c0.4-0.4,0.7-0.5,1.3-0.5c0.5,0,0.9,0.1,1.3,0.5c0,0.1,0.1,0.2,0.1,0.3c0.2,0.3,0.2,0.3,0.5,0.3c0.1,0,0.3,0,0.4,0
		c0.1,0,0.1,0,0.2,0c0.2,0,0.5,0,0.7,0c0.2,0,0.3,0,0.5,0c0.4,0,0.8,0,1.3,0c0.5,0,1,0,1.5,0c0.8,0,1.5,0,2.3,0c0-0.9,0-1.9,0-2.9
		c-1.3,0-1.3,0-2.5,0c-0.5,0-1,0-1.5,0c-0.4,0-0.8,0-1.2,0c-0.2,0-0.3,0-0.5,0c-0.2,0-0.4,0-0.7,0c-0.1,0-0.1,0-0.2,0
		c-0.2,0-0.2,0-0.5,0.1C17,34,17,34,16.9,34.3c-0.4,0.3-0.8,0.5-1.3,0.5c-0.7,0-1-0.3-1.5-0.7c-0.3-0.4-0.4-0.9-0.3-1.4
		c0.2-0.5,0.5-0.9,1-1.1c0.5-0.2,0.9-0.2,1.4-0.1c0.3,0.2,0.5,0.3,0.7,0.6c0.2,0.2,0.2,0.2,0.6,0.3c0.1,0,0.3,0,0.4,0
		c0.1,0,0.1,0,0.2,0c0.2,0,0.5,0,0.7,0c0.2,0,0.3,0,0.5,0c0.4,0,0.8,0,1.3,0c0.4,0,0.9,0,1.3,0c0.8,0,1.7,0,2.5,0c0-0.9,0-1.8,0-2.8
		c-0.5,0-0.5,0-1,0c-0.3,0-0.7,0-1,0c-0.2,0-0.5,0-0.7,0c-0.3,0-0.7,0-1,0c-0.1,0-0.2,0-0.3,0c-0.4,0-0.7,0-1.1-0.2
		C19,29.1,19,28.8,19,28.3c0-0.1,0-0.2,0-0.3c0-0.3,0-0.6,0-0.9c0-0.2,0-0.4,0-0.6c0-0.5,0-0.9,0-1.4c-0.3,0-0.6,0-0.9,0
		c-0.1,0-0.2,0-0.3,0c-0.2,0-0.5,0-0.7,0.1c-0.2,0.2-0.2,0.2-0.4,0.5c-0.4,0.3-0.9,0.5-1.4,0.4c-0.5-0.1-0.9-0.3-1.3-0.6
		c-0.3-0.4-0.4-0.8-0.4-1.3c0.1-0.5,0.3-0.9,0.8-1.2c0.5-0.3,0.9-0.3,1.5-0.2c0.5,0.1,0.8,0.4,1.1,0.8c0,0.1,0.1,0.1,0.1,0.2
		c0.1,0,0.2,0,0.3,0c0.3,0,0.6,0,0.9,0c0.1,0,0.3,0,0.4,0c0.2,0,0.4,0,0.6,0c0.1,0,0.2,0,0.4,0c0.3,0.1,0.3,0.1,0.5,0.2
		c0.2,0.4,0.2,0.8,0.2,1.2c0,0.1,0,0.2,0,0.3c0,0.3,0,0.6,0,0.9c0,0.2,0,0.4,0,0.6c0,0.5,0,0.9,0,1.4c1.3,0,2.6,0,3.9,0
		c0-1.1,0-1.1,0-2.1c0-0.1,0-0.3,0-0.4c0-0.1,0-0.1,0-0.2c0-0.5,0-0.5,0.1-0.7c0.3-0.2,0.6-0.1,1-0.1c0.1,0,0.1,0,0.2,0
		c0.3,0,0.5,0,0.8,0c0.6,0,1.2,0,1.8,0c0-1.2,0-2.4,0-3.6c-0.5,0-0.5,0-0.9,0c-0.3,0-0.6,0-0.9,0c-0.2,0-0.4,0-0.6,0
		c-0.3,0-0.6,0-0.9,0c-0.1,0-0.2,0-0.3,0c-0.4,0-0.7,0-1-0.2c-0.2-0.3-0.2-0.4-0.2-0.8c0-0.1,0-0.2,0-0.3c0-0.2,0-0.4,0-0.5
		c0-0.2,0-0.4,0-0.5c0-0.2,0-0.2,0-0.3c0-0.3,0-0.3-0.3-0.5c-0.1,0-0.2-0.1-0.3-0.1c-0.4-0.5-0.5-1-0.5-1.6c0.2-0.5,0.4-0.8,0.9-1.1
		C23.9,15,24.7,15.1,25.3,15.6z"/>
	<path class="st1" d="M25.6,26c6.5,0,13,0,19.7,0c0,1.2,0.1,2.4,0.1,3.6c0.2,0.3,0.2,0.3,0.5,0.3c0,0.3,0,0.5,0,0.8
		c0,0.1,0,0.1,0,0.2c0,0.2,0,0.4,0,0.6c-0.2,0.2-0.2,0.2-0.5,0.3c-0.2,0.1-0.1,0.4-0.1,0.6c0,0.2,0,0.2,0,0.3c0,0.1,0,0.2,0,0.3
		c0,0.1,0,0.2,0,0.4c0,0.3,0,0.7,0,1c0,0.3,0,0.6,0,0.9c0,0.9,0,1.8,0,2.7c0,2,0,4,0,6.1c-6.5,0-13,0-19.7,0
		C25.6,38.2,25.6,32.2,25.6,26z"/>
	<path class="st2" d="M31.3,27.6c4.1,1.3,8.2,2.5,12.5,3.8c-1.3,3.8-2.7,7.6-4.1,11.5c-4.1-1.3-8.2-2.5-12.5-3.8
		c0.1-0.4,0.2-0.8,0.3-1.2c-0.1-0.2-0.3-0.3-0.4-0.5c0-0.3,0.1-0.5,0.3-0.8c0.3-0.1,0.3-0.1,0.5-0.1c0.3-0.3,0.4-0.6,0.5-1
		c0-0.1,0.1-0.2,0.1-0.2c0.1-0.2,0.1-0.4,0.2-0.6c-0.2-0.3-0.2-0.3-0.4-0.5c0-0.3,0-0.3,0.1-0.6c0-0.1,0.1-0.2,0.1-0.3
		c0.2-0.2,0.2-0.2,0.4-0.3c0.1,0,0.2,0,0.3,0C30.6,31.6,30.6,29.4,31.3,27.6z"/>
	<path class="st0" d="M28.6,27.8c0.1,0,0.1,0,0.2,0c0.2,0,0.4,0,0.6,0c0.1,0,0.3,0,0.4,0c0.4,0,0.8,0,1.2,0c0.4,0,0.8,0,1.2,0
		c0.7,0,1.4,0,2.1,0c0.8,0,1.6,0,2.4,0c0.7,0,1.4,0,2.1,0c0.4,0,0.8,0,1.2,0c0.4,0,0.8,0,1.2,0c0.1,0,0.3,0,0.4,0c0.2,0,0.4,0,0.6,0
		c0.2,0,0.2,0,0.3,0c0.4,0.1,0.5,0.1,0.7,0.4c0.1,0.3,0.1,0.3,0.1,0.6c0,0.1,0,0.1,0,0.2c0,0.2,0,0.4,0,0.6c0,0.1,0,0.3,0,0.4
		c0,0.4,0,0.7,0,1.1c0,0.4,0,0.8,0,1.1c0,0.6,0,1.3,0,1.9c0,0.7,0,1.5,0,2.2c0,0.6,0,1.3,0,1.9c0,0.4,0,0.8,0,1.1c0,0.4,0,0.7,0,1.1
		c0,0.1,0,0.3,0,0.4c0,0.2,0,0.4,0,0.5c0,0.1,0,0.2,0,0.3c-0.1,0.4-0.2,0.5-0.5,0.7c-0.3,0.1-0.3,0.1-0.6,0.1c-0.1,0-0.1,0-0.2,0
		c-0.2,0-0.4,0-0.6,0c-0.1,0-0.3,0-0.4,0c-0.4,0-0.8,0-1.2,0c-0.4,0-0.8,0-1.2,0c-0.7,0-1.4,0-2.1,0c-0.8,0-1.6,0-2.4,0
		c-0.7,0-1.4,0-2.1,0c-0.4,0-0.8,0-1.2,0c-0.4,0-0.8,0-1.2,0c-0.1,0-0.3,0-0.4,0c-0.2,0-0.4,0-0.6,0c-0.1,0-0.2,0-0.3,0
		c-0.3-0.1-0.3-0.1-0.5-0.3c-0.2-0.3-0.2-0.4-0.2-0.7c0-0.1,0-0.2,0-0.3c0-0.1,0-0.2,0-0.3c0-0.1,0-0.2,0-0.3c0-0.7,0-0.7,0.2-0.9
		c0.2-0.1,0.3-0.1,0.5-0.1c0.1,0,0.1,0,0.2,0c0.2,0,0.2,0,0.5,0.3c0,0.4,0,0.8,0,1.3c4.3,0,8.7,0,13.2,0c0-4,0-8,0-12.1
		c-4.3,0-8.7,0-13.2,0c0,1.8,0,3.7,0,5.6c-0.4,0.4-0.4,0.4-0.6,0.5C28,35,28,35,27.8,34.9c-0.2-0.3-0.2-0.5-0.2-0.9
		c0-0.1,0-0.1,0-0.2c0-0.2,0-0.4,0-0.6c0-0.1,0-0.3,0-0.4c0-0.3,0-0.6,0-0.9c0-0.4,0-0.8,0-1.1c0-0.3,0-0.6,0-0.9c0-0.1,0-0.3,0-0.4
		c0-0.2,0-0.4,0-0.6c0-0.1,0-0.1,0-0.2c0-0.3,0-0.4,0.2-0.6C28.1,27.8,28.3,27.8,28.6,27.8z"/>
	<path class="st3" d="M40.8,31.5c0.2,0.1,0.2,0.1,0.4,0.3c0.1,0.3,0.1,0.6,0,0.8c0,0.1,0,0.2,0,0.3c0,0.2,0,0.3,0,0.5
		c0,0.3,0,0.5,0,0.8c0,0.2,0,0.3,0,0.5c0,0.1,0,0.2,0,0.2c0,0.6,0,0.6-0.2,0.8C40.7,36,40.6,36,40.3,36c-0.2-0.1-0.2-0.1-0.4-0.3
		c-0.1-0.3-0.1-0.6,0-0.8c0-0.1,0-0.2,0-0.3c0-0.2,0-0.3,0-0.5c0-0.3,0-0.5,0-0.8c0-0.2,0-0.3,0-0.5c0-0.1,0-0.2,0-0.2
		c0-0.6,0-0.6,0.2-0.8C40.3,31.5,40.5,31.5,40.8,31.5z"/>
	<path class="st4" d="M28.7,36.3c0.2,0.1,0.3,0.2,0.3,0.4c0,0.2,0,0.5,0,0.7c0,0.1,0,0.2,0,0.2c0,0.4,0,0.6-0.2,0.9
		c-0.2,0.2-0.2,0.2-0.5,0.2c-0.4-0.1-0.4-0.1-0.6-0.4c-0.1-0.3-0.1-0.6-0.1-0.9c0-0.1,0-0.1,0-0.3c0-0.6,0-0.6,0.3-0.9
		C28.2,36.2,28.3,36.2,28.7,36.3z"/>
	<path class="st5" d="M23.8,53c0.5,0,0.5,0,0.6,0.2c0,0.2,0,0.2,0,0.5c-0.3,0.2-0.3,0.2-0.5,0.1c-0.2-0.1-0.2-0.1-0.4-0.2
		C23.6,53.3,23.6,53.2,23.8,53z"/>
	<path class="st6" d="M55.1,32.7c0.3,0,0.3,0,0.6,0.1c0.1,0.5,0.1,0.5,0,0.7c-0.2,0.1-0.2,0.1-0.4,0.1c-0.2-0.1-0.2-0.1-0.4-0.2
		c0-0.2,0-0.2,0-0.4C55,32.8,55.1,32.7,55.1,32.7z"/>
	<path class="st5" d="M55.2,24.1c0.3,0,0.4,0.1,0.6,0.3c-0.1,0.5-0.1,0.5-0.2,0.6c-0.3,0-0.3,0-0.5,0C55,24.7,55,24.7,55,24.5
		C55.1,24.3,55.1,24.3,55.2,24.1z"/>
	<path class="st5" d="M15.4,24.1c0.3,0,0.4,0.1,0.6,0.3c-0.1,0.5-0.1,0.5-0.2,0.6c-0.3,0-0.3,0-0.5,0c-0.2-0.3-0.2-0.3-0.2-0.5
		C15.2,24.3,15.2,24.3,15.4,24.1z"/>
	<path class="st6" d="M33.3,16.3c0.2,0,0.2,0,0.4,0.1c0.1,0.2,0.1,0.2,0.1,0.4c-0.1,0.2-0.1,0.2-0.3,0.4c-0.3,0-0.3,0-0.5-0.1
		c-0.1-0.3-0.1-0.3-0.1-0.6C33,16.4,33,16.4,33.3,16.3z"/>
	<path class="st5" d="M23.8,16.4c0.5,0,0.5,0,0.6,0.2c0,0.2,0,0.2,0,0.5c-0.3,0.2-0.3,0.2-0.5,0.1c-0.2-0.1-0.2-0.1-0.4-0.2
		C23.6,16.7,23.6,16.6,23.8,16.4z"/>
	<path class="st7" d="M37.5,53c0.5,0,0.5,0,0.6,0.2c0,0.2-0.1,0.4-0.1,0.6c-0.5,0.1-0.5,0.1-0.7,0c-0.1-0.2-0.1-0.2-0.1-0.4
		C37.3,53.2,37.3,53.2,37.5,53z"/>
	<path class="st7" d="M33.4,53.1c0.2,0.1,0.2,0.1,0.4,0.2c0,0.3-0.1,0.4-0.3,0.6c-0.3,0-0.3,0-0.5-0.1c0-0.2-0.1-0.4-0.1-0.6
		C33.1,53,33.1,53,33.4,53.1z"/>
	<path class="st7" d="M15.4,36.7c0.3,0,0.4,0.1,0.6,0.3c0,0.3,0,0.3-0.1,0.5c-0.2,0-0.4,0.1-0.6,0.1c-0.2-0.3-0.2-0.3-0.2-0.5
		C15.2,36.9,15.2,36.9,15.4,36.7z"/>
	<path class="st8" d="M15.3,32.7c0.2,0,0.4,0.1,0.6,0.1c0.1,0.5,0.1,0.5,0,0.7c-0.2,0.1-0.2,0.1-0.4,0.1c-0.2-0.1-0.2-0.1-0.4-0.2
		C15.2,32.8,15.2,32.8,15.3,32.7z"/>
	<path class="st9" d="M47,53c0.2,0,0.2,0,0.4,0.2c0,0.3,0,0.3,0,0.5c-0.2,0.2-0.2,0.2-0.4,0.2c-0.2,0-0.2,0-0.4-0.2
		c0-0.3,0-0.3,0-0.5C46.7,53,46.7,53,47,53z"/>
	<path class="st9" d="M55.4,45.3c0.3,0,0.3,0,0.5,0.2c0,0.2,0,0.2,0,0.4c-0.2,0.2-0.2,0.2-0.5,0.2c-0.3,0-0.3,0-0.5-0.2
		c0-0.2,0-0.2,0-0.4C55.1,45.3,55.1,45.3,55.4,45.3z"/>
	<path class="st9" d="M15.6,45.3c0.3,0,0.3,0,0.5,0.2c0,0.2,0,0.2,0,0.4c-0.2,0.2-0.2,0.2-0.5,0.2c-0.3,0-0.3,0-0.5-0.2
		c0-0.2,0-0.2,0-0.4C15.3,45.3,15.3,45.3,15.6,45.3z"/>
	<path class="st10" d="M55.2,36.7c0.3,0,0.4,0.1,0.6,0.3c0,0.3,0,0.3-0.1,0.5c-0.5,0.1-0.5,0.1-0.7,0C55,37.3,55,37.3,55,37.1
		C55.1,36.9,55.1,36.9,55.2,36.7z"/>
	<path class="st9" d="M47,16.3c0.2,0,0.2,0,0.4,0.2c0,0.3,0,0.3,0,0.5c-0.2,0.2-0.2,0.2-0.4,0.2c-0.2,0-0.2,0-0.4-0.2
		c0-0.3,0-0.3,0-0.5C46.7,16.4,46.7,16.4,47,16.3z"/>
	<path class="st9" d="M37.5,16.4c0.3,0,0.3,0,0.5,0.1c0.1,0.5,0.1,0.5,0,0.7c-0.2,0.1-0.2,0.1-0.4,0.1c-0.2-0.1-0.2-0.1-0.4-0.2
		C37.3,16.7,37.3,16.6,37.5,16.4z"/>
</g>
<g>
	<defs>
		<rect id="SVGID_1_" x="0.8" y="0.5" width="158.7" height="69.3"/>
	</defs>
	<clipPath id="SVGID_2_">
		<use xlink:href="#SVGID_1_"  style="overflow:visible;"/>
	</clipPath>
	<g class="st11">
		<path class="st12" d="M47.2,65.6c-3.8,1.2-7.8,1.9-11.8,1.9c-1,0-2,0-3.1-0.1c-1-0.1-2-0.2-3.1-0.3c-1-0.2-2-0.3-3.1-0.6
			c-1-0.2-2-0.5-3-0.9c-1-0.3-2-0.7-3-1.1c-1-0.4-1.9-0.9-2.9-1.4c-1.9-1-3.6-2.3-5.3-3.7c-3.3-2.8-6.1-6.4-8-10.5
			c-1-2-1.7-4.1-2.3-6.3c-0.5-2.2-0.8-4.5-0.9-6.7C0.5,31.3,1.3,26.7,3,22.4c1.7-4.2,4.2-8.3,7.4-11.5c1.6-1.6,3.4-3.1,5.3-4.4
			c1.9-1.3,3.9-2.4,6.1-3.3c8.5-3.6,18.4-3.5,26.8,0.2c4.2,1.8,8,4.5,11.1,7.8c3.1,3.3,5.5,7.2,7,11.5c0.8,2.1,1.3,4.2,1.6,6.4
			c0.2,1.1,0.3,2.2,0.3,3.3c0,0.5,0,1.1,0,1.6c0,0.3,0,0.5,0,0.8v0.4v0.4v0.4c0,0,0,0.1,0,0c0,0,0,0,0,0.1v0.1v0.2
			c0,0.3,0,0.6-0.1,0.9c0,0.6-0.1,1.1-0.2,1.7c-0.2,1.1-0.4,2.2-0.7,3.2c-0.3,1.1-0.7,2.1-1.2,3.1c-0.5,1-1,2-1.6,2.9
			c-0.6,0.9-1.3,1.8-2,2.6c-0.7,0.8-1.6,1.5-2.4,2.2c-0.9,0.7-1.8,1.3-2.7,1.8c-0.9,0.5-1.9,0.9-2.9,1.3c-2,0.7-4,1.1-6,1.3
			c-2,0.2-4,0.1-6-0.1c1.9-0.3,3.9-0.8,5.7-1.4c0.9-0.3,1.8-0.6,2.7-1c0.9-0.4,1.7-0.8,2.5-1.3c1.6-0.9,3-2.1,4.2-3.4
			c0.6-0.7,1.1-1.4,1.6-2.1s0.9-1.5,1.2-2.3c1.4-3.1,1.9-6.7,1.5-10.1v-0.4v-0.3c0-0.2,0-0.4-0.1-0.7c-0.1-0.4-0.1-0.9-0.2-1.3
			c-0.2-0.9-0.4-1.7-0.6-2.5c-0.5-1.7-1.1-3.3-1.8-4.8c-1.5-3.1-3.6-5.8-6-8.1c-2.5-2.2-5.3-4-8.4-5.1c-3.1-1.1-6.3-1.7-9.6-1.6
			c-3.3,0.1-6.5,0.8-9.4,2c-1.5,0.6-2.9,1.4-4.3,2.3c-1.4,0.9-2.6,1.9-3.8,3c-2.3,2.3-4.3,4.9-5.6,7.9c-1.4,3-2.2,6.2-2.4,9.7
			c-0.2,3.3,0.3,6.6,1.5,9.9c1.2,3.2,3,6.2,5.3,8.9c1.2,1.3,2.5,2.5,3.9,3.6c1.4,1.1,2.9,2.1,4.5,2.9c1.6,0.8,3.3,1.6,5.1,2.2
			c1.8,0.6,3.6,1.1,5.5,1.4s3.8,0.6,5.7,0.7C43.2,65.6,45.2,65.6,47.2,65.6z"/>
		
			<linearGradient id="SVGID_3_" gradientUnits="userSpaceOnUse" x1="17.2871" y1="63.8194" x2="51.8886" y2="6.5324" gradientTransform="matrix(1 0 0 -1 0 69.8898)">
			<stop  offset="0" style="stop-color:#FFFFFF"/>
			<stop  offset="8.895650e-02" style="stop-color:#F8F8F8;stop-opacity:0.9555"/>
			<stop  offset="0.2165" style="stop-color:#E3E4E3;stop-opacity:0.8918"/>
			<stop  offset="0.3672" style="stop-color:#C6C5C5;stop-opacity:0.8164"/>
			<stop  offset="0.5358" style="stop-color:#9A9A9A;stop-opacity:0.7321"/>
			<stop  offset="0.7192" style="stop-color:#646463;stop-opacity:0.6404"/>
			<stop  offset="0.9121" style="stop-color:#202020;stop-opacity:0.544"/>
			<stop  offset="1" style="stop-color:#000000;stop-opacity:0.5"/>
		</linearGradient>
		<path class="st13" d="M47.2,66.2c-3.8,1.2-7.8,1.9-11.8,1.9c-1,0-2,0-3.1-0.1c-1-0.1-2-0.2-3.1-0.3c-1-0.2-2-0.3-3.1-0.6
			c-1-0.2-2-0.5-3-0.9c-1-0.3-2-0.7-3-1.1c-1-0.4-1.9-0.9-2.9-1.4c-1.9-1-3.6-2.3-5.3-3.7c-3.3-2.8-6.1-6.4-8-10.5
			c-1-2-1.7-4.1-2.3-6.3c-0.5-2.2-0.8-4.5-0.9-6.7C0.5,31.9,1.3,27.2,3,23c1.7-4.2,4.2-8.3,7.4-11.5c1.6-1.6,3.4-3.1,5.3-4.4
			c1.9-1.3,3.9-2.4,6.1-3.3C30.3,0.2,40.2,0.3,48.6,4c4.2,1.8,8,4.5,11.1,7.8c3.1,3.3,5.5,7.2,7,11.5c0.8,2.1,1.3,4.2,1.6,6.4
			c0.2,1.1,0.3,2.2,0.3,3.3c0,0.5,0,1.1,0,1.6c0,0.3,0,0.5,0,0.8v0.4v0.4v0.4c0,0,0,0.1,0,0c0,0,0,0,0,0.1v0.1v0.2
			c0,0.3,0,0.6-0.1,0.9c0,0.6-0.1,1.1-0.2,1.7c-0.2,1.1-0.4,2.2-0.7,3.2c-0.3,1.1-0.7,2.1-1.2,3.1c-0.5,1-1,2-1.6,2.9
			c-0.6,0.9-1.3,1.8-2,2.6c-0.7,0.8-1.6,1.5-2.4,2.2c-0.9,0.7-1.8,1.3-2.7,1.8c-0.9,0.5-1.9,0.9-2.9,1.3c-2,0.7-4,1.1-6,1.3
			c-2,0.2-4,0.1-6-0.1c1.9-0.3,3.9-0.8,5.7-1.4c0.9-0.3,1.8-0.6,2.7-1c0.9-0.4,1.7-0.8,2.5-1.3c1.6-0.9,3-2.1,4.2-3.4
			c0.6-0.7,1.1-1.4,1.6-2.1s0.9-1.5,1.2-2.3c1.4-3.1,1.9-6.7,1.5-10.1v-0.4v-0.3c0-0.2,0-0.4-0.1-0.7c-0.1-0.4-0.1-0.9-0.2-1.3
			c-0.2-0.9-0.4-1.7-0.6-2.5c-0.5-1.7-1.1-3.3-1.8-4.8c-1.5-3.1-3.6-5.8-6-8.1c-2.5-2.2-5.3-4-8.4-5.1c-3.1-1.1-6.3-1.7-9.6-1.6
			c-3.3,0.1-6.5,0.8-9.4,2c-1.5,0.6-2.9,1.4-4.3,2.3c-1.4,0.9-2.6,1.9-3.8,3c-2.3,2.3-4.3,4.9-5.6,7.9c-1.4,3-2.2,6.2-2.4,9.7
			c-0.2,3.3,0.3,6.6,1.5,9.9c1.2,3.2,3,6.2,5.3,8.9c1.2,1.3,2.5,2.5,3.9,3.6c1.4,1.1,2.9,2.1,4.5,2.9c1.6,0.8,3.3,1.6,5.1,2.2
			c1.8,0.6,3.6,1.1,5.5,1.4s3.8,0.6,5.7,0.7C43.2,66.2,45.2,66.2,47.2,66.2z"/>
		
			<linearGradient id="SVGID_4_" gradientUnits="userSpaceOnUse" x1="16.4322" y1="4.7406" x2="54.8775" y2="37.9868" gradientTransform="matrix(1 0 0 -1 0 69.8898)">
			<stop  offset="0" style="stop-color:#FFFFFF"/>
			<stop  offset="9.212490e-02" style="stop-color:#D4D4D4"/>
			<stop  offset="0.2283" style="stop-color:#9C9C9C"/>
			<stop  offset="0.3653" style="stop-color:#6E6E6E"/>
			<stop  offset="0.5003" style="stop-color:#464646"/>
			<stop  offset="0.6326" style="stop-color:#272727"/>
			<stop  offset="0.7616" style="stop-color:#121211"/>
			<stop  offset="0.8859" style="stop-color:#030404"/>
			<stop  offset="1" style="stop-color:#000000"/>
		</linearGradient>
		<path class="st14" d="M19,66.5c1.5-1.2,17.1-14.5,19.2-16.8c0.5,0.7,1,1.4,1.5,2.1c0.1,0.1,0.2,0.3,0.3,0.4
			c0.5-0.4,0.7-0.2,1.2-0.6c1.2,0.4,4,0.8,5.4,0.8c6.6,0,10.9-6.1,10.9-12.9s-5.4-12.2-12.1-12.2c-6.6,0-12.1,5.4-12.1,12.2
			c0,2.5,0.8,4.9,2.1,6.8c0,0,0,0.1-0.1,0.1L16.4,65.1 M45.5,44.6c-2.7,0-5-2.2-5-5s2.2-5,5-5c2.7,0,5,2.2,5,5S48.2,44.6,45.5,44.6z
			"/>
		<path class="st15" d="M43.2,51.2c1.6,0.6,3.4,0.8,5.3,0.6c5.9-0.6,10.5-5.5,10.9-11.5c0.4-7.3-5.6-13.3-12.8-13
			c-6.2,0.3-11.3,5.5-11.5,11.8c-0.1,2.7,0.7,5.3,2.1,7.3L20.4,63.4c-1.5,1.5-1.5,3.8,0,5.3c1.5,1.5,3.8,1.5,5.3,0L43.2,51.2z
			 M47.3,44.7c-2.8,0-5-2.3-5-5c0-2.8,2.3-5,5-5c2.8,0,5,2.3,5,5C52.3,42.5,50,44.7,47.3,44.7z"/>
		
			<linearGradient id="SVGID_5_" gradientUnits="userSpaceOnUse" x1="47.9308" y1="25.1725" x2="54.2393" y2="36.0422" gradientTransform="matrix(1 0 0 -1 0 69.8898)">
			<stop  offset="0" style="stop-color:#424242"/>
			<stop  offset="0.119" style="stop-color:#424242"/>
			<stop  offset="0.2521" style="stop-color:#424242"/>
			<stop  offset="0.3919" style="stop-color:#424242"/>
			<stop  offset="0.5364" style="stop-color:#424242"/>
			<stop  offset="0.6845" style="stop-color:#424242"/>
			<stop  offset="0.8357" style="stop-color:#424242"/>
			<stop  offset="0.9868" style="stop-color:#272425"/>
			<stop  offset="1" style="stop-color:#221E20"/>
		</linearGradient>
		<path class="st16" d="M54.9,48.5c0.3-0.5,0.5,0.3,0.9-0.1c0.1-0.1,0.6-0.8,0.8-0.8c0.1-0.2,0.5-0.5,0.6-0.8
			c0.2-0.6,0.4-0.8,0.8-1.3c0-0.2,0.2-0.9,0.4-1.1c0.4-4.4-0.9-10.5-7.1-11.8c-8.5-1.8-9.9,6-9.9,6s2.9-6.3,8.1-2.1
			c3.4,2.8-1,7.3-1,7.3L54.9,48.5z"/>
		
			<linearGradient id="SVGID_6_" gradientUnits="userSpaceOnUse" x1="33.9342" y1="12.5054" x2="39.4778" y2="22.0571" gradientTransform="matrix(1 0 0 -1 0 69.8898)">
			<stop  offset="0" style="stop-color:#424242"/>
			<stop  offset="0.113" style="stop-color:#424242"/>
			<stop  offset="0.2462" style="stop-color:#424242"/>
			<stop  offset="0.3894" style="stop-color:#424242"/>
			<stop  offset="0.5399" style="stop-color:#424242"/>
			<stop  offset="0.696" style="stop-color:#424242"/>
			<stop  offset="0.8543" style="stop-color:#595657"/>
			<stop  offset="1" style="stop-color:#221E20"/>
		</linearGradient>
		<path class="st17" d="M37.2,46.5c0,0,1.6,3.1,6.1,4.6c0,0-3.4,3.6-7.2,7.2l-5.5-5.1C30.5,53.3,34.1,50,37.2,46.5z"/>
		<path class="st18" d="M46.9,45.5c3.2,0,5.7-2.6,5.7-5.7c0-3.2-2.6-5.7-5.7-5.7c-3.2,0-5.7,2.6-5.7,5.7
			C41.2,42.9,43.8,45.5,46.9,45.5z"/>
		<path class="st19" d="M68.6,32.4c-0.1-1.1-0.1-2.2-0.3-3.3c-0.3-2.2-0.9-4.3-1.6-6.4c-1.5-4.2-3.9-8.2-7-11.5
			c-1-1.1-2.1-2.1-3.3-3.1C37.5-7.1,21.7,11.6,15.2,21.1c0.8-1,1.7-2,2.6-2.9c1.2-1.1,2.4-2.1,3.8-3c1.3-0.9,2.8-1.7,4.3-2.3
			c3-1.3,6.2-1.9,9.4-2c3.3-0.1,6.5,0.5,9.6,1.6c3.1,1.1,5.9,2.9,8.4,5.1c2.5,2.2,4.5,5,6,8.1c0.8,1.5,1.4,3.1,1.8,4.8
			c0.2,0.8,0.4,1.7,0.6,2.5c0.1,0.4,0.2,0.9,0.2,1.3c0,0.2,0.1,0.4,0.1,0.7v0.3v0.4c0.4,3.3-0.1,6.9-1.5,10.1
			c-0.4,0.8-0.8,1.5-1.2,2.3c-0.5,0.7-1,1.4-1.6,2.1c-1.2,1.3-2.6,2.4-4.2,3.4c-0.8,0.5-1.6,0.9-2.5,1.3c-0.9,0.4-1.8,0.7-2.7,1
			c-1.8,0.6-3.7,1-5.7,1.4c2,0.2,4,0.2,6,0.1c2-0.2,4-0.6,6-1.3c1-0.3,2-0.8,2.9-1.3c0.9-0.5,1.8-1.1,2.7-1.8
			c0.9-0.7,1.7-1.4,2.4-2.2c0.7-0.8,1.4-1.7,2-2.6c0.6-0.9,1.1-1.9,1.6-2.9c0.5-1,0.8-2,1.2-3.1c0.3-1.1,0.6-2.1,0.7-3.2
			c0.1-0.6,0.2-1.1,0.2-1.7c0-0.3,0-0.6,0.1-0.9v-0.2V36v-0.1c0,0,0,0.1,0,0v-0.4v-0.4v-0.4c0-0.3,0-0.5,0-0.8
			C68.7,33.5,68.7,32.9,68.6,32.4z"/>
		<path class="st20" d="M68.6,32.4c-0.1-1.1-0.1-2.2-0.3-3.3c-0.3-2.2-0.9-4.3-1.6-6.4c-1.5-4.2-3.9-8.2-7-11.5
			c-1-1.1-2.1-2.2-3.3-3.1C36.8-6.7,21.7,11.6,15.3,21.2c0.8-1,1.7-2,2.6-2.9c1.2-1.1,2.4-2.1,3.8-3c1.3-0.9,2.8-1.7,4.3-2.3
			c3-1.3,6.2-1.9,9.4-2c3.3-0.1,6.5,0.5,9.6,1.6c3.1,1.1,5.9,2.9,8.4,5.1c2.5,2.2,4.5,5,6,8.1c0.8,1.5,1.4,3.1,1.8,4.8
			c0.2,0.8,0.4,1.7,0.6,2.5c0.1,0.4,0.2,0.9,0.2,1.3c0,0.2,0.1,0.4,0.1,0.7v0.3v0.4c0.4,3.3-0.1,6.9-1.5,10.1
			c-0.4,0.8-0.8,1.5-1.2,2.3c-0.5,0.7-1,1.4-1.6,2.1c-1.2,1.3-2.6,2.4-4.2,3.4c-0.8,0.5-1.6,0.9-2.5,1.3c-0.9,0.4-1.8,0.7-2.7,1
			c-1.8,0.6-3.7,1-5.7,1.4c2,0.2,4,0.2,6,0.1c2-0.2,4-0.6,6-1.3c1-0.3,2-0.8,2.9-1.3c0.9-0.5,1.8-1.1,2.7-1.8
			c0.9-0.7,1.7-1.4,2.4-2.2c0.7-0.8,1.4-1.7,2-2.6c0.6-0.9,1.1-1.9,1.6-2.9c0.5-1,0.8-2,1.2-3.1c0.3-1.1,0.6-2.1,0.7-3.2
			c0.1-0.6,0.2-1.1,0.2-1.7c0-0.3,0-0.6,0.1-0.9v-0.2v-0.1V36c0,0,0,0.1,0,0v-0.4v-0.4v-0.4c0-0.3,0-0.5,0-0.8
			C68.7,33.5,68.7,32.9,68.6,32.4z"/>
	</g>
</g>
<g>
	<path class="st21" d="M79.5,27c0.5,0.5,1.2,0.7,2.2,0.7c1,0,1.9-0.1,2.8-0.3c0.4-0.1,0.7-0.1,0.9-0.1c0.3,0,0.4,0.1,0.5,0.4
		c0.2,1,0.4,1.8,0.4,2.3c0,0.4-0.2,0.7-0.7,0.9c-1.3,0.5-3.2,0.7-5.6,0.7c-4,0-6-2.1-6-6.3c0-1.6,0.3-3.3,0.8-5.1
		c0.6-1.9,1.4-3.4,2.4-4.6c1.5-1.7,3.8-2.6,6.9-2.6c1.7,0,3,0.1,3.9,0.4c0.3,0.1,0.5,0.4,0.5,0.8c0,0.2-0.1,0.6-0.2,1.1
		c-0.2,0.6-0.3,1-0.5,1.4c-0.1,0.3-0.3,0.4-0.6,0.4c-0.1,0-0.4,0-0.9-0.1c-0.7-0.1-1.4-0.2-2.1-0.2c-1.4,0-2.4,0.4-3.1,1.1
		c-0.6,0.7-1.1,1.7-1.5,3.1c-0.3,1.3-0.5,2.6-0.5,3.8C78.7,25.8,79,26.6,79.5,27z"/>
	<path class="st21" d="M99.4,26.3c-0.4,1.4-1,2.5-1.8,3.4c-1.1,1.2-2.8,1.8-5.2,1.8c-0.9,0-1.6-0.1-2.2-0.2
		c-0.6-0.1-1.2-0.3-1.8-0.6c-0.6-0.3-1-0.8-1.3-1.4c-0.3-0.6-0.4-1.4-0.4-2.3c0-1.3,0.2-2.6,0.6-3.9c0.4-1.3,1-2.4,1.9-3.2
		c1.2-1.2,2.8-1.8,4.9-1.8c0.7,0,1.3,0,1.8,0.1c0.5,0.1,1,0.2,1.6,0.3c0.5,0.2,1,0.4,1.3,0.7c0.3,0.3,0.6,0.7,0.8,1.2
		c0.2,0.5,0.3,1.2,0.3,1.9C100,23.6,99.8,24.9,99.4,26.3z M94.9,22.2c-0.2-0.2-0.5-0.3-1-0.3c-0.7,0-1.1,0.2-1.4,0.7
		c-0.3,0.5-0.5,1.1-0.7,1.9c-0.2,0.8-0.3,1.5-0.3,2c0,0.5,0.1,0.8,0.3,1s0.5,0.3,1,0.3c0.6,0,1-0.2,1.3-0.6c0.3-0.4,0.5-1,0.7-2
		c0.2-1,0.3-1.7,0.3-2.2C95.2,22.6,95.1,22.3,94.9,22.2z"/>
	<path class="st21" d="M104.6,31.2h-3.1c-0.4,0-0.6-0.2-0.6-0.6c0-0.2,0-0.4,0.1-0.6l2.2-10.5c0.1-0.7,0.5-1.1,1.1-1.1h2.8
		c0.3,0,0.5,0.1,0.6,0.2c0.1,0.1,0.2,0.3,0.2,0.5v0.2c1.1-0.8,2.2-1.2,3.5-1.2c1.8,0,2.9,0.4,3.3,1.3c1.2-0.9,2.5-1.3,4.1-1.3
		c2.4,0,3.5,0.8,3.5,2.3c0,0.5-0.1,1.2-0.3,2.1l-1.7,7.9c-0.1,0.5-0.4,0.8-0.9,0.8h-3.1c-0.4,0-0.6-0.2-0.6-0.6c0,0,0-0.2,0.1-0.5
		l1.4-6.8c0.1-0.3,0.1-0.6,0.1-0.8c0-0.4-0.3-0.7-0.9-0.7c-0.3,0-0.6,0-0.9,0.1c-0.2,0.1-0.4,0.2-0.6,0.3c-0.2,0.2-0.3,0.4-0.4,0.8
		l-1.5,7.2c-0.1,0.5-0.4,0.8-0.9,0.8h-3.1c-0.4,0-0.6-0.2-0.6-0.6c0,0,0-0.2,0.1-0.5l1.4-6.8c0.1-0.3,0.1-0.6,0.1-0.8
		c0-0.4-0.3-0.7-0.9-0.7c-0.3,0-0.6,0-0.9,0.1c-0.2,0.1-0.4,0.2-0.6,0.3c-0.2,0.2-0.3,0.4-0.4,0.8l-1.5,7.1
		C105.4,30.9,105.1,31.2,104.6,31.2z"/>
	<path class="st21" d="M126.4,36.5c-0.1,0.4-0.2,0.6-0.4,0.7c-0.2,0.1-0.4,0.2-0.7,0.2h-2.9c-0.5,0-0.7-0.2-0.7-0.7
		c0,0,0-0.2,0.1-0.5l3.5-16.6c0.1-0.4,0.2-0.7,0.4-0.9s0.4-0.2,0.8-0.2h2.4c0.4,0,0.7,0,0.8,0.1s0.2,0.3,0.2,0.5c0,0.1,0,0.3,0,0.4
		c0.8-0.9,2-1.3,3.6-1.3c1.2,0,2.1,0.3,2.7,0.8s0.9,1.5,0.9,2.8c0,0.9-0.1,2-0.4,3.3c-0.3,1.3-0.6,2.4-1.1,3.3
		c-0.6,1.2-1.4,2-2.3,2.4s-2.2,0.6-3.8,0.6c-0.3,0-0.7,0-1.1-0.1c-0.4-0.1-0.7-0.1-0.8-0.2L126.4,36.5z M129.3,27.9
		c0.6,0,1-0.1,1.4-0.3s0.6-0.5,0.7-1c0.5-1.3,0.8-2.5,0.8-3.6c0-0.4-0.1-0.7-0.3-0.8c-0.2-0.2-0.5-0.3-1-0.3c-0.5,0-0.9,0.1-1.3,0.3
		c-0.1,0.1-0.2,0.2-0.3,0.3c-0.1,0.2-0.1,0.3-0.2,0.5l-1,4.8C128.6,27.8,129,27.9,129.3,27.9z"/>
	<path class="st21" d="M141.7,31.5c-2.3,0-3.5-0.8-3.5-2.3c0-0.5,0.1-1.2,0.3-2.1l1.7-7.9c0.1-0.5,0.4-0.8,0.9-0.8h3.1
		c0.4,0,0.6,0.2,0.6,0.6c0,0,0,0.2-0.1,0.5l-1.4,6.8c-0.1,0.3-0.1,0.6-0.1,0.8c0,0.4,0.3,0.7,1,0.7c0.2,0,0.5,0,0.9-0.1
		c0.3-0.1,0.5-0.2,0.7-0.4c0.2-0.2,0.3-0.4,0.4-0.8l1.5-7.1c0.1-0.6,0.4-0.9,1-0.9h3.1c0.4,0,0.6,0.2,0.6,0.6c0,0.2,0,0.4-0.1,0.6
		L150,30.2c-0.1,0.7-0.5,1.1-1.1,1.1h-2.8c-0.3,0-0.5-0.1-0.6-0.2c-0.1-0.1-0.2-0.3-0.2-0.5v-0.2C144.3,31.1,143,31.5,141.7,31.5z"
		/>
	<path class="st21" d="M75.2,53.3c-0.1,0.3-0.2,0.5-0.4,0.7c-0.2,0.2-0.4,0.2-0.7,0.2H71c-0.5,0-0.7-0.2-0.7-0.6
		c0-0.2,0-0.4,0.1-0.6l3.3-15.8c0.1-0.7,0.5-1,1.1-1h9.3c0.5,0,0.8,0.2,0.8,0.6c0,0.3-0.2,1.2-0.6,2.7c-0.1,0.5-0.5,0.7-1,0.7H78
		l-0.7,3.3h4.5c0.5,0,0.8,0.2,0.8,0.6c0,0.3-0.2,1.2-0.6,2.7c-0.1,0.5-0.5,0.7-1,0.7h-4.5L75.2,53.3z"/>
	<path class="st21" d="M83.5,54.2c-0.4,0-0.6-0.2-0.6-0.6c0-0.1,0-0.3,0.1-0.7l2.2-10.6c0.1-0.6,0.4-0.9,0.9-0.9h3.2
		c0.4,0,0.6,0.2,0.6,0.6c0,0.2,0,0.4-0.1,0.7l-2.2,10.5c-0.1,0.6-0.4,0.9-0.9,0.9H83.5z M90.5,38.2c-0.1,0.4-0.3,0.8-0.6,1.1
		c-0.4,0.4-1.1,0.6-1.9,0.6c-1.3,0-2-0.6-2-1.7c0-0.9,0.2-1.6,0.7-2.1c0.5-0.5,1.1-0.7,1.9-0.7c1.3,0,2,0.6,2,1.7
		C90.7,37.4,90.6,37.7,90.5,38.2z"/>
	<path class="st21" d="M93.4,53.7h-3.1c-0.4,0-0.6-0.2-0.6-0.6c0-0.2,0-0.4,0.1-0.6l2.2-10.5c0.1-0.7,0.5-1.1,1.1-1.1h2.8
		c0.3,0,0.5,0.1,0.6,0.2c0.1,0.1,0.2,0.3,0.2,0.5v0.2c1.1-0.8,2.3-1.2,3.7-1.2c2.4,0,3.5,0.8,3.5,2.3c0,0.5-0.1,1.2-0.3,2.1
		l-1.7,7.9c-0.1,0.5-0.4,0.8-0.9,0.8h-3.1c-0.4,0-0.6-0.2-0.6-0.6c0,0,0-0.2,0.1-0.5l1.4-6.8c0.1-0.3,0.1-0.6,0.1-0.8
		c0-0.4-0.3-0.7-1-0.7c-0.2,0-0.5,0-0.9,0.1c-0.3,0.1-0.5,0.2-0.7,0.4c-0.2,0.2-0.3,0.4-0.4,0.8l-1.5,7.1
		C94.2,53.4,93.9,53.7,93.4,53.7z"/>
	<path class="st21" d="M115.4,53.4c-0.1,0.1-0.4,0.2-0.8,0.2h-2.5c-0.4,0-0.6,0-0.7-0.1c-0.1-0.1-0.2-0.3-0.2-0.5c0-0.1,0-0.2,0-0.3
		c-0.8,0.8-1.9,1.2-3.5,1.2c-1.2,0-2.1-0.3-2.7-1c-0.7-0.7-1-1.7-1-3.1c0-1.5,0.2-3,0.7-4.5c0.5-1.5,1.2-2.6,2.2-3.4
		c1.1-0.9,2.7-1.3,5-1.3c0.2,0,0.5,0,0.9,0.1c0.4,0.1,0.6,0.1,0.7,0.2l1.1-5.4c0.1-0.6,0.5-1,1.2-1h2.8c0.5,0,0.8,0.2,0.8,0.7
		c0,0.1,0,0.3-0.1,0.6l-3.5,16.7C115.6,52.9,115.5,53.2,115.4,53.4z M112.7,44.4c-0.4-0.1-0.8-0.1-1.1-0.1c-0.8,0-1.4,0.2-1.8,0.7
		c-0.3,0.4-0.5,0.9-0.7,1.6c-0.2,0.7-0.3,1.4-0.3,2c0,1.1,0.4,1.6,1.1,1.6c0.5,0,0.9-0.1,1.3-0.3c0.1-0.1,0.2-0.1,0.3-0.3
		c0.1-0.1,0.1-0.3,0.1-0.5L112.7,44.4z"/>
	<path class="st21" d="M122.9,49.3c0,0.5,0.2,0.8,0.5,0.9c0.3,0.2,0.8,0.2,1.4,0.2c0.9,0,1.9-0.1,2.9-0.3l0.8-0.1
		c0.3,0,0.5,0.2,0.6,0.5c0.2,0.8,0.3,1.4,0.3,1.9c0,0.4-0.2,0.7-0.6,0.9c-1.2,0.5-3.1,0.8-5.5,0.8c-1.9,0-3.2-0.4-4-1.2
		c-0.8-0.8-1.1-1.9-1.1-3.5c0-2.7,0.6-4.8,1.9-6.4c1.2-1.5,3.1-2.3,5.7-2.3c1.8,0,3.1,0.3,3.8,1c0.7,0.6,1.1,1.6,1.1,2.9
		c0,1-0.1,2.1-0.4,3.3c-0.1,0.4-0.3,0.7-0.5,0.9c-0.2,0.1-0.4,0.2-0.8,0.2h-6C122.9,48.9,122.9,49.1,122.9,49.3z M126.2,45.8
		c0.1-0.4,0.2-0.7,0.2-1c0-0.6-0.4-0.9-1.2-0.9c-0.4,0-0.8,0.1-1.1,0.4c-0.3,0.3-0.5,0.8-0.7,1.6H126.2z"/>
	<path class="st21" d="M134.7,53.7h-3c-0.5,0-0.7-0.2-0.7-0.6c0,0,0-0.2,0.1-0.6l2.2-10.5c0.1-0.7,0.5-1.1,1.1-1.1h2.9
		c0.5,0,0.7,0.2,0.7,0.6v0.3c0.2-0.3,0.6-0.6,1.1-0.9c0.5-0.3,1.1-0.4,1.6-0.4c0.5,0,0.8,0,1,0.1c0.3,0.1,0.4,0.4,0.4,0.7
		c0,0.2-0.1,0.6-0.3,1.3s-0.3,1.1-0.4,1.3c-0.2,0.3-0.5,0.5-0.9,0.5c-0.2,0-0.4,0-0.9-0.1c-0.4,0-0.7-0.1-0.8-0.1
		c-0.4,0-0.7,0-1,0.1c-0.2,0.1-0.3,0.2-0.4,0.4c-0.1,0.2-0.2,0.4-0.2,0.6l-1.6,7.4C135.5,53.5,135.2,53.7,134.7,53.7z"/>
	<path class="st21" d="M151.9,47c0.4,0.5,0.7,1.1,0.7,1.8c0,1.7-0.5,3-1.4,3.9c-1,0.8-2.4,1.2-4.4,1.2c-2.4,0-4.1-0.2-5-0.6
		c-0.3-0.1-0.4-0.3-0.4-0.6c0-0.5,0.2-1.3,0.6-2.3c0.2-0.4,0.5-0.6,0.9-0.6c0.2,0,0.5,0.1,0.9,0.2c1,0.3,2.1,0.4,3.4,0.4
		c0.4,0,0.7-0.1,0.8-0.2c0.1-0.1,0.1-0.2,0.1-0.4c0-0.3-0.2-0.4-0.7-0.6l-1.4-0.4c-1-0.3-1.7-0.6-2.2-1.1s-0.8-1.1-0.8-2
		c0-1.7,0.6-3.1,1.8-4c1-0.7,2.5-1.1,4.5-1.1c1.5,0,2.7,0.1,3.6,0.4c0.4,0.1,0.6,0.3,0.6,0.7c0,0.6-0.2,1.4-0.5,2.3
		c-0.1,0.4-0.4,0.5-0.8,0.5c-0.2,0-0.5,0-0.8-0.1c-1-0.2-1.8-0.2-2.6-0.2c-0.4,0-0.7,0.1-0.8,0.2c-0.1,0.1-0.2,0.3-0.2,0.5
		c0,0.3,0.3,0.5,0.8,0.6l1.4,0.5C150.8,46.2,151.5,46.5,151.9,47z"/>
</g>
<rect x="115" y="29.7" transform="matrix(0.9795 0.2013 -0.2013 0.9795 9.1779 -22.9169)" class="st21" width="4.6" height="8"/>
</svg>
